<?xml version="1.0" standalone="no"?>
<!DOCTYPE svg PUBLIC "-//W3C//DTD SVG 20010904//EN"
 "http://www.w3.org/TR/2001/REC-SVG-20010904/DTD/svg10.dtd">
<svg version="1.0" xmlns="http://www.w3.org/2000/svg"
 width="2048.000000pt" height="1593.000000pt" viewBox="0 0 2048.000000 1593.000000"
 preserveAspectRatio="xMidYMid meet">
<metadata>
Created by potrace 1.16, written by Peter Selinger 2001-2019
</metadata>
<g transform="translate(0.000000,1593.000000) scale(0.100000,-0.100000)"
fill="#000000" stroke="none">
<path d="M3685 14773 c-318 -28 -565 -79 -770 -161 -330 -132 -558 -295 -756
-542 -248 -309 -395 -739 -439 -1284 -14 -176 -14 -9472 0 -9652 60 -767 332
-1314 810 -1628 281 -185 585 -289 1005 -343 134 -17 433 -18 6700 -18 5299 0
6580 2 6665 13 378 46 614 113 870 245 519 268 833 736 944 1410 14 84 30 204
36 267 7 77 10 1700 10 4883 0 5096 2 4869 -46 5152 -97 576 -366 1032 -769
1300 -89 59 -264 152 -340 180 -27 10 -54 22 -60 26 -18 13 -247 76 -355 98
-58 11 -157 28 -220 38 -108 16 -494 18 -6680 19 -3611 0 -6583 -1 -6605 -3z
m12973 -1194 c275 -29 463 -112 636 -278 161 -156 265 -394 296 -683 14 -133
14 -9186 0 -9313 -30 -268 -108 -476 -235 -625 -149 -174 -348 -280 -613 -328
-92 -16 -447 -17 -6507 -17 -6042 0 -6416 1 -6507 17 -245 44 -415 128 -561
275 -141 142 -220 306 -269 558 l-22 110 -4 4555 c-2 3173 0 4599 8 4699 17
237 65 416 151 567 85 149 260 304 427 378 78 34 232 73 337 85 120 13 12741
14 12863 0z"/>
<path d="M4919 12126 c-206 -60 -353 -263 -351 -487 0 -42 6 -95 12 -120 36
-131 132 -246 281 -334 46 -27 120 -73 164 -101 44 -29 174 -109 290 -179 115
-70 268 -164 340 -209 71 -46 231 -144 355 -220 397 -243 535 -331 536 -341 0
-5 -63 -49 -141 -96 -77 -47 -178 -110 -225 -141 -47 -30 -195 -123 -330 -205
-135 -83 -324 -200 -420 -260 -96 -60 -283 -176 -415 -258 -259 -160 -349
-235 -394 -328 -94 -194 -54 -432 98 -586 109 -112 263 -159 416 -128 101 21
182 61 370 185 83 54 256 166 385 247 129 82 255 163 280 180 25 17 162 105
305 195 143 90 281 178 306 196 26 18 152 99 280 180 340 214 430 277 501 352
74 79 119 158 147 262 70 253 8 509 -166 687 -73 73 -36 49 -992 658 -147 94
-289 185 -317 204 -27 19 -146 95 -264 169 -118 74 -285 181 -370 237 -227
149 -318 202 -385 226 -75 26 -229 34 -296 15z"/>
<path d="M8210 8694 c-219 -59 -367 -293 -333 -527 24 -171 130 -310 285 -376
l63 -26 1460 -3 c937 -1 1477 1 1507 7 229 49 390 283 358 523 -11 79 -20 109
-55 177 -53 105 -167 194 -290 227 -78 21 -2917 19 -2995 -2z"/>
</g>
</svg>
