<?xml version="1.0" standalone="no"?>
<!DOCTYPE svg PUBLIC "-//W3C//DTD SVG 20010904//EN"
 "http://www.w3.org/TR/2001/REC-SVG-20010904/DTD/svg10.dtd">
<svg version="1.0" xmlns="http://www.w3.org/2000/svg"
 width="2048.000000pt" height="2048.000000pt" viewBox="0 0 2048.000000 2048.000000"
 preserveAspectRatio="xMidYMid meet">
<metadata>
Created by potrace 1.16, written by Peter Selinger 2001-2019
</metadata>
<g transform="translate(0.000000,2048.000000) scale(0.100000,-0.100000)"
fill="#000000" stroke="none">
<path d="M9880 19093 c-244 -13 -427 -26 -550 -39 -1081 -112 -2083 -402
-3040 -881 -512 -256 -907 -499 -1345 -829 -734 -552 -1309 -1131 -1864 -1876
-572 -769 -1043 -1708 -1326 -2643 -379 -1253 -478 -2554 -294 -3850 140 -983
434 -1908 888 -2790 104 -202 228 -425 296 -530 17 -27 47 -75 65 -105 168
-273 485 -710 711 -980 1071 -1280 2451 -2226 4004 -2744 1254 -419 2595 -551
3925 -385 2240 278 4302 1421 5745 3184 438 535 781 1067 1085 1680 209 422
377 833 503 1235 644 2047 540 4221 -296 6185 -92 217 -347 727 -459 920 -544
937 -1254 1772 -2083 2450 -166 136 -519 401 -655 492 -145 97 -433 277 -565
353 -179 104 -696 360 -900 447 -971 413 -1981 647 -3040 702 -145 8 -693 11
-805 4z m835 -1484 c1082 -76 2104 -369 3028 -870 1287 -698 2297 -1709 2998
-2999 450 -829 746 -1792 844 -2740 27 -269 33 -395 33 -765 0 -364 -5 -473
-33 -755 -132 -1332 -644 -2627 -1469 -3720 -1190 -1577 -3004 -2616 -4991
-2860 -271 -33 -420 -42 -820 -45 -429 -3 -603 4 -920 40 -897 101 -1836 395
-2635 825 -1309 704 -2331 1727 -3036 3040 -363 676 -637 1478 -764 2240 -74
439 -94 703 -95 1230 0 499 11 675 71 1090 77 540 251 1176 461 1690 506 1236
1304 2288 2335 3078 1154 884 2529 1409 3971 1516 195 15 840 18 1022 5z"/>
<path d="M6720 10948 c-355 -23 -603 -202 -692 -496 -28 -95 -35 -301 -14
-402 30 -142 109 -273 220 -368 71 -60 206 -125 317 -153 l94 -24 3585 0 3585
0 94 24 c273 68 457 241 522 488 26 100 29 284 6 393 -25 115 -93 242 -170
320 -107 107 -223 166 -397 203 -94 19 -129 20 -3570 21 -1911 0 -3522 -2
-3580 -6z"/>
</g>
</svg>
