<?xml version="1.0" standalone="no"?>
<!DOCTYPE svg PUBLIC "-//W3C//DTD SVG 20010904//EN"
 "http://www.w3.org/TR/2001/REC-SVG-20010904/DTD/svg10.dtd">
<svg version="1.0" xmlns="http://www.w3.org/2000/svg"
 width="2048.000000pt" height="1928.000000pt" viewBox="0 0 2048.000000 1928.000000"
 preserveAspectRatio="xMidYMid meet">
<metadata>
Created by potrace 1.16, written by Peter Selinger 2001-2019
</metadata>
<g transform="translate(0.000000,1928.000000) scale(0.100000,-0.100000)"
fill="#000000" stroke="none">
<path d="M4950 17453 c-123 -7 -431 -45 -559 -69 -448 -83 -908 -261 -1236
-479 -334 -222 -639 -545 -838 -885 -293 -503 -449 -1065 -497 -1785 -14 -209
-13 -6504 0 -6725 52 -825 256 -1462 641 -2005 109 -154 312 -369 459 -488
100 -81 363 -257 470 -315 255 -139 660 -272 1040 -341 299 -55 629 -79 1082
-81 l157 0 4 -1227 c3 -1093 5 -1235 20 -1293 70 -283 210 -454 431 -527 72
-24 97 -27 226 -27 139 -1 149 1 240 32 124 43 248 118 390 238 126 105 150
127 385 349 88 83 196 184 240 225 44 41 152 142 240 225 88 83 194 182 235
220 41 38 145 135 230 216 85 80 203 191 262 245 58 54 231 216 384 359 153
143 356 332 450 420 95 88 264 246 376 352 l205 192 2744 4 c2917 4 2782 2
3134 48 189 24 486 91 693 155 462 143 902 408 1207 726 255 265 428 527 575
867 183 423 287 900 320 1466 13 232 13 6432 0 6655 -42 697 -191 1264 -456
1740 -185 333 -396 585 -684 815 -165 132 -281 208 -458 298 -395 202 -766
311 -1287 379 l-170 22 -5300 1 c-2915 1 -5325 0 -5355 -2z m5474 -2062 c162
-45 294 -122 414 -243 114 -116 191 -238 240 -384 75 -222 67 -495 -21 -714
-112 -276 -345 -484 -642 -571 -69 -20 -102 -24 -235 -24 -133 0 -166 4 -235
24 -531 155 -826 683 -685 1226 25 96 93 239 149 315 150 201 347 332 571 381
117 26 331 21 444 -10z m170 -3196 c207 -44 336 -172 408 -405 l23 -75 3
-1987 2 -1988 454 0 c269 0 487 -4 533 -11 208 -28 386 -184 439 -384 18 -67
18 -207 -1 -278 -52 -199 -217 -354 -413 -387 -48 -7 -514 -10 -1627 -8
l-1560 3 -65 22 c-302 103 -447 472 -297 758 39 75 136 172 213 214 122 66
109 65 662 69 l502 3 -2 1707 -3 1707 -455 5 c-440 5 -457 6 -514 28 -212 80
-337 265 -337 497 0 111 25 197 79 281 74 113 199 199 335 229 95 21 1524 21
1621 0z"/>
</g>
</svg>
