<?xml version="1.0" standalone="no"?>
<!DOCTYPE svg PUBLIC "-//W3C//DTD SVG 20010904//EN"
 "http://www.w3.org/TR/2001/REC-SVG-20010904/DTD/svg10.dtd">
<svg version="1.0" xmlns="http://www.w3.org/2000/svg"
 width="2048.000000pt" height="1593.000000pt" viewBox="0 0 2048.000000 1593.000000"
 preserveAspectRatio="xMidYMid meet">
<metadata>
Created by potrace 1.16, written by Peter Selinger 2001-2019
</metadata>
<g transform="translate(0.000000,1593.000000) scale(0.100000,-0.100000)"
fill="#000000" stroke="none">
<path d="M3377 14765 c-243 -30 -441 -84 -627 -172 -208 -99 -331 -184 -472
-327 -299 -304 -466 -691 -545 -1266 -16 -117 -17 -449 -21 -4895 -2 -3354 0
-4817 8 -4930 39 -574 183 -998 456 -1343 79 -99 244 -250 351 -322 89 -59
296 -162 428 -213 186 -72 461 -126 750 -147 107 -8 1960 -10 6435 -7 l6285 3
126 21 c331 56 577 149 819 310 399 266 666 722 770 1317 47 270 45 74 45
4496 0 3953 -1 4182 -18 4300 -43 301 -115 559 -215 772 -206 437 -564 749
-1042 908 -168 56 -380 104 -580 132 -63 9 -1051 13 -3860 18 l-3775 6 -110
21 c-315 62 -492 155 -821 434 -61 52 -194 164 -295 248 -101 85 -186 158
-189 161 -37 46 -267 203 -403 275 -190 100 -337 148 -579 187 -131 22 -150
22 -1473 24 -1063 2 -1362 -1 -1448 -11z m7507 -4295 c150 -38 174 -58 506
-415 107 -115 245 -261 306 -325 184 -192 436 -460 959 -1020 275 -294 543
-580 595 -635 282 -297 359 -383 398 -443 86 -133 112 -292 72 -439 -32 -120
-93 -215 -224 -352 -61 -64 -215 -226 -341 -361 -126 -135 -267 -285 -315
-335 -47 -49 -220 -234 -385 -410 -395 -421 -623 -663 -764 -810 -64 -66 -213
-224 -331 -350 -118 -127 -230 -245 -248 -263 -95 -92 -215 -142 -344 -142
-209 0 -388 107 -472 282 -47 97 -59 154 -59 273 1 81 6 115 27 178 38 114 77
166 227 312 73 72 168 164 210 205 42 41 188 183 325 315 137 132 319 308 404
391 85 83 266 258 403 389 136 131 246 239 245 240 -2 1 -140 -4 -308 -13
-402 -19 -5009 -30 -5105 -12 -161 31 -335 161 -408 306 -53 106 -71 175 -71
284 -1 116 14 179 66 290 71 149 219 273 378 315 48 13 355 15 2275 13 1944
-1 2272 -3 2640 -19 231 -9 447 -18 480 -18 l60 -1 -95 93 c-52 51 -187 180
-300 287 -113 107 -342 328 -510 491 -168 162 -419 405 -558 540 -142 137
-270 269 -292 302 -181 269 -95 662 178 810 63 34 180 66 248 66 28 1 86 -8
128 -19z"/>
</g>
</svg>
