<?xml version="1.0" standalone="no"?>
<!DOCTYPE svg PUBLIC "-//W3C//DTD SVG 20010904//EN"
 "http://www.w3.org/TR/2001/REC-SVG-20010904/DTD/svg10.dtd">
<svg version="1.0" xmlns="http://www.w3.org/2000/svg"
 width="2048.000000pt" height="1593.000000pt" viewBox="0 0 2048.000000 1593.000000"
 preserveAspectRatio="xMidYMid meet">
<metadata>
Created by potrace 1.16, written by Peter Selinger 2001-2019
</metadata>
<g transform="translate(0.000000,1593.000000) scale(0.100000,-0.100000)"
fill="#000000" stroke="none">
<path d="M3465 14773 c-183 -16 -479 -77 -568 -117 -352 -156 -418 -198 -603
-381 -156 -156 -222 -245 -321 -441 -142 -277 -225 -614 -253 -1029 -8 -114
-10 -1538 -8 -4915 3 -4496 4 -4762 21 -4890 82 -620 274 -1040 619 -1350 137
-123 262 -203 456 -289 227 -101 434 -157 732 -198 117 -16 541 -17 6400 -21
4579 -2 6314 0 6420 8 325 25 527 78 796 206 570 272 905 809 1011 1619 17
134 18 333 18 4300 0 4416 2 4204 -46 4480 -81 469 -287 878 -572 1134 -278
249 -593 393 -1052 480 -238 46 -176 44 -2590 48 -5242 7 -5221 7 -5320 26
-208 38 -389 107 -541 206 -77 49 -370 283 -444 353 -21 19 -247 210 -424 357
-104 86 -326 216 -496 289 -123 53 -360 103 -575 122 -110 9 -2559 12 -2660 3z
m6876 -3813 c255 -25 492 -78 689 -153 513 -196 859 -488 1055 -892 75 -153
118 -284 147 -444 30 -166 30 -486 0 -651 -95 -520 -391 -896 -1065 -1353
-333 -225 -497 -363 -607 -509 -123 -162 -158 -270 -170 -518 -4 -96 -13 -195
-20 -220 -33 -121 -130 -246 -237 -303 -83 -44 -192 -67 -319 -68 -248 0 -412
84 -493 254 -48 100 -61 178 -61 367 0 198 11 297 50 448 67 256 182 449 402
675 106 108 194 181 428 352 310 227 395 292 445 336 343 301 447 490 447 814
0 251 -74 445 -232 605 -198 202 -413 286 -755 297 -304 9 -488 -42 -715 -198
-143 -98 -253 -217 -386 -419 -123 -186 -161 -235 -238 -307 -200 -190 -429
-232 -649 -122 -257 130 -320 399 -190 804 124 386 427 716 852 929 292 147
587 232 941 270 152 17 539 20 681 6z m-427 -5765 c210 -21 453 -188 553 -380
70 -135 88 -209 87 -360 0 -121 -2 -137 -33 -228 -83 -240 -272 -419 -518
-489 -101 -29 -286 -31 -383 -5 -208 55 -409 221 -499 411 -55 117 -66 169
-66 316 0 147 14 210 75 329 113 225 348 387 594 410 72 7 86 7 190 -4z"/>
</g>
</svg>
