<?xml version="1.0" standalone="no"?>
<!DOCTYPE svg PUBLIC "-//W3C//DTD SVG 20010904//EN"
 "http://www.w3.org/TR/2001/REC-SVG-20010904/DTD/svg10.dtd">
<svg version="1.0" xmlns="http://www.w3.org/2000/svg"
 width="2048.000000pt" height="1229.000000pt" viewBox="0 0 2048.000000 1229.000000"
 preserveAspectRatio="xMidYMid meet">
<metadata>
Created by potrace 1.16, written by Peter Selinger 2001-2019
</metadata>
<g transform="translate(0.000000,1229.000000) scale(0.100000,-0.100000)"
fill="#000000" stroke="none">
<path d="M2728 10220 c-227 -41 -416 -164 -542 -354 -94 -142 -129 -267 -130
-461 -1 -279 73 -433 337 -698 56 -57 223 -229 372 -383 148 -153 310 -320
360 -370 49 -49 158 -160 240 -245 83 -84 332 -341 555 -569 223 -229 558
-573 745 -765 187 -193 380 -391 430 -441 49 -50 218 -223 375 -385 156 -162
381 -393 500 -514 172 -176 418 -428 624 -641 12 -12 104 -107 206 -210 102
-104 338 -346 525 -539 187 -192 439 -451 561 -575 318 -325 953 -976 1149
-1180 236 -245 298 -304 390 -369 180 -129 398 -176 630 -136 177 31 328 119
481 278 44 45 248 255 454 467 206 212 447 459 535 550 595 614 841 866 920
945 50 50 155 158 235 240 127 132 466 480 1025 1055 94 96 231 238 305 314
74 77 178 182 230 235 53 53 248 254 435 446 187 193 405 417 485 500 80 82
235 242 345 355 432 443 603 618 935 960 190 195 383 394 430 441 210 214 603
621 661 686 145 163 209 328 209 544 0 173 -44 328 -127 454 -171 257 -437
390 -742 372 -254 -15 -424 -108 -668 -364 -72 -76 -191 -199 -265 -273 -73
-74 -295 -302 -493 -505 -198 -203 -461 -473 -585 -600 -124 -126 -313 -320
-420 -430 -107 -110 -293 -301 -415 -425 -121 -124 -373 -383 -560 -575 -187
-193 -441 -452 -564 -576 -123 -125 -226 -231 -230 -238 -4 -6 -106 -111 -226
-233 -336 -342 -608 -620 -980 -1003 -186 -193 -384 -395 -440 -451 -55 -55
-156 -159 -225 -230 -69 -71 -301 -308 -515 -527 l-389 -398 -145 148 c-80 81
-251 256 -381 388 -129 132 -395 404 -590 605 -195 201 -422 434 -505 518 -82
85 -184 188 -225 230 -41 42 -242 248 -445 457 -494 508 -684 703 -780 799
-44 45 -206 212 -360 371 -154 160 -321 331 -370 380 -121 121 -809 825 -815
835 -3 4 -185 191 -405 416 -220 225 -466 476 -545 559 -80 82 -186 190 -235
240 -50 49 -219 222 -375 383 -349 360 -431 422 -616 473 -88 23 -294 34 -376
19z"/>
</g>
</svg>
