<?xml version="1.0" standalone="no"?>
<!DOCTYPE svg PUBLIC "-//W3C//DTD SVG 20010904//EN"
 "http://www.w3.org/TR/2001/REC-SVG-20010904/DTD/svg10.dtd">
<svg version="1.0" xmlns="http://www.w3.org/2000/svg"
 width="2048.000000pt" height="1229.000000pt" viewBox="0 0 2048.000000 1229.000000"
 preserveAspectRatio="xMidYMid meet">
<metadata>
Created by potrace 1.16, written by Peter Selinger 2001-2019
</metadata>
<g transform="translate(0.000000,1229.000000) scale(0.100000,-0.100000)"
fill="#000000" stroke="none">
<path d="M9740 10215 c-161 -32 -310 -117 -453 -258 -76 -75 -645 -657 -1047
-1072 -91 -93 -196 -202 -235 -240 -38 -39 -131 -134 -205 -211 -178 -184
-792 -815 -1050 -1079 -352 -360 -623 -637 -965 -990 -181 -187 -373 -383
-425 -435 -52 -52 -226 -230 -385 -394 -160 -165 -319 -329 -355 -366 -36 -36
-139 -142 -230 -236 -91 -93 -331 -340 -535 -549 -203 -209 -436 -448 -518
-532 -81 -83 -184 -189 -230 -235 -181 -183 -759 -779 -839 -865 -141 -152
-204 -304 -215 -518 -10 -185 38 -367 133 -506 60 -87 169 -192 251 -242 250
-152 617 -154 870 -6 71 41 248 218 1105 1099 34 36 160 164 278 285 118 121
307 315 419 430 113 116 309 316 436 445 461 472 687 703 1030 1055 193 198
449 461 570 585 122 124 317 324 435 445 118 121 307 314 420 430 113 115 241
247 285 292 44 45 148 151 230 235 83 84 321 328 530 543 209 214 487 498 618
630 l237 240 56 -60 c31 -33 154 -159 273 -280 353 -361 645 -659 1021 -1045
195 -201 452 -464 571 -585 118 -121 303 -310 410 -420 487 -500 649 -665 719
-736 41 -42 210 -215 375 -385 165 -169 338 -347 385 -394 47 -47 265 -270
485 -495 220 -226 506 -518 635 -650 130 -132 305 -312 390 -400 85 -88 189
-194 230 -235 86 -86 741 -758 844 -867 117 -123 253 -206 397 -243 358 -92
727 41 913 328 106 163 141 293 133 497 -3 72 -12 157 -21 190 -24 89 -86 212
-143 282 -42 53 -413 439 -708 737 -50 50 -248 253 -441 451 -192 198 -534
549 -759 780 -225 231 -468 481 -540 555 -71 74 -171 175 -220 225 -82 82
-539 551 -970 995 -93 96 -257 265 -365 375 -107 110 -276 283 -375 385 -99
102 -281 289 -405 415 -124 127 -378 387 -565 580 -187 192 -437 449 -556 570
-118 121 -375 384 -570 584 -739 760 -741 762 -904 826 -132 52 -314 68 -455
40z"/>
</g>
</svg>
