<?xml version="1.0" standalone="no"?>
<!DOCTYPE svg PUBLIC "-//W3C//DTD SVG 20010904//EN"
 "http://www.w3.org/TR/2001/REC-SVG-20010904/DTD/svg10.dtd">
<svg version="1.0" xmlns="http://www.w3.org/2000/svg"
 width="2048.000000pt" height="1808.000000pt" viewBox="0 0 2048.000000 1808.000000"
 preserveAspectRatio="xMidYMid meet">
<metadata>
Created by potrace 1.16, written by Peter Selinger 2001-2019
</metadata>
<g transform="translate(0.000000,1808.000000) scale(0.100000,-0.100000)"
fill="#000000" stroke="none">
<path d="M13795 16244 c-605 -41 -1149 -184 -1640 -434 -381 -193 -629 -373
-925 -670 -188 -188 -285 -303 -428 -509 -134 -193 -157 -231 -246 -406 -66
-129 -90 -179 -159 -335 -157 -352 -302 -998 -337 -1500 -6 -84 -10 -587 -10
-1192 0 -609 -4 -1049 -9 -1052 -5 -3 -1484 -6 -3287 -7 -1804 -1 -3328 -5
-3389 -10 -366 -29 -656 -120 -900 -283 -121 -81 -278 -238 -352 -352 -66
-100 -153 -273 -184 -362 -51 -146 -92 -358 -109 -562 -14 -160 -13 -5613 0
-5786 31 -390 124 -686 295 -944 197 -295 534 -507 941 -589 236 -48 54 -46
4154 -46 3666 0 3871 1 3980 18 490 76 809 248 1060 569 122 157 228 400 280
644 11 55 30 170 40 255 18 147 19 280 18 2984 0 3059 2 2916 -53 3200 -101
514 -367 878 -790 1080 -86 41 -271 105 -345 120 -19 4 -52 11 -73 16 l-38 10
4 1152 c4 1188 6 1230 48 1482 74 446 203 802 410 1136 110 177 202 293 359
450 399 401 923 654 1541 745 157 23 542 27 714 9 461 -51 889 -202 1250 -443
167 -111 270 -197 425 -358 361 -373 615 -898 714 -1479 48 -279 49 -303 56
-1450 7 -1218 1 -1130 80 -1291 94 -193 306 -314 550 -314 297 0 519 163 597
440 17 61 18 128 18 1125 0 1109 -1 1146 -46 1475 -48 349 -156 755 -289 1089
-237 595 -654 1157 -1150 1547 -566 446 -1267 723 -2051 809 -138 15 -597 27
-724 19z m-2815 -7293 c36 -13 84 -34 107 -47 88 -52 162 -161 200 -295 17
-61 18 -188 18 -2934 0 -2713 -1 -2874 -18 -2935 -41 -152 -117 -255 -235
-318 -124 -66 168 -62 -3848 -62 -2592 0 -3668 3 -3710 11 -141 26 -278 128
-339 253 -70 145 -66 -82 -63 3081 3 2700 4 2853 21 2910 55 187 184 310 367
349 55 12 609 14 3750 13 l3685 -2 65 -24z"/>
</g>
</svg>
