<?xml version="1.0" standalone="no"?>
<!DOCTYPE svg PUBLIC "-//W3C//DTD SVG 20010904//EN"
 "http://www.w3.org/TR/2001/REC-SVG-20010904/DTD/svg10.dtd">
<svg version="1.0" xmlns="http://www.w3.org/2000/svg"
 width="2048.000000pt" height="1593.000000pt" viewBox="0 0 2048.000000 1593.000000"
 preserveAspectRatio="xMidYMid meet">
<metadata>
Created by potrace 1.16, written by Peter Selinger 2001-2019
</metadata>
<g transform="translate(0.000000,1593.000000) scale(0.100000,-0.100000)"
fill="#000000" stroke="none">
<path d="M3640 14769 c-259 -23 -546 -84 -723 -155 -205 -82 -425 -212 -554
-327 -350 -312 -554 -752 -630 -1358 -17 -137 -18 -379 -18 -4979 l0 -4835 23
-165 c94 -685 348 -1148 792 -1442 268 -179 561 -282 962 -340 l153 -22 6480
-4 c4585 -2 6527 0 6640 8 393 26 678 95 950 228 225 111 365 210 500 354 289
311 443 667 522 1213 16 113 17 420 21 4930 3 4906 3 4922 -34 5170 -92 619
-360 1091 -779 1370 -226 151 -534 268 -838 319 -279 48 34 46 -6882 44 -3569
0 -6533 -5 -6585 -9z m11035 -3609 c66 -6 167 -17 225 -26 383 -58 810 -244
1028 -448 24 -23 48 -42 53 -44 5 -2 47 -47 94 -100 192 -215 303 -434 357
-707 31 -155 31 -395 0 -550 -74 -375 -268 -683 -570 -908 -150 -111 -349
-201 -495 -222 -60 -9 -69 -22 -20 -30 372 -60 642 -193 891 -437 310 -305
462 -732 423 -1190 -23 -276 -91 -501 -216 -714 -77 -131 -143 -215 -254 -324
-308 -305 -671 -481 -1196 -579 -734 -138 -1565 19 -2055 386 -207 156 -305
254 -413 418 -109 166 -169 311 -202 490 -24 127 -17 318 14 395 47 114 127
193 246 241 51 21 77 24 175 24 112 0 117 -1 190 -37 120 -59 206 -163 266
-322 86 -228 217 -412 384 -538 85 -65 262 -151 375 -183 260 -74 559 -83 840
-25 333 69 570 217 730 455 64 96 85 143 116 261 31 118 33 329 5 448 -89 383
-402 653 -863 747 -96 19 -153 23 -493 28 -363 7 -388 8 -439 28 -106 43 -169
103 -216 205 -95 208 -18 465 167 559 79 40 157 49 454 49 296 0 383 9 529 51
317 94 557 328 652 636 24 80 27 103 27 248 0 174 -10 233 -64 351 -98 218
-304 383 -558 448 -169 44 -218 50 -397 50 -152 0 -197 -3 -290 -23 -231 -49
-415 -138 -558 -271 -125 -114 -238 -300 -292 -477 -35 -115 -67 -175 -123
-235 -116 -125 -298 -169 -473 -115 -200 62 -310 219 -309 441 1 302 142 653
356 886 86 95 214 211 290 265 144 103 382 217 594 283 312 98 685 139 1015
112z m-4835 -25 c306 -43 640 -157 860 -292 248 -154 451 -371 577 -619 100
-196 147 -356 174 -584 16 -138 6 -382 -20 -527 -80 -432 -340 -878 -830
-1423 -42 -46 -96 -107 -121 -135 -25 -27 -97 -106 -161 -175 -63 -69 -159
-174 -213 -235 -55 -60 -130 -143 -168 -183 -39 -40 -115 -124 -171 -186 -210
-232 -376 -413 -493 -540 -246 -267 -344 -380 -344 -398 0 -17 45 -18 1228
-18 790 0 1243 -4 1271 -11 202 -46 335 -237 318 -454 -15 -186 -109 -324
-264 -386 l-58 -24 -1765 -3 c-1278 -2 -1781 0 -1824 8 -213 41 -346 203 -346
425 0 153 56 276 200 433 52 58 147 162 210 232 63 70 162 178 219 241 58 63
190 208 295 323 105 116 241 264 301 330 61 66 153 167 205 225 52 58 153 169
225 247 154 167 370 403 514 563 58 64 151 166 207 226 320 344 529 647 603
875 131 406 -11 832 -349 1049 -157 100 -387 161 -615 161 -495 2 -877 -261
-1103 -758 -140 -310 -356 -458 -594 -408 -104 21 -163 51 -226 113 -110 109
-147 273 -106 471 109 540 519 1021 1077 1265 245 107 458 163 732 191 85 9
445 -4 555 -19z m-3865 0 c134 -31 258 -130 315 -250 64 -133 60 59 60 -2896
0 -2652 0 -2697 -20 -2773 -50 -197 -184 -330 -368 -366 -95 -19 -233 -8 -311
24 -174 71 -269 208 -300 431 -8 52 -11 803 -11 2396 l0 2319 -30 0 c-23 0
-82 -35 -228 -133 -557 -377 -781 -524 -832 -542 -38 -13 -81 -20 -140 -20
-72 0 -94 4 -142 27 -75 35 -142 104 -181 186 -30 63 -32 74 -32 177 0 104 2
114 32 175 18 36 49 82 70 102 21 20 135 104 253 187 431 300 713 497 768 536
396 281 579 384 742 419 86 19 279 20 355 1z"/>
</g>
</svg>
