<?xml version="1.0" standalone="no"?>
<!DOCTYPE svg PUBLIC "-//W3C//DTD SVG 20010904//EN"
 "http://www.w3.org/TR/2001/REC-SVG-20010904/DTD/svg10.dtd">
<svg version="1.0" xmlns="http://www.w3.org/2000/svg"
 width="2048.000000pt" height="2048.000000pt" viewBox="0 0 2048.000000 2048.000000"
 preserveAspectRatio="xMidYMid meet">
<metadata>
Created by potrace 1.16, written by Peter Selinger 2001-2019
</metadata>
<g transform="translate(0.000000,2048.000000) scale(0.100000,-0.100000)"
fill="#000000" stroke="none">
<path d="M9775 19089 c-1477 -78 -2875 -511 -4149 -1284 -254 -154 -717 -483
-951 -674 -766 -627 -1381 -1313 -1913 -2133 -45 -70 -82 -130 -82 -133 0 -4
-11 -21 -24 -38 -51 -69 -229 -392 -364 -662 -740 -1479 -1042 -3142 -876
-4825 106 -1080 437 -2201 926 -3140 132 -252 156 -297 266 -480 534 -891
1223 -1690 2027 -2349 1152 -946 2522 -1583 3980 -1852 895 -165 1830 -192
2740 -78 802 100 1585 311 2355 636 217 91 701 332 915 455 1368 788 2509
1924 3301 3290 108 185 356 679 443 881 262 606 455 1236 575 1870 152 799
193 1648 120 2462 -121 1359 -542 2628 -1266 3825 -144 236 -410 614 -617 875
-744 937 -1702 1744 -2735 2302 -1310 708 -2762 1070 -4255 1062 -146 -1 -333
-6 -416 -10z m-2745 -4775 c452 -71 847 -318 1118 -700 113 -158 188 -316 246
-518 43 -147 57 -251 66 -506 12 -322 32 -397 134 -491 58 -54 270 -173 818
-458 l158 -82 -144 -142 c-106 -106 -160 -168 -208 -242 -66 -101 -135 -233
-178 -338 -13 -31 -26 -56 -30 -55 -12 6 -524 275 -654 345 -196 104 -237 116
-361 110 -117 -6 -162 -20 -355 -112 -175 -83 -270 -117 -411 -148 -283 -63
-624 -62 -876 2 -428 109 -775 355 -1014 715 -368 557 -367 1308 1 1871 365
557 1033 853 1690 749z m8254 -1498 c253 -66 427 -212 522 -436 58 -138 88
-105 -264 -290 -169 -90 -354 -189 -412 -220 -58 -31 -154 -83 -215 -115 -117
-61 -226 -119 -340 -180 -153 -82 -755 -401 -1655 -877 -520 -275 -1024 -542
-1120 -593 -96 -51 -222 -117 -280 -147 -451 -237 -1821 -965 -2525 -1341
-398 -212 -419 -227 -469 -312 -44 -74 -56 -152 -66 -410 -12 -308 -38 -459
-117 -658 -51 -132 -92 -210 -171 -328 -472 -706 -1374 -954 -2140 -589 -711
339 -1094 1118 -932 1898 67 321 256 659 487 872 225 207 459 337 738 410 179
47 252 55 480 54 339 -3 519 -45 850 -203 192 -91 258 -111 363 -111 102 0
181 29 392 143 96 52 285 154 420 227 135 72 277 153 315 178 91 60 174 146
208 216 15 31 54 156 86 278 33 123 72 257 86 298 120 331 337 557 685 711 90
40 333 129 1035 381 215 76 532 190 705 253 315 114 495 178 1568 561 770 274
872 304 1247 358 17 2 118 3 225 1 172 -2 207 -6 294 -29z m-2392 -3020 c139
-73 550 -291 913 -484 363 -192 692 -367 730 -387 39 -20 106 -56 150 -80 44
-23 139 -73 210 -110 72 -38 202 -107 290 -155 88 -47 274 -146 412 -220 288
-152 266 -124 211 -257 -125 -306 -411 -465 -838 -465 -169 0 -258 9 -454 48
-211 41 -378 95 -1010 321 -331 118 -765 273 -966 344 -369 132 -427 152 -580
209 -77 28 -256 92 -887 317 -117 42 -220 81 -229 88 -18 13 -43 -1 1141 622
319 168 594 314 610 324 17 10 33 19 37 19 5 0 122 -60 260 -134z"/>
<path d="M6577 13614 c-102 -18 -244 -74 -337 -132 -89 -55 -226 -183 -285
-267 -204 -287 -242 -691 -97 -1007 102 -221 316 -424 534 -508 142 -55 251
-73 413 -67 208 8 359 56 519 167 299 207 469 579 426 936 -53 445 -360 787
-785 875 -108 22 -274 24 -388 3z"/>
<path d="M10332 10780 c-79 -26 -156 -88 -196 -160 -29 -51 -31 -62 -31 -150
0 -84 3 -101 27 -145 36 -68 101 -128 173 -162 84 -38 195 -39 275 -2 72 34
135 97 168 167 23 48 27 71 27 142 0 73 -4 93 -28 142 -72 148 -253 221 -415
168z"/>
<path d="M6565 8840 c-192 -40 -339 -118 -482 -254 -146 -138 -232 -284 -285
-480 -32 -117 -32 -362 0 -488 54 -216 159 -385 330 -530 126 -107 309 -192
474 -218 110 -18 321 -8 423 20 465 126 778 588 726 1068 -50 463 -383 820
-831 891 -98 16 -254 12 -355 -9z"/>
</g>
</svg>
