<?xml version="1.0" standalone="no"?>
<!DOCTYPE svg PUBLIC "-//W3C//DTD SVG 20010904//EN"
 "http://www.w3.org/TR/2001/REC-SVG-20010904/DTD/svg10.dtd">
<svg version="1.0" xmlns="http://www.w3.org/2000/svg"
 width="2048.000000pt" height="1912.000000pt" viewBox="0 0 2048.000000 1912.000000"
 preserveAspectRatio="xMidYMid meet">
<metadata>
Created by potrace 1.16, written by Peter Selinger 2001-2019
</metadata>
<g transform="translate(0.000000,1912.000000) scale(0.100000,-0.100000)"
fill="#000000" stroke="none">
<path d="M4635 17733 c-568 -29 -981 -124 -1357 -314 -223 -112 -369 -218
-548 -398 -163 -164 -263 -306 -371 -521 -154 -310 -234 -598 -286 -1025 -17
-143 -18 -412 -18 -5910 0 -6115 -2 -5823 46 -6140 31 -207 113 -512 169 -630
5 -11 27 -60 48 -110 76 -173 207 -384 317 -506 251 -279 483 -438 865 -592
285 -115 614 -181 1030 -207 125 -8 1776 -10 5820 -8 5287 3 5654 5 5790 21
335 40 686 122 845 197 11 5 45 19 75 30 97 38 266 129 392 212 96 64 155 113
269 227 151 151 219 235 306 381 60 101 133 246 158 315 10 28 22 55 25 60 12
18 78 218 99 300 50 201 84 421 101 670 8 116 10 1728 8 5870 -4 5307 -5 5719
-21 5840 -44 338 -111 620 -188 791 -10 22 -28 65 -39 95 -38 96 -120 246
-203 372 -65 99 -111 152 -241 283 -131 130 -184 176 -283 241 -373 246 -773
377 -1343 440 -145 16 -533 17 -5780 18 -3094 1 -5652 0 -5685 -2z m3636
-4133 c743 -74 1377 -473 1829 -1153 37 -56 82 -128 100 -159 17 -32 36 -58
40 -58 4 0 23 26 40 58 123 218 370 529 542 683 306 274 604 445 950 545 522
151 1156 117 1685 -90 172 -67 249 -105 413 -206 186 -116 296 -204 460 -369
140 -141 244 -268 326 -399 21 -34 51 -82 67 -105 51 -78 165 -321 212 -452
124 -345 188 -724 184 -1100 -3 -302 -34 -546 -110 -855 -78 -318 -170 -570
-323 -885 -137 -280 -255 -486 -430 -748 -172 -257 -189 -280 -365 -502 -212
-268 -561 -663 -725 -819 -23 -22 -117 -114 -211 -206 -348 -339 -1018 -907
-1345 -1140 -41 -29 -117 -85 -168 -124 -97 -74 -286 -206 -527 -370 -77 -52
-210 -142 -295 -201 -233 -158 -334 -190 -463 -146 -85 30 -257 121 -409 218
-216 138 -544 359 -648 438 -52 39 -153 113 -225 165 -199 143 -682 529 -845
676 -19 17 -107 95 -195 174 -88 79 -259 240 -380 359 -190 186 -278 278 -520
541 -57 62 -280 330 -345 415 -173 224 -222 292 -367 510 -387 581 -637 1136
-768 1705 -160 698 -117 1380 127 1995 111 280 301 581 502 795 205 218 391
361 681 522 255 143 652 256 1002 287 132 12 388 12 504 1z"/>
</g>
</svg>
