<?xml version="1.0" standalone="no"?>
<!DOCTYPE svg PUBLIC "-//W3C//DTD SVG 20010904//EN"
 "http://www.w3.org/TR/2001/REC-SVG-20010904/DTD/svg10.dtd">
<svg version="1.0" xmlns="http://www.w3.org/2000/svg"
 width="2048.000000pt" height="2048.000000pt" viewBox="0 0 2048.000000 2048.000000"
 preserveAspectRatio="xMidYMid meet">
<metadata>
Created by potrace 1.16, written by Peter Selinger 2001-2019
</metadata>
<g transform="translate(0.000000,2048.000000) scale(0.100000,-0.100000)"
fill="#000000" stroke="none">
<path d="M9880 19094 c-30 -2 -134 -8 -230 -14 -1687 -105 -3350 -718 -4695
-1730 -368 -277 -599 -476 -918 -790 -557 -547 -996 -1099 -1396 -1755 -1092
-1791 -1504 -3985 -1140 -6085 237 -1370 799 -2671 1631 -3775 286 -380 512
-640 843 -970 507 -508 1007 -904 1647 -1306 366 -230 905 -498 1375 -685
1892 -750 4036 -814 5988 -177 1142 372 2167 960 3109 1782 162 142 636 614
777 776 551 629 976 1263 1329 1980 765 1557 1048 3291 824 5050 -190 1490
-785 2948 -1690 4145 -283 373 -514 640 -834 960 -1096 1098 -2434 1878 -3915
2285 -554 152 -1125 249 -1745 295 -139 11 -846 21 -960 14z m2660 -4557 c179
-31 364 -102 495 -190 272 -184 425 -538 425 -986 l0 -91 -2742 -3 c-2094 -2
-2762 -6 -2823 -15 -157 -24 -292 -55 -405 -92 -532 -174 -895 -577 -1025
-1136 -52 -226 -49 -98 -55 -2174 l-5 -1925 -190 1 c-496 4 -814 140 -1012
434 -76 113 -139 286 -169 465 -18 105 -19 218 -19 2420 0 2193 1 2315 18
2415 63 363 235 614 512 753 152 75 353 127 550 140 28 2 1465 3 3195 3 2975
-1 3151 -2 3250 -19z m1826 -1847 c465 -38 764 -215 930 -551 69 -139 106
-291 124 -504 13 -166 13 -4325 0 -4504 -44 -568 -295 -896 -779 -1016 -204
-50 -83 -49 -3362 -49 -1693 -1 -3136 2 -3207 6 -221 11 -392 53 -552 133
-280 140 -442 373 -517 741 -17 84 -18 213 -18 2434 0 2221 1 2350 18 2434 39
191 110 361 201 483 169 224 452 360 816 392 145 13 6190 13 6346 1z"/>
</g>
</svg>
