<?xml version="1.0" standalone="no"?>
<!DOCTYPE svg PUBLIC "-//W3C//DTD SVG 20010904//EN"
 "http://www.w3.org/TR/2001/REC-SVG-20010904/DTD/svg10.dtd">
<svg version="1.0" xmlns="http://www.w3.org/2000/svg"
 width="2048.000000pt" height="2048.000000pt" viewBox="0 0 2048.000000 2048.000000"
 preserveAspectRatio="xMidYMid meet">
<metadata>
Created by potrace 1.16, written by Peter Selinger 2001-2019
</metadata>
<g transform="translate(0.000000,2048.000000) scale(0.100000,-0.100000)"
fill="#000000" stroke="none">
<path d="M9855 19093 c-399 -23 -567 -39 -855 -79 -961 -132 -1882 -421 -2755
-864 -308 -157 -434 -227 -690 -388 -255 -159 -341 -219 -604 -415 -721 -540
-1306 -1128 -1863 -1873 -129 -172 -329 -466 -397 -584 -18 -30 -51 -84 -73
-120 -76 -120 -250 -443 -354 -655 -766 -1569 -1048 -3326 -813 -5075 198
-1479 784 -2908 1678 -4094 406 -538 860 -1025 1336 -1431 44 -37 94 -80 110
-94 77 -66 195 -159 365 -288 916 -692 2006 -1213 3135 -1497 1673 -421 3485
-338 5099 233 575 203 1224 513 1684 802 629 396 1098 766 1601 1263 929 917
1620 1976 2076 3181 478 1266 658 2655 519 4030 -130 1302 -552 2556 -1246
3705 -169 279 -519 766 -749 1040 -725 866 -1597 1590 -2538 2107 -1194 656
-2459 1017 -3816 1092 -141 8 -740 11 -850 4z m-2046 -5603 c431 -106 763
-512 831 -1016 18 -133 9 -373 -20 -499 -63 -282 -220 -540 -425 -700 -625
-489 -1452 -137 -1637 695 -31 142 -34 464 -4 605 21 102 76 265 113 339 158
315 432 532 746 592 98 19 287 11 396 -16z m5311 0 c47 -12 130 -43 185 -69
313 -149 532 -438 623 -824 23 -100 26 -133 26 -307 1 -149 -3 -216 -17 -282
-80 -394 -308 -704 -632 -859 -144 -69 -248 -93 -415 -93 -164 0 -270 23 -406
89 -212 103 -394 286 -506 510 -172 343 -189 793 -43 1156 131 325 345 543
643 655 153 58 371 67 542 24z m-5360 -5799 c440 -222 679 -323 1005 -421 738
-223 1620 -268 2425 -124 538 96 1029 278 1634 604 208 112 260 125 367 94 66
-20 138 -88 157 -150 66 -221 -118 -579 -474 -925 -536 -519 -1330 -882 -2144
-979 -204 -24 -305 -29 -555 -25 -680 9 -1274 162 -1867 481 -250 135 -522
332 -721 524 -456 437 -622 919 -364 1052 61 31 94 38 162 33 53 -4 94 -22
375 -164z"/>
</g>
</svg>
