<?xml version="1.0" standalone="no"?>
<!DOCTYPE svg PUBLIC "-//W3C//DTD SVG 20010904//EN"
 "http://www.w3.org/TR/2001/REC-SVG-20010904/DTD/svg10.dtd">
<svg version="1.0" xmlns="http://www.w3.org/2000/svg"
 width="2048.000000pt" height="1912.000000pt" viewBox="0 0 2048.000000 1912.000000"
 preserveAspectRatio="xMidYMid meet">
<metadata>
Created by potrace 1.16, written by Peter Selinger 2001-2019
</metadata>
<g transform="translate(0.000000,1912.000000) scale(0.100000,-0.100000)"
fill="#000000" stroke="none">
<path d="M4635 17733 c-658 -33 -1129 -161 -1545 -419 -216 -133 -452 -360
-587 -564 -235 -355 -366 -742 -430 -1275 -17 -143 -18 -412 -18 -5915 0
-6041 -2 -5811 41 -6105 31 -218 110 -516 174 -660 10 -22 32 -74 50 -115 35
-82 129 -250 193 -345 128 -193 375 -424 589 -553 329 -198 699 -321 1138
-376 286 -37 355 -37 6110 -34 5287 3 5654 5 5790 21 335 40 686 122 845 197
11 5 45 19 75 30 97 38 266 129 392 212 96 64 155 113 269 227 151 151 219
235 306 381 60 101 133 246 158 315 10 28 22 55 25 60 12 18 78 218 99 300 48
191 82 415 101 654 14 187 14 11375 0 11562 -29 379 -105 739 -201 955 -10 22
-28 65 -39 95 -38 96 -120 246 -203 372 -65 99 -111 152 -241 283 -131 130
-184 176 -283 241 -373 246 -772 377 -1343 440 -145 16 -532 17 -5780 18
-3094 1 -5652 0 -5685 -2z m2835 -3259 c98 -11 286 -54 397 -90 426 -141 764
-404 1026 -799 161 -244 267 -560 297 -890 5 -60 10 -325 10 -587 l0 -478
1034 0 1034 0 5 543 c5 569 8 617 57 822 78 332 247 636 493 891 282 292 613
474 1017 558 183 39 344 50 522 36 347 -26 709 -154 983 -348 171 -121 380
-333 490 -498 162 -244 285 -560 326 -846 15 -107 16 -410 1 -513 -60 -407
-238 -783 -501 -1058 -313 -327 -678 -518 -1131 -593 -88 -15 -194 -18 -652
-21 l-548 -4 0 -1035 c0 -978 1 -1034 18 -1035 9 0 249 -2 532 -3 616 -4 701
-13 975 -102 281 -93 512 -234 739 -454 220 -213 363 -437 469 -735 81 -227
110 -398 110 -645 0 -243 -24 -395 -100 -619 -65 -193 -121 -307 -241 -491
-103 -156 -347 -403 -502 -505 -378 -250 -824 -371 -1243 -337 -245 20 -483
84 -712 191 -509 240 -900 717 -1039 1269 -55 216 -58 267 -63 850 l-5 542
-1034 0 -1034 0 0 -477 c0 -510 -7 -638 -45 -828 -100 -500 -398 -942 -830
-1232 -181 -122 -436 -227 -675 -279 -509 -110 -1038 -5 -1505 301 -97 63
-149 107 -285 244 -173 174 -247 278 -355 496 -146 295 -206 548 -207 870 0
195 11 290 53 463 82 332 247 634 477 873 265 275 570 453 932 543 219 54 275
58 835 61 286 2 526 4 533 4 9 1 12 215 12 1035 l0 1034 -542 5 c-583 4 -635
8 -846 62 -359 90 -644 255 -912 524 -234 236 -398 529 -489 871 -50 192 -68
497 -42 713 80 651 507 1240 1101 1521 328 155 708 219 1060 180z"/>
<path d="M7170 13424 c-231 -35 -374 -105 -528 -256 -91 -88 -141 -156 -186
-245 -152 -304 -114 -673 96 -940 92 -117 218 -217 352 -278 150 -70 136 -68
714 -72 l523 -4 -3 533 -4 533 -27 80 c-76 228 -219 410 -415 528 -155 94
-371 143 -522 121z"/>
<path d="M13111 13419 c-326 -42 -620 -286 -733 -609 -45 -129 -48 -166 -48
-687 l0 -494 528 3 527 3 95 33 c302 105 520 336 601 637 29 106 32 327 5 425
-37 138 -75 222 -139 310 -162 220 -364 345 -612 379 -86 12 -131 12 -224 0z"/>
<path d="M9200 9566 c0 -818 3 -1035 13 -1038 10 -3 1984 -2 2040 1 16 1 17
57 17 1036 l0 1035 -1035 0 -1035 0 0 -1034z"/>
<path d="M7098 7474 c-270 -49 -529 -252 -650 -510 -61 -131 -80 -217 -81
-369 -1 -105 3 -146 21 -215 78 -291 308 -539 592 -635 153 -52 346 -58 500
-15 192 55 391 199 507 370 44 65 97 174 124 255 23 69 23 77 26 603 l4 532
-483 -1 c-365 -1 -502 -4 -560 -15z"/>
<path d="M12330 6997 c0 -307 4 -516 11 -553 21 -118 79 -254 154 -359 47 -67
168 -185 236 -232 298 -204 712 -201 995 8 119 88 250 243 299 354 60 134 78
220 79 370 0 116 -4 155 -23 225 -47 177 -128 309 -270 442 -87 81 -152 123
-268 173 -137 60 -198 65 -734 65 l-479 0 0 -493z"/>
</g>
</svg>
