<?xml version="1.0" standalone="no"?>
<!DOCTYPE svg PUBLIC "-//W3C//DTD SVG 20010904//EN"
 "http://www.w3.org/TR/2001/REC-SVG-20010904/DTD/svg10.dtd">
<svg version="1.0" xmlns="http://www.w3.org/2000/svg"
 width="2048.000000pt" height="1402.000000pt" viewBox="0 0 2048.000000 1402.000000"
 preserveAspectRatio="xMidYMid meet">
<metadata>
Created by potrace 1.16, written by Peter Selinger 2001-2019
</metadata>
<g transform="translate(0.000000,1402.000000) scale(0.100000,-0.100000)"
fill="#000000" stroke="none">
<path d="M3365 12364 c-318 -35 -664 -142 -878 -272 -485 -294 -744 -746 -844
-1467 -16 -110 -17 -434 -21 -3790 -3 -3746 -2 -3822 34 -4075 123 -845 550
-1364 1299 -1582 109 -31 260 -60 425 -80 155 -19 13555 -19 13710 0 437 54
774 176 1035 374 228 174 373 354 501 623 112 236 175 486 216 855 19 170 19
7387 0 7570 -57 548 -208 946 -474 1250 -293 334 -729 537 -1280 595 -131 13
-892 15 -6870 14 -5715 -1 -6742 -3 -6853 -15z m5337 -2627 c34 -20 53 -40 72
-79 l26 -52 0 -490 c0 -457 -2 -494 -19 -531 -22 -47 -64 -89 -104 -104 -45
-17 -649 -15 -690 3 -44 18 -94 77 -107 126 -7 27 -10 201 -8 527 l3 488 23
40 c29 50 82 87 135 95 23 3 173 5 333 5 l291 -1 45 -27z m1523 14 c17 -7 45
-26 63 -44 60 -58 62 -79 62 -591 0 -278 -4 -475 -10 -497 -15 -54 -51 -101
-95 -126 -39 -22 -47 -23 -358 -23 -293 0 -321 1 -355 19 -47 24 -76 56 -99
106 -16 36 -18 82 -21 488 -2 282 1 468 8 504 17 95 75 156 161 171 73 13 610
7 644 -7z m1546 1 c19 -7 50 -27 67 -45 63 -65 62 -58 62 -585 0 -332 -4 -489
-11 -513 -17 -51 -55 -97 -99 -119 -37 -19 -59 -20 -355 -20 -242 0 -323 3
-348 14 -42 17 -93 76 -107 123 -8 26 -10 193 -8 528 3 458 4 492 22 528 23
47 78 85 137 95 73 13 599 7 640 -6z m1566 -10 c45 -23 73 -58 91 -111 9 -24
12 -179 12 -521 l0 -486 -25 -50 c-14 -28 -40 -60 -62 -74 l-36 -25 -321 -3
c-367 -3 -385 0 -436 70 -48 66 -51 107 -48 610 3 458 3 463 25 505 32 59 81
94 145 102 29 3 179 6 333 5 266 -1 282 -2 322 -22z m1523 14 c42 -14 89 -55
113 -99 22 -42 22 -43 22 -543 l0 -501 -30 -49 c-18 -28 -47 -58 -70 -71 -39
-22 -47 -23 -363 -23 -356 0 -353 0 -410 64 -51 58 -54 93 -50 611 3 468 3
470 26 517 27 54 76 89 137 98 61 8 597 5 625 -4z m1561 -4 c15 -6 43 -25 63
-42 66 -58 67 -74 64 -617 -3 -467 -4 -479 -24 -518 -25 -46 -45 -66 -91 -89
-27 -14 -76 -16 -346 -16 -348 0 -360 2 -414 63 -53 60 -54 79 -51 607 l3 485
25 43 c29 52 74 81 138 91 75 11 603 5 633 -7z m-12056 -437 c135 -36 52 43
1665 -1563 317 -315 585 -579 597 -587 35 -25 130 -157 162 -225 75 -161 58
-333 -49 -492 -27 -41 -248 -268 -626 -643 -321 -319 -812 -808 -1091 -1086
-493 -490 -510 -506 -583 -539 -222 -101 -446 -1 -506 225 -11 41 -14 460 -14
2330 0 2433 -2 2324 48 2420 39 75 129 143 219 164 58 14 113 12 178 -4z
m4335 -1947 c35 -18 51 -35 73 -77 l27 -55 0 -492 0 -492 -28 -53 c-21 -42
-38 -59 -72 -76 -43 -22 -52 -23 -364 -23 -304 0 -322 1 -363 21 -30 15 -52
35 -71 67 l-27 47 0 510 0 510 27 46 c19 32 41 53 70 68 41 20 57 21 363 21
313 0 322 -1 365 -22z m1557 -4 c36 -27 70 -77 83 -123 13 -48 13 -944 0 -992
-13 -46 -47 -96 -83 -123 -27 -20 -42 -21 -360 -24 l-332 -3 -45 24 c-35 18
-51 36 -75 82 l-30 59 0 480 0 481 30 60 c24 48 39 64 75 83 44 23 46 23 377
20 318 -3 333 -4 360 -24z m1526 12 c43 -17 93 -76 106 -123 15 -52 15 -964 0
-1016 -13 -47 -63 -106 -106 -123 -25 -11 -106 -14 -351 -14 -310 0 -319 1
-362 23 -35 17 -51 34 -72 76 l-28 55 0 491 0 491 28 55 c21 42 37 59 72 77
43 21 52 22 362 22 245 0 326 -3 351 -14z m1557 -8 c35 -18 51 -35 73 -77 l27
-55 0 -491 0 -491 -27 -55 c-22 -42 -38 -59 -73 -77 -45 -22 -49 -23 -377 -20
-318 3 -333 4 -360 24 -41 31 -70 78 -82 135 -15 68 -15 900 0 968 14 65 45
110 94 138 39 22 47 23 360 23 313 0 322 -1 365 -22z m1543 8 c45 -18 84 -67
102 -128 12 -43 15 -128 15 -503 0 -493 -3 -521 -57 -586 -49 -57 -61 -59
-415 -59 -316 0 -324 1 -362 23 -27 15 -48 38 -65 72 l-26 49 0 501 0 501 26
49 c17 34 38 57 65 72 38 22 46 23 362 23 250 0 330 -3 355 -14z m1544 3 c38
-14 71 -46 96 -94 21 -39 22 -51 25 -510 4 -520 1 -553 -51 -612 -54 -62 -62
-63 -415 -63 -314 0 -320 0 -363 23 -32 17 -50 37 -69 72 l-25 49 0 501 0 501
25 49 c19 35 37 55 69 72 43 23 49 23 362 23 201 0 328 -4 346 -11z m-7742
-2378 c49 -22 91 -69 105 -119 8 -25 10 -197 8 -534 l-3 -496 -30 -43 c-16
-23 -48 -52 -70 -63 -38 -20 -55 -21 -360 -21 l-320 0 -45 25 c-34 19 -52 38
-72 79 l-28 55 0 481 c0 509 1 521 48 584 50 67 70 71 417 71 279 0 314 -2
350 -19z m6222 -13 c26 -17 49 -45 64 -75 l24 -48 3 -464 c2 -315 -1 -482 -8
-518 -13 -59 -52 -112 -104 -141 -29 -16 -206 -17 -2676 -17 l-2645 0 -42 23
c-54 28 -90 82 -103 155 -7 36 -10 221 -8 504 3 406 5 452 21 488 24 53 54 84
102 106 39 18 130 19 2686 16 l2645 -2 41 -27z m1551 -1 c23 -15 52 -46 64
-70 l23 -42 0 -500 0 -501 -25 -49 c-20 -38 -37 -55 -75 -75 l-49 -25 -316 0
-315 0 -45 25 c-29 17 -53 41 -70 70 l-25 45 -3 480 c-2 331 1 494 8 525 15
60 53 108 104 131 38 18 65 19 362 17 l321 -3 41 -28z"/>
</g>
</svg>
