<?xml version="1.0" standalone="no"?>
<!DOCTYPE svg PUBLIC "-//W3C//DTD SVG 20010904//EN"
 "http://www.w3.org/TR/2001/REC-SVG-20010904/DTD/svg10.dtd">
<svg version="1.0" xmlns="http://www.w3.org/2000/svg"
 width="2048.000000pt" height="2048.000000pt" viewBox="0 0 2048.000000 2048.000000"
 preserveAspectRatio="xMidYMid meet">
<metadata>
Created by potrace 1.16, written by Peter Selinger 2001-2019
</metadata>
<g transform="translate(0.000000,2048.000000) scale(0.100000,-0.100000)"
fill="#000000" stroke="none">
<path d="M9860 19093 c-25 -1 -126 -8 -225 -14 -823 -49 -1731 -245 -2520
-544 -472 -178 -1135 -501 -1460 -710 -27 -17 -106 -67 -175 -110 -694 -433
-1449 -1094 -2016 -1765 -273 -323 -614 -790 -764 -1045 -13 -22 -38 -62 -55
-90 -133 -206 -372 -662 -508 -971 -430 -969 -660 -1895 -748 -2999 -14 -184
-20 -868 -9 -1065 83 -1433 470 -2743 1172 -3964 452 -786 1091 -1570 1783
-2187 386 -344 875 -711 1250 -939 259 -157 311 -187 470 -270 66 -35 152 -79
190 -100 210 -111 617 -289 910 -398 850 -314 1690 -488 2625 -542 197 -11
881 -5 1065 9 933 74 1715 246 2540 558 321 121 776 330 1075 493 1269 693
2394 1729 3181 2930 189 288 176 267 287 460 604 1051 983 2209 1117 3420 37
327 46 475 52 845 23 1360 -259 2683 -832 3903 -123 261 -367 716 -446 832 -9
14 -56 88 -105 165 -277 441 -642 907 -1045 1335 -484 514 -1110 1031 -1689
1395 -216 135 -242 151 -350 212 -1229 697 -2539 1079 -3960 1153 -171 9 -684
11 -810 3z m704 -3932 c318 -111 457 -479 298 -786 -39 -75 -58 -96 -483 -511
l-216 -211 261 -6 c143 -3 315 -13 381 -21 1136 -143 2146 -807 2751 -1808
288 -476 463 -994 531 -1565 23 -198 23 -647 -1 -848 -125 -1070 -632 -1995
-1446 -2641 -546 -434 -1225 -720 -1915 -808 -549 -70 -1108 -20 -1655 150
-876 272 -1641 867 -2128 1653 -106 172 -265 494 -332 674 -142 383 -218 756
-242 1187 -10 190 -9 224 5 295 57 276 309 485 587 485 254 0 495 -177 571
-420 16 -50 23 -111 29 -256 20 -434 100 -750 281 -1121 388 -794 1164 -1342
2064 -1459 155 -20 472 -22 625 -5 612 70 1180 340 1599 760 356 357 592 782
710 1281 47 195 62 318 68 550 8 300 -13 493 -82 765 -150 590 -515 1127
-1009 1484 -272 197 -600 349 -926 429 -224 56 -375 73 -687 79 -156 3 -283 2
-283 -2 0 -4 111 -116 247 -248 576 -562 659 -648 693 -716 43 -87 59 -142 66
-231 19 -237 -126 -467 -346 -551 -140 -53 -283 -45 -426 26 l-91 44 -904 906
c-962 964 -950 951 -983 1081 -20 80 -20 223 0 299 36 140 2 103 979 1081 884
885 912 912 987 949 43 21 101 44 130 51 73 19 217 11 292 -15z"/>
</g>
</svg>
