<?xml version="1.0" standalone="no"?>
<!DOCTYPE svg PUBLIC "-//W3C//DTD SVG 20010904//EN"
 "http://www.w3.org/TR/2001/REC-SVG-20010904/DTD/svg10.dtd">
<svg version="1.0" xmlns="http://www.w3.org/2000/svg"
 width="2048.000000pt" height="2048.000000pt" viewBox="0 0 2048.000000 2048.000000"
 preserveAspectRatio="xMidYMid meet">
<metadata>
Created by potrace 1.16, written by Peter Selinger 2001-2019
</metadata>
<g transform="translate(0.000000,2048.000000) scale(0.100000,-0.100000)"
fill="#000000" stroke="none">
<path d="M9765 19089 c-2141 -120 -4108 -973 -5649 -2448 -386 -369 -689 -714
-1031 -1171 -130 -175 -323 -459 -394 -580 -18 -30 -51 -84 -73 -120 -23 -36
-88 -150 -146 -255 -915 -1656 -1269 -3528 -1026 -5440 151 -1194 588 -2428
1227 -3460 485 -784 1114 -1521 1792 -2100 44 -37 94 -80 110 -94 323 -278
901 -679 1305 -906 1680 -943 3570 -1314 5475 -1074 974 122 1899 400 2780
834 406 200 575 297 986 567 970 637 1877 1546 2516 2520 235 360 334 529 513
883 492 970 798 2015 904 3085 35 347 40 476 40 910 0 532 -17 793 -84 1260
-171 1192 -564 2289 -1202 3350 -90 149 -336 508 -471 688 -541 716 -1112
1285 -1832 1824 -1094 820 -2413 1383 -3771 1612 -328 55 -700 97 -1029 115
-188 10 -754 10 -940 0z m830 -3840 c154 -12 388 -43 563 -75 986 -180 1901
-665 2626 -1390 720 -721 1197 -1614 1385 -2598 l27 -141 560 -5 c362 -4 570
-10 589 -17 107 -38 188 -113 225 -209 46 -119 20 -312 -58 -435 -26 -40 -462
-658 -867 -1229 -72 -102 -214 -303 -316 -448 -355 -508 -376 -533 -509 -605
-202 -111 -442 -66 -617 113 -29 30 -159 203 -289 384 -291 407 -600 836 -979
1361 -159 220 -304 430 -322 466 -134 266 -39 538 212 605 38 11 155 14 488
14 413 0 438 1 433 18 -2 9 -18 69 -35 133 -163 622 -541 1247 -1017 1683
-590 541 -1263 848 -2074 948 -140 17 -632 17 -770 0 -671 -83 -1252 -314
-1765 -700 -119 -90 -309 -190 -410 -217 -97 -26 -258 -31 -349 -11 -188 42
-351 168 -433 336 -53 106 -73 190 -73 305 0 215 98 428 276 601 111 108 401
316 624 449 110 65 365 195 515 262 466 209 1086 360 1645 402 148 11 560 11
715 0z m-4575 -2833 c69 -18 174 -80 233 -139 51 -51 128 -154 404 -537 206
-288 411 -571 783 -1085 358 -493 405 -563 437 -640 108 -258 2 -509 -239
-565 -25 -5 -228 -10 -480 -10 -241 0 -438 -3 -438 -6 0 -23 60 -236 102 -359
194 -574 532 -1094 973 -1495 571 -519 1241 -827 2020 -926 174 -23 634 -26
795 -6 676 84 1253 313 1794 714 215 159 399 230 601 230 190 0 335 -61 458
-192 265 -282 249 -688 -39 -1009 -135 -150 -562 -449 -874 -613 -684 -357
-1411 -544 -2200 -565 -451 -11 -873 35 -1325 147 -654 161 -1249 444 -1795
854 -359 269 -744 654 -1012 1011 -472 629 -785 1338 -922 2089 l-22 121 -560
5 c-555 5 -559 5 -616 28 -76 31 -150 99 -184 170 -36 75 -44 205 -19 301 27
104 66 170 295 491 201 284 613 863 912 1285 70 99 178 252 240 339 147 207
210 271 319 325 123 60 228 71 359 37z"/>
</g>
</svg>
