<?xml version="1.0" standalone="no"?>
<!DOCTYPE svg PUBLIC "-//W3C//DTD SVG 20010904//EN"
 "http://www.w3.org/TR/2001/REC-SVG-20010904/DTD/svg10.dtd">
<svg version="1.0" xmlns="http://www.w3.org/2000/svg"
 width="2048.000000pt" height="2048.000000pt" viewBox="0 0 2048.000000 2048.000000"
 preserveAspectRatio="xMidYMid meet">
<metadata>
Created by potrace 1.16, written by Peter Selinger 2001-2019
</metadata>
<g transform="translate(0.000000,2048.000000) scale(0.100000,-0.100000)"
fill="#000000" stroke="none">
<path d="M9860 19093 c-25 -1 -126 -8 -225 -14 -347 -20 -762 -75 -1137 -149
-1270 -252 -2493 -794 -3520 -1561 -632 -473 -1159 -979 -1659 -1594 -186
-228 -509 -682 -619 -870 -13 -22 -38 -62 -55 -90 -190 -295 -483 -884 -652
-1309 -550 -1388 -740 -2894 -552 -4391 189 -1510 779 -2966 1693 -4175 530
-702 1099 -1271 1794 -1797 189 -143 499 -357 657 -453 167 -101 214 -129 280
-167 64 -37 112 -62 360 -193 44 -23 151 -75 238 -116 1047 -493 2150 -770
3317 -833 198 -11 709 -11 910 0 1050 55 2080 294 3030 701 175 75 581 272
740 358 1269 692 2394 1729 3181 2930 189 288 176 267 287 460 663 1152 1049
2419 1152 3780 30 391 23 1006 -16 1430 -207 2276 -1270 4357 -2999 5870 -340
298 -738 597 -1085 815 -216 135 -242 151 -350 212 -1229 697 -2539 1079
-3960 1153 -171 9 -684 11 -810 3z m-3345 -6857 c44 -15 107 -45 140 -66 71
-46 246 -224 602 -612 76 -83 163 -175 959 -1018 232 -245 470 -497 529 -560
60 -63 193 -203 295 -310 189 -197 516 -545 890 -945 113 -121 230 -246 260
-278 l55 -58 100 109 c184 199 735 784 1340 1421 121 128 1012 1071 1309 1386
89 94 249 265 356 380 409 440 423 453 529 509 94 49 178 69 296 69 123 1 198
-18 324 -79 77 -38 110 -62 176 -128 50 -50 93 -104 113 -143 37 -71 71 -193
77 -275 5 -79 -29 -236 -70 -324 -60 -130 -62 -133 -496 -590 -266 -281 -1396
-1482 -1829 -1944 -314 -336 -407 -434 -555 -590 -55 -58 -215 -226 -355 -375
-442 -468 -472 -498 -549 -568 -83 -75 -223 -173 -310 -217 -352 -176 -737
-138 -1079 108 -122 87 -182 144 -420 397 -124 132 -232 247 -241 255 -9 8
-92 96 -185 195 -93 99 -204 216 -246 260 -111 116 -219 230 -461 489 -195
210 -1199 1277 -1763 1876 -127 135 -289 305 -359 378 -150 157 -196 217 -243
315 -190 403 32 853 471 953 94 21 243 13 340 -20z"/>
</g>
</svg>
