<?xml version="1.0" standalone="no"?>
<!DOCTYPE svg PUBLIC "-//W3C//DTD SVG 20010904//EN"
 "http://www.w3.org/TR/2001/REC-SVG-20010904/DTD/svg10.dtd">
<svg version="1.0" xmlns="http://www.w3.org/2000/svg"
 width="2048.000000pt" height="2048.000000pt" viewBox="0 0 2048.000000 2048.000000"
 preserveAspectRatio="xMidYMid meet">
<metadata>
Created by potrace 1.16, written by Peter Selinger 2001-2019
</metadata>
<g transform="translate(0.000000,2048.000000) scale(0.100000,-0.100000)"
fill="#000000" stroke="none">
<path d="M9770 19089 c-1638 -95 -3124 -591 -4475 -1492 -427 -285 -926 -698
-1320 -1092 -667 -666 -1202 -1396 -1621 -2210 -830 -1614 -1141 -3396 -908
-5212 157 -1233 588 -2446 1240 -3494 511 -821 1137 -1543 1874 -2160 297
-248 637 -498 920 -674 69 -43 154 -97 190 -120 285 -183 864 -470 1290 -640
1568 -627 3332 -787 5012 -455 1261 250 2476 786 3498 1543 748 555 1362 1169
1917 1917 696 938 1214 2063 1483 3217 210 906 278 1880 195 2813 -145 1622
-731 3165 -1693 4460 -278 374 -548 687 -872 1010 -1094 1094 -2410 1865
-3892 2280 -542 151 -1118 250 -1763 301 -179 14 -886 19 -1075 8z m-380
-1517 c0 -5 -26 -14 -57 -21 -32 -7 -138 -39 -235 -72 -498 -166 -930 -413
-1315 -752 -683 -601 -1111 -1406 -1229 -2307 -22 -169 -30 -583 -14 -736 62
-613 300 -1158 744 -1704 120 -147 378 -406 541 -542 440 -367 979 -679 1600
-928 283 -113 434 -164 943 -315 1500 -445 2620 -1234 3202 -2258 201 -352
328 -750 371 -1157 15 -144 6 -573 -15 -730 -97 -708 -357 -1319 -791 -1860
-388 -484 -935 -890 -1495 -1110 -58 -23 -118 -47 -135 -55 -50 -22 -215 -72
-344 -105 -190 -48 -402 -63 -876 -64 -353 -1 -606 6 -700 19 -16 2 -79 9
-140 15 -598 59 -1267 220 -1862 449 -1075 412 -2077 1099 -2833 1942 -736
819 -1289 1807 -1595 2844 -153 518 -242 994 -287 1535 -14 172 -18 848 -5
1055 23 394 90 844 178 1205 197 802 451 1429 852 2105 830 1396 2092 2470
3617 3078 576 230 1161 378 1845 470 17 2 31 5 33 6 1 0 2 -3 2 -7z"/>
</g>
</svg>
