<?xml version="1.0" standalone="no"?>
<!DOCTYPE svg PUBLIC "-//W3C//DTD SVG 20010904//EN"
 "http://www.w3.org/TR/2001/REC-SVG-20010904/DTD/svg10.dtd">
<svg version="1.0" xmlns="http://www.w3.org/2000/svg"
 width="2048.000000pt" height="2048.000000pt" viewBox="0 0 2048.000000 2048.000000"
 preserveAspectRatio="xMidYMid meet">
<metadata>
Created by potrace 1.16, written by Peter Selinger 2001-2019
</metadata>
<g transform="translate(0.000000,2048.000000) scale(0.100000,-0.100000)"
fill="#000000" stroke="none">
<path d="M9775 19089 c-1165 -64 -2251 -336 -3305 -829 -265 -123 -616 -313
-833 -448 -477 -298 -894 -609 -1302 -971 -162 -143 -565 -546 -707 -706 -484
-547 -919 -1167 -1213 -1730 -37 -71 -83 -158 -101 -193 -18 -34 -65 -130
-104 -212 -469 -996 -740 -2045 -822 -3180 -28 -389 -15 -1058 28 -1485 162
-1597 750 -3107 1705 -4380 274 -366 480 -605 798 -928 820 -832 1749 -1474
2781 -1922 983 -426 1994 -664 3085 -725 228 -12 894 -4 1115 14 738 61 1356
181 2030 393 631 198 1381 541 1930 883 140 87 510 333 545 362 11 9 90 70
175 134 329 250 620 503 920 804 941 940 1638 2038 2085 3280 663 1842 686
3917 65 5781 -181 542 -437 1116 -714 1597 -295 514 -699 1071 -1096 1512
-1298 1443 -2981 2410 -4844 2784 -436 88 -845 140 -1306 165 -182 10 -730 10
-915 0z m-1840 -4649 c230 -22 422 -89 600 -212 44 -30 190 -141 324 -246 262
-205 345 -255 486 -295 l80 -22 2350 -6 c1293 -3 2366 -9 2385 -13 19 -4 73
-14 120 -22 322 -56 605 -223 759 -447 51 -74 127 -242 155 -342 65 -229 60 3
64 -2850 2 -1849 0 -2621 -8 -2700 -21 -212 -62 -360 -145 -530 -126 -259
-342 -438 -631 -523 -207 -61 82 -57 -4189 -57 l-3920 0 -120 22 c-170 31
-285 66 -400 123 -325 159 -512 424 -592 843 -17 87 -18 261 -18 3167 l0 3075
23 113 c69 343 209 580 428 729 155 105 346 171 559 192 121 12 1561 13 1690
1z"/>
<path d="M6440 12593 c-121 -21 -218 -70 -287 -145 -88 -97 -113 -182 -113
-390 l0 -148 4201 0 4201 0 -4 173 c-6 191 -16 233 -75 324 -60 91 -155 150
-286 177 -69 14 -446 16 -3844 15 -2072 -1 -3779 -4 -3793 -6z"/>
</g>
</svg>
