<?xml version="1.0" standalone="no"?>
<!DOCTYPE svg PUBLIC "-//W3C//DTD SVG 20010904//EN"
 "http://www.w3.org/TR/2001/REC-SVG-20010904/DTD/svg10.dtd">
<svg version="1.0" xmlns="http://www.w3.org/2000/svg"
 width="2048.000000pt" height="2048.000000pt" viewBox="0 0 2048.000000 2048.000000"
 preserveAspectRatio="xMidYMid meet">
<metadata>
Created by potrace 1.16, written by Peter Selinger 2001-2019
</metadata>
<g transform="translate(0.000000,2048.000000) scale(0.100000,-0.100000)"
fill="#000000" stroke="none">
<path d="M9860 19094 c-30 -2 -129 -8 -220 -14 -1785 -113 -3524 -789 -4925
-1914 -764 -613 -1462 -1387 -1950 -2161 -48 -77 -103 -162 -120 -190 -102
-159 -222 -380 -370 -680 -773 -1567 -1060 -3337 -824 -5095 156 -1166 561
-2325 1165 -3331 91 -151 366 -571 412 -629 11 -14 71 -92 133 -175 766 -1017
1804 -1907 2899 -2487 216 -115 263 -138 409 -207 938 -442 1941 -713 2981
-806 549 -49 1238 -41 1780 20 1233 141 2397 526 3460 1147 1170 682 2214
1672 2953 2800 73 112 142 217 153 235 301 500 494 889 699 1408 908 2303 789
4957 -322 7170 -138 274 -254 485 -362 658 -628 1006 -1366 1814 -2291 2508
-1158 869 -2532 1440 -3975 1653 -441 65 -730 86 -1225 90 -223 2 -430 2 -460
0z m495 -4499 c117 -25 205 -74 293 -162 46 -46 91 -103 110 -140 19 -36 343
-993 758 -2240 400 -1198 730 -2184 734 -2192 5 -10 29 -16 71 -18 88 -5 210
-37 298 -78 221 -105 393 -305 470 -545 11 -36 59 -245 105 -465 47 -220 215
-1010 375 -1755 159 -745 351 -1643 426 -1995 150 -699 156 -747 121 -884 -38
-150 -144 -280 -279 -345 -233 -112 -489 -76 -658 93 -76 76 -119 157 -148
276 -11 44 -185 863 -387 1820 -201 957 -414 1967 -473 2245 l-107 505 -1820
3 -1820 2 -32 -157 c-19 -87 -96 -453 -172 -813 -77 -360 -211 -999 -300
-1420 -499 -2369 -468 -2228 -510 -2317 -191 -395 -790 -403 -995 -12 -45 86
-70 206 -62 304 5 64 118 608 617 2965 99 470 230 1090 291 1378 130 617 144
663 252 819 148 216 396 359 650 376 32 3 60 7 63 10 5 5 39 104 909 2717 337
1012 561 1672 584 1715 41 80 151 201 215 239 132 77 276 102 421 71z"/>
</g>
</svg>
