<?xml version="1.0" standalone="no"?>
<!DOCTYPE svg PUBLIC "-//W3C//DTD SVG 20010904//EN"
 "http://www.w3.org/TR/2001/REC-SVG-20010904/DTD/svg10.dtd">
<svg version="1.0" xmlns="http://www.w3.org/2000/svg"
 width="2048.000000pt" height="1912.000000pt" viewBox="0 0 2048.000000 1912.000000"
 preserveAspectRatio="xMidYMid meet">
<metadata>
Created by potrace 1.16, written by Peter Selinger 2001-2019
</metadata>
<g transform="translate(0.000000,1912.000000) scale(0.100000,-0.100000)"
fill="#000000" stroke="none">
<path d="M4562 17730 c-602 -35 -1070 -167 -1472 -416 -129 -79 -228 -160
-360 -293 -163 -164 -263 -306 -371 -521 -154 -310 -234 -598 -286 -1025 -17
-143 -18 -412 -18 -5915 0 -6041 -2 -5811 41 -6105 31 -218 110 -516 174 -660
10 -22 32 -74 50 -115 76 -175 205 -378 327 -512 203 -224 365 -349 622 -478
364 -184 746 -278 1261 -310 125 -8 1775 -10 5830 -8 l5655 4 165 21 c330 44
652 121 805 193 11 5 45 19 75 30 97 38 266 129 392 212 96 64 155 113 269
227 151 151 219 235 306 381 60 101 133 246 158 315 10 28 22 55 25 60 12 18
78 218 99 300 50 201 84 421 101 670 8 116 10 1728 8 5870 -4 5307 -5 5719
-21 5840 -44 338 -111 620 -188 791 -10 22 -28 65 -39 95 -38 96 -120 246
-203 372 -65 99 -111 152 -241 283 -131 130 -184 176 -283 241 -373 246 -772
377 -1343 440 -145 16 -534 17 -5780 19 -3094 0 -5685 -2 -5758 -6z m5190
-3571 c193 -40 372 -215 423 -414 33 -129 15 -250 -136 -955 -67 -315 -206
-1015 -202 -1022 2 -5 382 -8 844 -8 l839 0 10 23 c5 12 18 67 29 122 12 55
32 150 46 210 13 61 86 400 160 755 75 355 147 695 160 755 64 288 236 478
480 530 105 22 264 19 355 -6 107 -29 165 -64 251 -149 80 -79 137 -178 158
-270 16 -71 12 -226 -8 -320 -79 -363 -133 -620 -221 -1040 -56 -267 -108
-511 -115 -543 -10 -44 -11 -59 -2 -62 7 -3 221 -6 477 -7 l465 -3 75 -36
c145 -69 233 -166 282 -306 20 -58 23 -87 23 -198 0 -116 -3 -138 -28 -210
-53 -151 -152 -265 -292 -334 -129 -65 -127 -65 -717 -69 l-538 -3 -5 -22 c-3
-12 -39 -186 -81 -387 -42 -201 -87 -412 -99 -470 -75 -344 -99 -460 -145
-685 -28 -137 -54 -260 -57 -272 l-5 -23 433 0 c352 0 446 -3 498 -15 333 -79
490 -470 325 -813 -72 -149 -209 -259 -380 -302 -72 -19 -112 -20 -594 -20
-402 0 -520 -3 -528 -12 -5 -7 -53 -229 -107 -493 -53 -264 -127 -628 -165
-810 -170 -811 -167 -801 -236 -912 -76 -123 -187 -202 -354 -254 -64 -20 -96
-24 -220 -24 -134 0 -150 3 -214 28 -86 34 -195 106 -242 160 -49 57 -101 167
-120 257 -19 87 -14 177 15 320 88 424 125 597 156 740 20 91 72 341 115 555
44 215 82 400 85 413 l5 22 -850 0 c-467 0 -850 -3 -850 -7 0 -5 -11 -60 -25
-123 -14 -63 -36 -167 -50 -230 -14 -63 -34 -155 -45 -205 -33 -153 -138 -655
-205 -980 -111 -539 -122 -578 -200 -695 -107 -161 -269 -246 -492 -257 -134
-7 -217 9 -332 64 -139 66 -255 210 -295 366 -30 115 -30 162 3 317 17 80 60
285 96 455 213 1014 265 1265 265 1286 0 19 -11 19 -458 19 -496 0 -517 2
-624 56 -67 34 -168 135 -200 199 -53 106 -63 151 -62 290 0 117 3 137 28 205
75 197 221 329 422 380 72 19 112 20 610 20 l533 0 10 53 c33 163 146 706 176
847 35 163 195 948 195 956 0 2 -190 4 -422 4 -473 0 -511 4 -634 65 -207 101
-312 351 -258 613 38 185 158 341 324 419 47 23 109 46 138 52 35 7 230 11
576 11 407 0 526 3 533 13 6 6 56 244 112 527 166 833 270 1328 301 1430 70
228 228 376 453 425 76 17 257 19 329 4z"/>
<path d="M9536 10692 c-2 -4 -14 -55 -25 -112 -26 -136 -216 -1063 -246 -1200
-13 -58 -50 -238 -84 -400 -33 -162 -63 -305 -66 -317 l-5 -23 922 0 923 0 69
338 c38 185 91 438 118 562 85 393 94 439 162 760 37 173 70 334 73 358 l6 42
-921 0 c-506 0 -923 -3 -926 -8z"/>
</g>
</svg>
