<?xml version="1.0" standalone="no"?>
<!DOCTYPE svg PUBLIC "-//W3C//DTD SVG 20010904//EN"
 "http://www.w3.org/TR/2001/REC-SVG-20010904/DTD/svg10.dtd">
<svg version="1.0" xmlns="http://www.w3.org/2000/svg"
 width="2048.000000pt" height="2048.000000pt" viewBox="0 0 2048.000000 2048.000000"
 preserveAspectRatio="xMidYMid meet">
<metadata>
Created by potrace 1.16, written by Peter Selinger 2001-2019
</metadata>
<g transform="translate(0.000000,2048.000000) scale(0.100000,-0.100000)"
fill="#000000" stroke="none">
<path d="M9775 19089 c-1408 -74 -2782 -483 -3990 -1187 -509 -297 -1064 -706
-1510 -1113 -160 -146 -488 -474 -627 -629 -1754 -1943 -2554 -4553 -2192
-7155 265 -1906 1140 -3653 2518 -5030 565 -565 1163 -1026 1846 -1425 170
-99 610 -323 805 -410 961 -428 1932 -670 3015 -751 193 -14 835 -20 1035 -9
1518 83 2878 503 4189 1295 237 144 673 452 916 649 449 362 903 810 1271
1252 317 380 632 830 871 1244 112 193 256 471 348 669 489 1057 751 2110 820
3291 11 196 5 880 -9 1065 -83 1053 -302 1961 -694 2880 -88 205 -304 645
-413 840 -296 530 -702 1094 -1148 1595 -162 182 -517 535 -701 697 -412 362
-834 675 -1296 962 -258 160 -754 417 -1062 550 -1136 492 -2347 738 -3577
729 -146 -1 -332 -5 -415 -9z m-3329 -4900 c248 -34 424 -189 485 -427 19 -74
19 -147 19 -3522 0 -3375 0 -3448 -19 -3522 -51 -197 -176 -333 -369 -401 -78
-28 -99 -31 -207 -31 -97 0 -134 4 -195 23 -207 63 -333 189 -399 396 -14 45
-16 388 -19 3500 -3 3762 -6 3526 52 3656 75 169 232 287 431 324 90 17 126
17 221 4z m5068 -294 c177 -37 339 -166 407 -323 71 -165 57 -409 -32 -558
-44 -72 -596 -613 -914 -894 -126 -112 -248 -220 -270 -241 -22 -20 -108 -97
-190 -171 -83 -73 -310 -275 -505 -448 -195 -173 -408 -362 -473 -419 -64 -57
-116 -106 -114 -107 2 -2 230 10 508 26 1346 79 981 71 3274 68 2296 -4 2088
3 2242 -73 137 -68 247 -206 288 -365 23 -85 23 -243 1 -330 -24 -96 -70 -183
-134 -252 -68 -74 -139 -121 -235 -156 l-72 -27 -2125 -3 -2125 -2 -485 30
c-267 17 -622 39 -790 50 -405 26 -369 29 -312 -24 26 -24 211 -189 412 -367
473 -419 723 -641 785 -698 28 -25 174 -155 325 -290 288 -256 507 -455 750
-682 167 -157 201 -208 225 -345 47 -262 -37 -491 -228 -622 -129 -89 -319
-124 -477 -86 -84 19 -212 82 -275 134 -27 23 -129 119 -225 213 -244 239
-520 509 -975 952 -214 208 -487 474 -605 590 -204 199 -324 317 -795 775
-636 619 -663 648 -715 785 -28 75 -38 228 -20 306 28 119 105 250 212 360 35
36 295 292 578 569 537 526 809 792 1245 1220 143 141 373 366 510 501 138
134 374 366 525 515 151 149 296 285 322 302 133 91 312 123 482 87z"/>
</g>
</svg>
