<?xml version="1.0" standalone="no"?>
<!DOCTYPE svg PUBLIC "-//W3C//DTD SVG 20010904//EN"
 "http://www.w3.org/TR/2001/REC-SVG-20010904/DTD/svg10.dtd">
<svg version="1.0" xmlns="http://www.w3.org/2000/svg"
 width="2048.000000pt" height="2048.000000pt" viewBox="0 0 2048.000000 2048.000000"
 preserveAspectRatio="xMidYMid meet">
<metadata>
Created by potrace 1.16, written by Peter Selinger 2001-2019
</metadata>
<g transform="translate(0.000000,2048.000000) scale(0.100000,-0.100000)"
fill="#000000" stroke="none">
<path d="M9780 19089 c-1419 -77 -2760 -474 -3970 -1176 -1029 -597 -1928
-1395 -2661 -2363 -156 -206 -261 -355 -375 -536 -49 -77 -95 -149 -101 -160
-159 -250 -403 -711 -541 -1025 -426 -962 -666 -1936 -744 -3009 -28 -389 -15
-1058 28 -1485 94 -927 329 -1817 706 -2675 140 -317 388 -792 544 -1039 420
-666 822 -1170 1351 -1692 240 -237 362 -347 587 -533 647 -534 1351 -968
2096 -1291 982 -426 1995 -664 3085 -725 229 -12 883 -4 1115 15 343 27 640
65 940 120 1772 326 3376 1171 4660 2455 940 939 1639 2039 2085 3280 427
1187 593 2491 480 3775 -152 1731 -811 3373 -1899 4730 -1542 1925 -3765 3115
-6196 3315 -338 28 -873 37 -1190 19z m4686 -4203 c76 -20 135 -59 252 -165
69 -63 118 -117 142 -158 89 -148 75 -333 -35 -488 -24 -33 -112 -136 -197
-229 -84 -93 -171 -189 -193 -214 l-41 -45 -379 387 c-209 213 -381 390 -383
395 -1 4 93 102 210 217 224 220 290 268 403 299 65 18 157 18 221 1z m-2496
-894 c0 -4 -207 -218 -461 -475 l-460 -467 -1807 -2 -1807 -3 -77 -22 c-181
-51 -280 -106 -388 -213 -122 -121 -190 -252 -230 -449 -20 -100 -20 -117 -17
-2513 l2 -2413 23 -85 c29 -108 96 -248 157 -328 53 -70 150 -153 235 -200 75
-42 218 -88 315 -102 58 -8 767 -10 2535 -8 l2455 3 70 23 c129 44 204 89 295
181 116 117 177 235 226 441 17 70 19 186 24 1851 l5 1777 54 58 c74 80 861
874 866 874 11 0 5 -4399 -6 -4531 -29 -366 -131 -686 -297 -935 -265 -394
-656 -620 -1168 -674 -68 -7 -905 -10 -2639 -7 l-2540 3 -115 22 c-258 50
-437 112 -610 212 -477 276 -754 723 -819 1322 -8 66 -11 895 -11 2557 0 2650
-2 2545 51 2786 45 208 135 423 252 597 288 431 776 684 1392 721 118 7 4495
6 4495 -1z m1715 -480 l320 -314 -2062 -2056 -2062 -2057 -98 -39 c-54 -21
-161 -66 -238 -99 -337 -144 -573 -238 -612 -244 -127 -18 -261 115 -238 236
6 32 115 271 273 601 33 69 80 168 104 220 l45 95 2053 2053 2053 2053 71 -68
c39 -37 215 -209 391 -381z"/>
</g>
</svg>
