<?xml version="1.0" standalone="no"?>
<!DOCTYPE svg PUBLIC "-//W3C//DTD SVG 20010904//EN"
 "http://www.w3.org/TR/2001/REC-SVG-20010904/DTD/svg10.dtd">
<svg version="1.0" xmlns="http://www.w3.org/2000/svg"
 width="2048.000000pt" height="1912.000000pt" viewBox="0 0 2048.000000 1912.000000"
 preserveAspectRatio="xMidYMid meet">
<metadata>
Created by potrace 1.16, written by Peter Selinger 2001-2019
</metadata>
<g transform="translate(0.000000,1912.000000) scale(0.100000,-0.100000)"
fill="#000000" stroke="none">
<path d="M4556 17729 c-853 -51 -1466 -303 -1896 -779 -177 -195 -311 -432
-435 -765 -61 -164 -118 -433 -152 -710 -17 -143 -18 -412 -18 -5915 0 -6118
-2 -5816 45 -6133 32 -211 113 -511 170 -632 5 -11 27 -60 48 -110 66 -152
189 -355 280 -463 73 -88 262 -272 336 -328 143 -108 344 -218 560 -305 292
-117 615 -182 1036 -209 126 -8 1767 -10 5830 -8 l5655 4 165 21 c330 44 652
121 805 193 11 5 45 19 75 30 97 38 266 129 392 212 96 64 155 113 269 227
151 151 219 235 306 381 60 101 133 246 158 315 10 28 22 55 25 60 12 18 78
218 99 300 51 205 83 413 101 670 8 106 10 1843 8 5865 l-4 5715 -21 165 c-41
309 -108 586 -184 756 -10 22 -28 65 -39 95 -38 96 -120 246 -203 372 -65 99
-111 152 -241 283 -131 130 -184 176 -283 241 -373 246 -762 374 -1338 440
-140 16 -515 17 -5785 19 -3099 1 -5693 -2 -5764 -7z m8697 -3511 c178 -49
341 -145 523 -309 38 -34 275 -265 527 -513 489 -481 575 -578 654 -738 50
-102 75 -183 98 -313 16 -90 18 -191 19 -1035 1 -514 -2 -994 -6 -1065 -17
-306 -127 -542 -373 -805 -106 -113 -170 -177 -905 -904 -311 -308 -750 -742
-975 -965 -226 -223 -664 -658 -975 -965 -311 -307 -738 -731 -950 -940 -457
-453 -903 -891 -981 -963 -166 -153 -397 -272 -589 -303 -283 -44 -578 56
-851 292 -89 76 -2871 2870 -2962 2974 -62 72 -169 228 -204 299 -36 72 -68
167 -84 253 -17 90 -6 288 21 382 57 199 190 396 437 646 570 578 1703 1726
2088 2114 434 439 627 634 1685 1705 865 876 887 896 1057 1008 126 84 269
138 427 163 62 9 326 12 1151 11 l1070 -2 98 -27z"/>
<path d="M12205 12160 c-217 -44 -421 -229 -486 -441 -74 -241 -19 -483 149
-656 223 -231 547 -269 808 -95 145 97 245 231 288 387 30 107 24 262 -15 377
-65 195 -265 374 -471 423 -67 16 -207 18 -273 5z"/>
</g>
</svg>
