<?xml version="1.0" standalone="no"?>
<!DOCTYPE svg PUBLIC "-//W3C//DTD SVG 20010904//EN"
 "http://www.w3.org/TR/2001/REC-SVG-20010904/DTD/svg10.dtd">
<svg version="1.0" xmlns="http://www.w3.org/2000/svg"
 width="2048.000000pt" height="2048.000000pt" viewBox="0 0 2048.000000 2048.000000"
 preserveAspectRatio="xMidYMid meet">
<metadata>
Created by potrace 1.16, written by Peter Selinger 2001-2019
</metadata>
<g transform="translate(0.000000,2048.000000) scale(0.100000,-0.100000)"
fill="#000000" stroke="none">
<path d="M9780 19090 c-1271 -74 -2419 -378 -3515 -930 -489 -247 -897 -499
-1310 -810 -390 -294 -611 -484 -948 -819 -462 -457 -844 -921 -1180 -1433
-147 -224 -143 -218 -255 -408 -916 -1557 -1329 -3410 -1167 -5240 157 -1767
835 -3430 1959 -4804 279 -341 680 -760 982 -1027 928 -820 1952 -1415 3089
-1794 1257 -420 2584 -550 3915 -384 898 111 1788 367 2620 754 267 124 610
306 805 427 33 20 91 56 128 78 302 184 732 497 1052 769 347 294 750 697
1046 1046 650 766 1157 1621 1518 2560 592 1543 736 3254 410 4900 -253 1277
-795 2496 -1569 3530 -287 383 -535 671 -860 995 -1094 1094 -2408 1864 -3892
2280 -542 151 -1118 250 -1763 301 -174 13 -884 20 -1065 9z m4405 -4900 c103
-15 186 -46 268 -99 87 -57 137 -113 183 -203 69 -136 64 165 64 -3648 0
-3824 5 -3510 -66 -3653 -77 -152 -233 -260 -424 -293 -328 -57 -611 112 -697
416 -17 62 -18 199 -18 3530 0 3278 1 3468 18 3529 59 215 234 377 449 416 91
16 134 17 223 5z m-4961 -300 c133 -34 184 -68 376 -255 266 -259 1625 -1590
1975 -1935 171 -169 476 -468 678 -666 203 -197 389 -385 413 -417 173 -231
189 -510 40 -727 -28 -40 -166 -182 -358 -369 -172 -168 -405 -395 -518 -505
-331 -323 -799 -780 -1350 -1317 -1104 -1075 -1032 -1010 -1167 -1071 -177
-80 -361 -76 -538 11 -242 119 -358 400 -285 687 38 148 26 134 654 708 72 66
147 133 166 150 282 249 396 350 450 401 36 33 140 125 230 204 91 80 176 156
190 169 14 13 211 189 439 391 286 253 407 367 395 369 -11 1 -376 -20 -813
-48 l-794 -50 -2096 0 c-2321 0 -2167 -4 -2310 66 -147 72 -261 222 -296 389
-71 338 102 639 420 731 56 17 202 18 2150 20 l2090 2 815 -49 c448 -26 823
-48 832 -49 21 0 4 16 -482 445 -217 192 -397 352 -400 356 -3 3 -91 82 -195
175 -105 93 -312 277 -460 409 -233 206 -454 417 -826 786 -97 97 -140 171
-164 287 -46 213 7 405 149 546 150 150 378 210 590 156z"/>
</g>
</svg>
