<?xml version="1.0" standalone="no"?>
<!DOCTYPE svg PUBLIC "-//W3C//DTD SVG 20010904//EN"
 "http://www.w3.org/TR/2001/REC-SVG-20010904/DTD/svg10.dtd">
<svg version="1.0" xmlns="http://www.w3.org/2000/svg"
 width="2048.000000pt" height="2048.000000pt" viewBox="0 0 2048.000000 2048.000000"
 preserveAspectRatio="xMidYMid meet">
<metadata>
Created by potrace 1.16, written by Peter Selinger 2001-2019
</metadata>
<g transform="translate(0.000000,2048.000000) scale(0.100000,-0.100000)"
fill="#000000" stroke="none">
<path d="M9765 19089 c-1506 -83 -2933 -533 -4200 -1322 -152 -95 -441 -287
-481 -321 -11 -8 -82 -62 -159 -120 -575 -430 -1153 -990 -1611 -1561 -484
-603 -878 -1250 -1189 -1950 -909 -2047 -1001 -4399 -254 -6523 190 -542 503
-1204 777 -1643 415 -668 836 -1196 1373 -1725 893 -880 1903 -1532 3064
-1977 1317 -504 2759 -682 4190 -516 1217 140 2412 543 3475 1172 131 78 613
393 641 419 8 7 93 72 189 144 325 244 614 497 925 809 876 877 1530 1872
1980 3010 798 2018 821 4299 65 6330 -210 564 -491 1134 -805 1630 -690 1092
-1651 2063 -2725 2752 -1206 774 -2563 1240 -3980 1367 -387 35 -915 45 -1275
25z m810 -3754 c297 -51 588 -177 833 -360 239 -179 459 -444 583 -703 87
-182 153 -422 165 -601 3 -47 7 -95 9 -106 2 -20 12 -20 481 -26 513 -7 596
-13 802 -65 361 -90 624 -291 777 -593 44 -88 101 -276 127 -416 l23 -130 0
-2630 c0 -2847 3 -2710 -55 -2951 -75 -316 -229 -549 -465 -708 -146 -98 -287
-154 -485 -192 -91 -18 -221 -19 -3035 -21 -1753 -1 -2974 2 -3025 8 -233 25
-446 87 -603 173 -125 69 -190 120 -285 222 -132 140 -215 302 -272 529 -57
225 -55 103 -55 2935 0 2451 1 2622 18 2726 52 332 155 557 337 741 166 167
372 269 660 327 179 36 352 46 801 46 l396 0 2 68 c6 206 78 477 183 687 310
617 936 1027 1623 1064 150 8 330 -2 460 -24z"/>
<path d="M10035 14525 c-155 -23 -325 -89 -450 -176 -147 -101 -273 -265 -334
-435 -36 -98 -71 -262 -71 -328 l0 -46 1055 0 1055 0 0 43 c0 72 -30 215 -65
315 -81 226 -247 417 -450 519 -66 33 -205 81 -285 99 -100 21 -339 26 -455 9z"/>
</g>
</svg>
