<?xml version="1.0" standalone="no"?>
<!DOCTYPE svg PUBLIC "-//W3C//DTD SVG 20010904//EN"
 "http://www.w3.org/TR/2001/REC-SVG-20010904/DTD/svg10.dtd">
<svg version="1.0" xmlns="http://www.w3.org/2000/svg"
 width="2048.000000pt" height="2048.000000pt" viewBox="0 0 2048.000000 2048.000000"
 preserveAspectRatio="xMidYMid meet">
<metadata>
Created by potrace 1.16, written by Peter Selinger 2001-2019
</metadata>
<g transform="translate(0.000000,2048.000000) scale(0.100000,-0.100000)"
fill="#000000" stroke="none">
<path d="M9860 19093 c-25 -1 -126 -8 -225 -14 -1650 -99 -3318 -711 -4655
-1709 -630 -471 -1163 -982 -1661 -1595 -193 -237 -516 -692 -628 -885 -18
-30 -51 -84 -73 -120 -188 -299 -490 -914 -645 -1315 -329 -850 -508 -1654
-585 -2625 -16 -207 -16 -967 0 -1180 71 -921 234 -1684 534 -2495 112 -300
283 -692 406 -925 124 -236 150 -284 210 -390 508 -892 1231 -1747 2062 -2439
268 -223 749 -570 980 -707 19 -12 72 -44 117 -72 301 -186 812 -441 1198
-599 1334 -544 2796 -754 4240 -607 1055 107 2054 393 3000 859 406 200 582
302 988 568 976 643 1874 1544 2518 2527 189 288 176 267 287 460 669 1163
1055 2437 1154 3810 17 236 17 977 0 1195 -63 812 -198 1496 -437 2210 -335
1004 -843 1931 -1503 2745 -987 1216 -2232 2134 -3657 2695 -889 351 -1811
551 -2780 604 -140 8 -746 11 -845 4z m322 -3757 c70 -15 171 -61 225 -102 18
-13 449 -441 958 -950 996 -996 963 -960 1000 -1101 19 -73 19 -220 0 -302
-33 -140 -6 -110 -1009 -1115 -614 -615 -948 -943 -980 -961 -262 -152 -586
-85 -756 157 -75 106 -95 177 -95 328 0 138 14 191 77 299 35 59 215 244 681
698 214 208 264 262 250 267 -33 13 -523 -1 -648 -18 -889 -122 -1628 -623
-2059 -1394 -301 -538 -412 -1199 -306 -1822 149 -874 692 -1610 1473 -1998
378 -187 735 -276 1157 -289 596 -17 1135 137 1628 468 515 344 890 845 1081
1444 80 248 116 465 130 771 10 213 25 275 88 383 132 223 408 349 653 297 98
-20 220 -82 292 -146 75 -67 148 -178 179 -271 22 -68 24 -88 23 -269 -4
-1512 -949 -2949 -2349 -3570 -390 -174 -722 -267 -1162 -326 -166 -23 -691
-28 -873 -9 -309 33 -596 95 -865 187 -629 214 -1137 535 -1595 1004 -628 644
-1008 1457 -1117 2384 -24 207 -24 692 0 885 62 489 179 886 387 1310 461 943
1299 1679 2275 2000 383 127 751 185 1162 185 l218 0 -347 343 c-322 318 -348
347 -377 411 -18 38 -39 94 -47 125 -18 72 -18 211 1 284 54 207 226 371 433
412 88 17 133 18 214 1z"/>
</g>
</svg>
