<?xml version="1.0" standalone="no"?>
<!DOCTYPE svg PUBLIC "-//W3C//DTD SVG 20010904//EN"
 "http://www.w3.org/TR/2001/REC-SVG-20010904/DTD/svg10.dtd">
<svg version="1.0" xmlns="http://www.w3.org/2000/svg"
 width="2048.000000pt" height="1402.000000pt" viewBox="0 0 2048.000000 1402.000000"
 preserveAspectRatio="xMidYMid meet">
<metadata>
Created by potrace 1.16, written by Peter Selinger 2001-2019
</metadata>
<g transform="translate(0.000000,1402.000000) scale(0.100000,-0.100000)"
fill="#000000" stroke="none">
<path d="M3460 12373 c-86 -7 -276 -34 -368 -53 -337 -70 -671 -236 -890 -444
-339 -320 -529 -794 -572 -1431 -8 -113 -10 -1234 -8 -3820 l4 -3660 21 -145
c75 -504 208 -835 446 -1111 148 -172 303 -292 502 -389 290 -141 536 -203
910 -230 107 -8 2053 -10 6830 -8 6107 3 6690 5 6797 20 244 34 406 76 616
159 247 98 460 250 635 453 283 329 439 796 467 1395 10 217 10 7046 0 7261
-19 392 -100 749 -234 1022 -263 537 -717 846 -1413 960 l-138 23 -6780 1
c-3729 0 -6800 -1 -6825 -3z m1285 -2629 c25 -13 51 -39 70 -69 l30 -48 3
-485 c3 -553 2 -562 -68 -626 -22 -19 -52 -39 -67 -43 -16 -4 -165 -7 -333 -7
-293 0 -307 1 -347 22 -50 26 -87 72 -102 127 -15 54 -15 955 0 1008 13 49 71
113 112 126 58 18 79 19 372 17 273 -1 292 -2 330 -22z m1505 15 c62 -13 106
-49 134 -109 20 -43 21 -63 24 -489 2 -266 -1 -470 -7 -509 -12 -80 -47 -134
-104 -164 -41 -21 -52 -22 -353 -22 l-310 -1 -49 26 c-39 20 -55 36 -77 79
l-29 53 3 507 3 506 27 42 c31 46 73 72 133 83 67 11 550 10 605 -2z m1595
-11 c41 -22 71 -56 92 -103 16 -36 18 -82 21 -484 3 -489 -1 -553 -45 -615
-55 -77 -69 -80 -393 -81 -157 -1 -305 3 -329 7 -65 12 -107 45 -139 108 l-27
55 -3 431 c-2 252 1 462 7 504 16 115 66 173 166 191 22 4 171 7 330 6 249 -2
294 -4 320 -19z m1495 12 c65 -12 113 -47 143 -103 22 -42 22 -43 22 -543 l0
-501 -30 -49 c-20 -32 -47 -58 -75 -74 l-45 -24 -315 0 c-350 0 -348 0 -408
68 -17 20 -36 54 -42 76 -7 27 -10 201 -8 527 l3 488 25 44 c27 49 72 81 129
92 57 11 542 10 601 -1z m1605 -16 c61 -32 94 -86 106 -174 6 -44 9 -247 7
-505 l-3 -431 -30 -60 c-24 -46 -41 -64 -75 -84 l-45 -24 -300 0 c-165 0 -317
3 -338 7 -22 5 -55 23 -77 43 -69 63 -70 68 -70 598 0 298 4 485 11 509 11 40
58 100 93 119 42 23 95 26 386 25 278 -2 297 -3 335 -23z m1552 -2 c50 -26 87
-78 103 -142 7 -31 10 -193 8 -510 -3 -513 -2 -503 -68 -567 -56 -54 -76 -57
-410 -57 l-305 0 -45 24 c-28 16 -55 42 -75 74 l-30 49 0 501 c0 500 0 501 22
543 29 53 79 91 134 103 24 5 175 8 334 7 280 -2 291 -3 332 -25z m3789 -433
c57 -18 77 -31 129 -82 112 -112 100 174 103 -2466 2 -2540 6 -2371 -59 -2472
-104 -163 -340 -198 -518 -77 -76 51 -2190 2161 -2241 2236 -127 188 -125 390
5 586 19 29 275 292 567 582 292 291 572 570 622 619 733 729 1026 1013 1072
1038 110 58 211 70 320 36z m-11531 -1942 c28 -15 48 -37 65 -72 l25 -50 0
-500 0 -500 -23 -47 c-13 -27 -38 -58 -55 -70 -31 -23 -38 -23 -352 -26 -176
-2 -335 0 -353 3 -18 3 -51 22 -72 41 -69 63 -70 68 -70 591 0 301 4 479 11
507 13 52 61 113 103 132 24 10 107 13 356 13 318 1 326 0 365 -22z m1538 9
c18 -7 45 -27 59 -44 52 -62 53 -70 53 -587 0 -517 -1 -525 -53 -587 -47 -56
-61 -58 -409 -58 -288 0 -322 2 -359 19 -44 20 -74 56 -92 110 -9 24 -12 178
-12 516 0 338 3 492 12 516 17 51 46 87 86 109 34 18 60 19 360 20 251 0 330
-3 355 -14z m1550 0 c18 -7 45 -27 59 -44 52 -62 53 -70 53 -587 0 -517 -1
-525 -53 -587 -47 -56 -61 -58 -410 -58 -310 0 -319 1 -362 23 -37 18 -51 33
-75 82 l-30 60 0 475 c0 503 1 517 48 584 11 15 38 37 61 47 37 17 71 19 359
19 246 0 325 -3 350 -14z m1556 -6 c51 -25 78 -61 97 -126 13 -44 14 -124 12
-526 -3 -468 -3 -473 -25 -515 -13 -23 -39 -54 -60 -70 l-36 -28 -333 -3
c-319 -3 -335 -2 -373 18 -26 13 -50 37 -68 67 l-28 48 0 510 0 510 25 45 c15
27 41 53 65 67 39 22 46 23 363 23 302 0 325 -1 361 -20z m1545 6 c37 -15 76
-62 97 -116 10 -27 14 -137 17 -468 4 -482 -1 -552 -46 -617 -51 -74 -55 -75
-423 -75 -321 0 -326 0 -370 23 -32 17 -50 37 -69 72 l-25 49 0 501 0 501 25
49 c19 35 37 55 69 72 44 23 49 23 368 23 254 0 331 -3 357 -14z m1553 -5 c49
-23 87 -76 102 -141 17 -73 14 -926 -3 -983 -19 -64 -52 -106 -100 -128 -37
-17 -70 -19 -358 -19 -201 0 -327 4 -345 11 -38 14 -71 46 -96 94 -22 39 -22
47 -22 540 0 492 0 501 21 540 24 45 45 65 89 88 26 14 77 16 350 16 293 1
323 -1 362 -18z m-7734 -2384 c21 -16 47 -47 60 -70 22 -42 22 -47 25 -525 2
-310 -1 -496 -8 -521 -15 -56 -49 -101 -95 -125 -38 -20 -55 -21 -360 -21
l-320 0 -45 27 c-28 16 -55 43 -70 70 l-25 43 -3 483 c-2 310 1 496 8 521 15
57 50 102 100 128 45 24 45 24 371 21 l326 -3 36 -28z m6170 19 c41 -17 91
-73 108 -123 11 -30 14 -139 14 -513 0 -435 -2 -479 -18 -522 -22 -56 -72
-103 -124 -117 -26 -8 -856 -11 -2644 -11 -2850 0 -2673 -4 -2731 57 -58 61
-58 58 -58 593 0 420 2 496 15 528 21 49 52 81 100 103 39 18 135 19 2673 19
2189 0 2638 -2 2665 -14z m1545 -1 c47 -20 78 -50 105 -100 22 -39 22 -47 22
-535 0 -494 0 -495 -22 -537 -27 -50 -73 -87 -128 -102 -64 -17 -580 -15 -640
3 -63 20 -112 68 -130 130 -22 73 -22 939 0 1012 17 58 73 120 119 133 17 5
167 10 334 10 252 1 309 -2 340 -14z"/>
</g>
</svg>
