<?xml version="1.0" standalone="no"?>
<!DOCTYPE svg PUBLIC "-//W3C//DTD SVG 20010904//EN"
 "http://www.w3.org/TR/2001/REC-SVG-20010904/DTD/svg10.dtd">
<svg version="1.0" xmlns="http://www.w3.org/2000/svg"
 width="2048.000000pt" height="2048.000000pt" viewBox="0 0 2048.000000 2048.000000"
 preserveAspectRatio="xMidYMid meet">
<metadata>
Created by potrace 1.16, written by Peter Selinger 2001-2019
</metadata>
<g transform="translate(0.000000,2048.000000) scale(0.100000,-0.100000)"
fill="#000000" stroke="none">
<path d="M9770 19089 c-1016 -59 -1938 -263 -2845 -629 -1129 -455 -2129
-1126 -3001 -2011 -862 -874 -1491 -1838 -1939 -2969 -350 -882 -554 -1829
-604 -2795 -11 -203 -11 -694 0 -890 66 -1242 374 -2419 916 -3500 157 -314
253 -484 410 -734 91 -144 288 -439 322 -481 11 -14 70 -92 132 -175 483 -643
1104 -1264 1744 -1744 83 -62 161 -122 175 -132 38 -31 299 -206 445 -299 175
-112 380 -231 550 -320 77 -40 160 -84 184 -97 155 -85 598 -279 875 -383 799
-300 1581 -468 2516 -542 206 -16 957 -16 1170 0 811 62 1476 192 2195 428
629 208 1310 523 1838 853 643 401 1171 823 1693 1352 491 498 861 968 1256
1597 213 339 475 857 646 1277 375 924 581 1848 642 2880 13 227 5 906 -14
1135 -70 827 -226 1569 -485 2293 -306 857 -714 1616 -1257 2337 -278 370
-505 631 -834 960 -775 776 -1677 1400 -2657 1836 -929 413 -1879 653 -2933
740 -226 18 -916 27 -1140 13z m-3367 -4404 c79 -20 135 -51 252 -136 144
-104 1573 -1116 2110 -1492 402 -283 1537 -1085 1712 -1211 62 -45 163 -117
225 -161 459 -324 551 -399 659 -531 221 -271 331 -573 331 -909 0 -303 -67
-534 -229 -785 -141 -219 -327 -385 -571 -510 -334 -173 -733 -204 -1095 -85
-303 98 -589 332 -818 664 -127 186 -493 731 -1208 1799 -821 1227 -1278 1909
-1626 2427 -112 166 -212 327 -225 360 -34 86 -35 254 -2 337 25 63 102 154
158 189 90 55 218 72 327 44z"/>
</g>
</svg>
