<?xml version="1.0" standalone="no"?>
<!DOCTYPE svg PUBLIC "-//W3C//DTD SVG 20010904//EN"
 "http://www.w3.org/TR/2001/REC-SVG-20010904/DTD/svg10.dtd">
<svg version="1.0" xmlns="http://www.w3.org/2000/svg"
 width="2048.000000pt" height="2048.000000pt" viewBox="0 0 2048.000000 2048.000000"
 preserveAspectRatio="xMidYMid meet">
<metadata>
Created by potrace 1.16, written by Peter Selinger 2001-2019
</metadata>
<g transform="translate(0.000000,2048.000000) scale(0.100000,-0.100000)"
fill="#000000" stroke="none">
<path d="M9775 19089 c-2058 -110 -3981 -914 -5500 -2300 -160 -146 -488 -474
-627 -629 -1761 -1951 -2559 -4571 -2188 -7182 174 -1221 607 -2401 1258
-3433 368 -583 763 -1077 1257 -1570 577 -578 1196 -1053 1885 -1447 172 -99
625 -328 795 -403 961 -420 1916 -656 2985 -736 193 -14 835 -20 1035 -9 1347
74 2598 422 3755 1047 182 98 251 138 434 249 244 148 673 451 916 648 450
364 903 810 1273 1254 346 415 737 987 954 1392 118 222 199 381 263 519 489
1056 751 2111 820 3291 11 196 5 880 -9 1065 -83 1053 -300 1955 -694 2880
-86 201 -354 742 -452 910 -314 539 -682 1045 -1109 1525 -162 182 -517 535
-701 697 -413 363 -825 669 -1296 962 -247 153 -701 390 -1009 526 -989 437
-2036 686 -3135 744 -192 10 -715 10 -910 0z m-1560 -3880 c141 -25 279 -131
342 -261 39 -81 52 -134 53 -213 0 -74 -12 -122 -52 -203 -57 -118 -162 -210
-285 -251 -60 -20 -82 -21 -602 -21 -328 0 -581 -4 -643 -11 -464 -50 -745
-330 -798 -794 -5 -50 -10 -327 -10 -625 0 -452 -2 -545 -16 -595 -33 -130
-130 -243 -264 -308 -85 -42 -85 -42 -200 -42 -113 0 -116 1 -195 39 -148 72
-250 205 -275 357 -8 46 -10 253 -7 670 4 651 7 686 63 923 110 461 362 822
741 1060 233 146 554 247 878 274 155 14 1199 14 1270 1z m5300 0 c417 -36
778 -170 1050 -390 354 -286 559 -671 636 -1194 16 -111 25 -1259 10 -1341
-28 -152 -131 -284 -280 -357 -86 -42 -86 -42 -201 -42 -113 0 -116 1 -195 39
-123 60 -213 161 -258 291 -7 19 -13 257 -17 645 -7 567 -9 622 -27 705 -90
403 -372 643 -801 685 -53 5 -336 10 -627 10 -445 0 -540 2 -590 15 -157 41
-297 185 -340 350 -39 150 -2 293 111 431 58 72 163 132 269 154 53 11 1132
10 1260 -1z m-7669 -6603 c150 -40 284 -162 347 -318 21 -52 22 -69 28 -668 6
-567 8 -622 26 -705 87 -387 354 -624 758 -674 55 -7 298 -11 632 -11 363 0
559 -4 595 -11 249 -53 422 -321 368 -569 -39 -177 -206 -338 -384 -371 -39
-7 -262 -9 -680 -6 -677 4 -703 6 -951 67 -661 164 -1121 637 -1266 1302 -50
228 -52 261 -56 903 -5 678 -4 688 60 809 40 75 134 171 207 210 99 54 216 69
316 42z m8976 3 c155 -32 308 -171 370 -335 23 -59 23 -59 23 -684 0 -676 -4
-730 -60 -965 -159 -669 -630 -1137 -1302 -1294 -220 -51 -259 -54 -925 -58
-446 -3 -643 -1 -682 7 -260 54 -437 331 -372 581 40 153 154 281 305 341 55
22 63 23 681 29 542 5 635 8 699 23 378 88 599 313 677 687 15 72 18 169 23
689 l6 605 24 60 c47 118 121 205 224 264 101 58 198 73 309 50z"/>
</g>
</svg>
