<?xml version="1.0" standalone="no"?>
<!DOCTYPE svg PUBLIC "-//W3C//DTD SVG 20010904//EN"
 "http://www.w3.org/TR/2001/REC-SVG-20010904/DTD/svg10.dtd">
<svg version="1.0" xmlns="http://www.w3.org/2000/svg"
 width="2048.000000pt" height="2048.000000pt" viewBox="0 0 2048.000000 2048.000000"
 preserveAspectRatio="xMidYMid meet">
<metadata>
Created by potrace 1.16, written by Peter Selinger 2001-2019
</metadata>
<g transform="translate(0.000000,2048.000000) scale(0.100000,-0.100000)"
fill="#000000" stroke="none">
<path d="M9765 19089 c-1763 -96 -3425 -697 -4820 -1744 -691 -519 -1282
-1105 -1778 -1765 -73 -96 -138 -181 -144 -188 -30 -32 -318 -472 -410 -627
-1155 -1944 -1521 -4237 -1032 -6459 156 -706 390 -1364 721 -2026 253 -506
484 -883 809 -1315 293 -391 532 -668 854 -990 919 -919 1983 -1605 3190
-2055 1454 -542 3090 -688 4633 -414 2071 368 3922 1450 5283 3089 347 419
710 952 946 1390 524 972 842 1928 993 2985 67 469 84 728 84 1265 0 537 -17
796 -84 1265 -211 1474 -783 2855 -1672 4035 -436 579 -892 1059 -1448 1525
-400 334 -956 714 -1395 952 -1200 652 -2455 1006 -3820 1078 -218 11 -690 11
-910 -1z m1115 -1493 c953 -90 1797 -328 2635 -741 1456 -719 2619 -1882 3340
-3340 414 -837 650 -1681 742 -2645 22 -234 25 -960 5 -1205 -78 -955 -323
-1846 -737 -2690 -361 -734 -831 -1392 -1405 -1965 -771 -771 -1695 -1356
-2741 -1734 -418 -150 -965 -286 -1409 -350 -374 -53 -641 -73 -1040 -75 -655
-4 -1217 64 -1845 224 -719 182 -1344 440 -1970 813 -623 371 -1183 823 -1644
1327 -938 1024 -1566 2267 -1830 3615 -178 916 -175 1940 9 2850 137 676 352
1298 655 1895 459 905 1095 1705 1856 2335 1151 954 2538 1532 4027 1680 57 5
160 13 230 16 70 4 129 9 132 11 12 12 834 -7 990 -21z"/>
<path d="M10025 15099 c-688 -24 -1380 -204 -2012 -526 -82 -41 -155 -80 -163
-87 -8 -7 -49 -32 -90 -56 -116 -67 -354 -230 -470 -323 -186 -148 -289 -282
-347 -449 -37 -109 -43 -274 -14 -383 66 -238 240 -410 467 -461 115 -25 261
-16 381 24 149 50 182 70 445 258 775 557 1749 762 2699 569 547 -112 1064
-355 1503 -707 139 -112 413 -388 528 -533 282 -354 521 -818 632 -1230 18
-66 36 -132 40 -147 l6 -28 -392 0 c-218 0 -422 -5 -458 -10 -83 -13 -179 -60
-221 -107 -17 -21 -44 -62 -58 -93 -23 -48 -26 -68 -26 -155 1 -172 -2 -167
505 -875 243 -338 570 -797 728 -1019 158 -222 310 -429 337 -459 175 -193
398 -247 605 -145 133 65 170 110 639 781 72 104 241 342 658 932 193 272 362
518 376 546 42 83 60 168 55 264 -8 160 -81 259 -233 315 -46 18 -92 19 -585
23 l-535 3 -18 97 c-81 442 -239 912 -442 1310 -514 1009 -1381 1829 -2405
2272 -683 297 -1370 425 -2135 399z"/>
<path d="M5891 12354 c-142 -38 -245 -125 -393 -335 -57 -80 -159 -224 -226
-320 -68 -96 -346 -487 -618 -869 -272 -382 -512 -730 -533 -772 -22 -42 -45
-103 -51 -135 -17 -80 -8 -196 19 -260 27 -61 102 -136 164 -163 79 -35 160
-40 665 -40 270 0 492 -2 492 -5 0 -3 12 -65 26 -137 74 -382 184 -728 344
-1083 326 -720 842 -1368 1480 -1861 276 -214 641 -435 930 -564 555 -249
1058 -379 1655 -430 155 -13 576 -13 741 0 630 50 1219 211 1774 486 334 165
746 442 930 625 302 301 326 733 55 1004 -179 179 -416 225 -690 134 -116 -39
-205 -89 -352 -196 -463 -341 -991 -567 -1523 -652 -1010 -162 -2028 118
-2813 774 -456 382 -807 876 -1023 1443 -46 121 -134 411 -134 444 0 17 19 18
398 18 218 0 423 4 455 10 129 21 234 95 280 198 25 58 34 177 17 255 -6 32
-29 93 -51 135 -21 42 -206 309 -410 592 -205 283 -533 741 -731 1017 -263
368 -376 518 -421 559 -135 122 -303 169 -456 128z"/>
</g>
</svg>
