<?xml version="1.0" standalone="no"?>
<!DOCTYPE svg PUBLIC "-//W3C//DTD SVG 20010904//EN"
 "http://www.w3.org/TR/2001/REC-SVG-20010904/DTD/svg10.dtd">
<svg version="1.0" xmlns="http://www.w3.org/2000/svg"
 width="2048.000000pt" height="2048.000000pt" viewBox="0 0 2048.000000 2048.000000"
 preserveAspectRatio="xMidYMid meet">
<metadata>
Created by potrace 1.16, written by Peter Selinger 2001-2019
</metadata>
<g transform="translate(0.000000,2048.000000) scale(0.100000,-0.100000)"
fill="#000000" stroke="none">
<path d="M9755 19089 c-1757 -98 -3422 -702 -4810 -1744 -386 -290 -646 -516
-975 -845 -313 -312 -553 -588 -803 -920 -73 -96 -135 -177 -138 -180 -4 -3
-67 -95 -141 -205 -643 -955 -1083 -1982 -1318 -3080 -391 -1828 -207 -3707
531 -5412 93 -215 312 -653 429 -856 301 -525 657 -1018 1088 -1507 268 -304
665 -685 1007 -965 1348 -1107 2974 -1784 4710 -1959 548 -56 1158 -59 1700
-10 1327 120 2611 536 3740 1213 150 89 588 376 617 404 7 6 85 66 173 132
327 245 627 507 935 815 1133 1132 1927 2518 2320 4045 672 2611 125 5387
-1482 7520 -287 381 -513 641 -848 975 -326 326 -594 558 -975 844 -165 124
-560 393 -672 457 -15 9 -71 42 -123 74 -134 80 -315 177 -535 288 -1085 544
-2261 851 -3510 917 -220 11 -702 11 -920 -1z m1125 -1493 c1027 -98 1973
-380 2840 -846 656 -352 1222 -772 1741 -1290 1156 -1155 1900 -2675 2103
-4300 44 -347 51 -483 51 -930 0 -455 -11 -625 -61 -997 -42 -316 -87 -538
-180 -894 -391 -1496 -1291 -2890 -2484 -3844 -448 -358 -920 -658 -1415 -899
-875 -426 -1819 -675 -2795 -735 -176 -11 -718 -11 -890 0 -730 47 -1459 200
-2120 446 -1134 422 -2154 1116 -2941 1998 -705 792 -1251 1759 -1553 2752
-68 224 -155 571 -195 773 -132 678 -166 1440 -95 2150 88 895 349 1787 759
2595 474 934 1149 1771 1935 2400 711 568 1468 984 2308 1265 606 203 1222
324 1887 370 193 13 915 4 1105 -14z"/>
<path d="M13878 14068 c-187 -22 -341 -127 -422 -289 -72 -144 -67 158 -64
-3574 l3 -3360 26 -67 c60 -154 146 -252 274 -313 93 -44 160 -58 275 -58 208
0 374 81 484 236 54 78 82 152 96 259 8 59 10 1054 8 3393 -3 3155 -4 3313
-21 3370 -84 278 -347 439 -659 403z"/>
<path d="M8995 13790 c-332 -60 -530 -355 -460 -685 31 -148 49 -170 384 -503
168 -167 414 -399 546 -517 132 -118 317 -283 411 -367 94 -84 386 -344 648
-577 262 -233 475 -425 474 -426 -3 -2 -498 27 -1263 74 -315 20 -424 21
-2345 21 -2241 0 -2086 4 -2236 -70 -61 -30 -96 -56 -140 -103 -110 -117 -157
-241 -157 -412 0 -176 49 -302 163 -415 75 -75 158 -123 256 -146 63 -15 248
-17 2102 -18 l2033 -1 782 47 c430 26 790 46 799 45 12 -1 -15 -30 -80 -88
-53 -47 -261 -232 -461 -410 -201 -178 -432 -384 -515 -458 -83 -73 -170 -151
-193 -172 -24 -22 -127 -114 -230 -206 -207 -182 -531 -477 -745 -676 -191
-178 -233 -254 -245 -442 -16 -279 137 -501 403 -581 93 -28 249 -24 341 8 97
35 186 86 259 150 58 51 787 761 1809 1763 264 259 636 622 826 808 191 185
374 366 407 401 67 72 113 158 138 256 22 87 15 241 -16 328 -51 145 -88 185
-990 1067 -118 115 -368 361 -555 546 -187 185 -640 630 -1006 990 -706 693
-722 707 -858 750 -75 23 -213 32 -286 19z"/>
</g>
</svg>
