<?xml version="1.0" standalone="no"?>
<!DOCTYPE svg PUBLIC "-//W3C//DTD SVG 20010904//EN"
 "http://www.w3.org/TR/2001/REC-SVG-20010904/DTD/svg10.dtd">
<svg version="1.0" xmlns="http://www.w3.org/2000/svg"
 width="2048.000000pt" height="1912.000000pt" viewBox="0 0 2048.000000 1912.000000"
 preserveAspectRatio="xMidYMid meet">
<metadata>
Created by potrace 1.16, written by Peter Selinger 2001-2019
</metadata>
<g transform="translate(0.000000,1912.000000) scale(0.100000,-0.100000)"
fill="#000000" stroke="none">
<path d="M4589 17729 c-544 -27 -979 -135 -1358 -335 -375 -198 -665 -491
-855 -863 -187 -366 -282 -738 -316 -1236 -6 -97 -10 -2113 -10 -5745 0 -3632
4 -5648 10 -5745 33 -495 122 -849 302 -1209 99 -197 189 -329 320 -464 200
-208 330 -308 554 -424 375 -195 759 -293 1289 -327 217 -15 11194 -15 11420
-1 613 39 1075 175 1482 436 117 75 183 131 336 287 216 219 364 472 495 842
74 210 128 513 152 850 8 116 10 1726 8 5860 -4 5280 -5 5710 -21 5835 -45
357 -101 582 -209 845 -116 280 -238 471 -422 662 -150 156 -244 232 -414 335
-342 209 -727 326 -1262 385 -144 16 -539 17 -5750 19 -3077 0 -5665 -2 -5751
-7z m11374 -1452 c216 -44 408 -122 537 -217 82 -61 212 -195 262 -271 123
-186 195 -418 218 -703 14 -180 14 -10892 0 -11072 -25 -304 -112 -565 -249
-746 -207 -273 -505 -417 -946 -458 -158 -14 -10943 -14 -11108 1 -278 24
-510 96 -682 212 -78 53 -216 186 -271 263 -128 179 -208 431 -234 739 -14
166 -14 10884 0 11050 26 311 105 558 235 740 55 77 185 205 266 262 154 107
378 185 616 212 37 5 2588 8 5668 7 5325 -1 5604 -2 5688 -19z"/>
<path d="M7090 14315 c-205 -30 -355 -72 -533 -150 -213 -94 -453 -269 -610
-445 -191 -213 -315 -421 -396 -666 -136 -408 -134 -845 6 -1248 113 -328 340
-633 635 -854 223 -167 462 -274 758 -338 l125 -27 562 -4 563 -4 5 -22 c3
-12 4 -467 3 -1012 l-3 -990 -545 -6 c-584 -6 -607 -8 -823 -64 -130 -33 -310
-105 -423 -167 -220 -120 -465 -339 -619 -553 -402 -559 -457 -1320 -141
-1948 97 -191 283 -434 426 -554 276 -232 559 -373 884 -439 150 -31 438 -43
591 -25 428 50 801 228 1104 524 306 301 491 677 551 1120 6 46 10 292 10 593
l0 514 1015 0 1015 0 0 -504 c0 -558 6 -641 61 -853 51 -200 145 -411 247
-558 88 -126 204 -266 279 -334 312 -288 670 -453 1088 -502 140 -17 441 -6
569 20 209 43 429 123 575 210 115 68 342 244 417 323 128 135 259 318 333
467 145 289 208 577 198 911 -6 215 -30 359 -91 543 -56 171 -115 293 -205
428 -127 189 -231 303 -406 445 -199 161 -427 274 -699 345 -204 52 -297 59
-847 59 l-499 0 0 1014 0 1015 568 4 567 4 123 27 c147 33 319 90 445 150 331
155 652 460 832 791 96 177 172 416 201 638 21 161 14 435 -15 592 -39 209
-125 446 -220 604 -55 91 -195 279 -270 363 -60 66 -196 177 -331 270 -532
367 -1290 409 -1893 107 -77 -39 -249 -153 -342 -227 -207 -166 -411 -431
-516 -671 -84 -191 -134 -370 -158 -571 -7 -49 -11 -296 -11 -587 l0 -503
-1014 0 -1015 0 -4 563 c-4 559 -4 563 -30 682 -45 213 -130 440 -221 591
-208 345 -558 649 -906 785 -250 98 -407 129 -680 135 -133 2 -225 -1 -290
-11z m436 -1026 c308 -80 552 -308 642 -601 34 -109 42 -244 42 -694 l0 -425
-512 3 c-582 4 -560 1 -735 89 -210 104 -381 311 -455 549 -20 66 -23 95 -23
235 1 149 3 166 29 240 102 293 309 499 592 589 101 32 109 33 235 35 77 1
126 -4 185 -20z m5849 -14 c241 -82 414 -231 523 -450 54 -109 82 -202 90
-301 34 -388 -187 -753 -546 -899 -128 -52 -164 -55 -688 -55 l-484 0 0 488
c0 515 3 554 49 678 76 201 241 384 436 481 58 29 193 77 245 87 14 2 86 3
160 1 115 -2 147 -7 215 -30z m-2127 -3713 l2 -1012 -1012 2 -1013 3 -3 1000
c-1 550 0 1006 3 1013 3 10 211 12 1012 10 l1008 -3 3 -1013z m-3040 -2427 c4
-584 -8 -677 -110 -861 -118 -210 -306 -359 -544 -430 -122 -36 -290 -38 -409
-5 -298 83 -523 296 -631 596 -27 76 -28 89 -28 245 0 159 1 168 30 250 42
114 77 182 136 262 100 137 244 247 393 304 134 50 163 52 680 51 l480 -2 3
-410z m5084 401 c310 -61 560 -289 662 -605 148 -457 -137 -958 -621 -1093
-109 -30 -276 -30 -389 0 -262 70 -475 240 -587 468 -86 176 -87 178 -87 752
l0 492 474 0 c370 0 490 -3 548 -14z"/>
</g>
</svg>
