<?xml version="1.0" standalone="no"?>
<!DOCTYPE svg PUBLIC "-//W3C//DTD SVG 20010904//EN"
 "http://www.w3.org/TR/2001/REC-SVG-20010904/DTD/svg10.dtd">
<svg version="1.0" xmlns="http://www.w3.org/2000/svg"
 width="2048.000000pt" height="2048.000000pt" viewBox="0 0 2048.000000 2048.000000"
 preserveAspectRatio="xMidYMid meet">
<metadata>
Created by potrace 1.16, written by Peter Selinger 2001-2019
</metadata>
<g transform="translate(0.000000,2048.000000) scale(0.100000,-0.100000)"
fill="#000000" stroke="none">
<path d="M9865 19094 c-782 -47 -1296 -126 -1926 -294 -1043 -279 -2077 -774
-2919 -1398 -927 -687 -1664 -1472 -2270 -2417 -297 -463 -594 -1052 -798
-1586 -616 -1606 -746 -3394 -371 -5089 309 -1395 943 -2676 1874 -3780 574
-682 1317 -1333 2025 -1775 69 -43 154 -97 190 -120 285 -183 864 -470 1290
-640 1768 -706 3767 -817 5625 -310 1026 280 2044 773 2885 1398 747 555 1352
1159 1907 1904 553 740 1030 1673 1306 2553 220 701 337 1314 399 2100 16 205
16 987 0 1190 -52 645 -135 1151 -282 1700 -156 588 -361 1121 -645 1685 -258
511 -482 874 -807 1307 -282 375 -527 658 -848 978 -1092 1093 -2410 1865
-3892 2280 -542 151 -1118 250 -1763 301 -130 10 -866 20 -980 13z m850 -1485
c595 -41 1151 -144 1715 -319 977 -301 1902 -820 2695 -1511 167 -145 509
-487 654 -654 665 -763 1168 -1643 1475 -2580 168 -514 280 -1040 330 -1550 8
-82 17 -175 21 -205 13 -132 17 -802 6 -985 -43 -691 -162 -1300 -376 -1935
-374 -1106 -1024 -2138 -1848 -2936 -870 -842 -1963 -1474 -3112 -1799 -679
-193 -1204 -270 -1910 -282 -771 -13 -1381 64 -2125 268 -1315 362 -2577 1142
-3490 2160 -753 838 -1310 1843 -1614 2911 -145 507 -224 942 -268 1468 -14
172 -18 848 -5 1055 57 972 331 1972 782 2860 418 821 975 1552 1640 2150 828
745 1870 1320 2927 1616 547 152 987 229 1548 268 150 11 801 11 955 0z"/>
<path d="M6380 14320 c-427 -36 -738 -243 -893 -593 -49 -110 -92 -280 -107
-422 -8 -82 -10 -867 -8 -3045 l4 -2935 22 -100 c127 -578 481 -871 1117 -925
92 -8 1209 -10 3860 -8 3503 4 3735 5 3815 21 252 52 454 157 599 312 141 152
224 322 278 571 l28 129 0 2595 0 2595 -23 113 c-47 231 -130 413 -247 541
-208 228 -446 340 -810 381 -57 6 -873 10 -2250 10 -1278 0 -2199 4 -2255 10
-124 12 -197 32 -295 79 -77 37 -122 68 -345 240 -234 181 -289 220 -377 274
-150 90 -310 139 -508 156 -119 11 -1483 11 -1605 1z m7586 -1815 c91 -21 173
-63 226 -116 92 -91 118 -179 118 -391 l0 -148 -4080 0 -4080 0 0 134 c0 209
26 300 114 394 56 60 122 97 218 122 71 18 160 19 3748 19 3176 1 3683 -1
3736 -14z"/>
</g>
</svg>
