<?xml version="1.0" standalone="no"?>
<!DOCTYPE svg PUBLIC "-//W3C//DTD SVG 20010904//EN"
 "http://www.w3.org/TR/2001/REC-SVG-20010904/DTD/svg10.dtd">
<svg version="1.0" xmlns="http://www.w3.org/2000/svg"
 width="2048.000000pt" height="1912.000000pt" viewBox="0 0 2048.000000 1912.000000"
 preserveAspectRatio="xMidYMid meet">
<metadata>
Created by potrace 1.16, written by Peter Selinger 2001-2019
</metadata>
<g transform="translate(0.000000,1912.000000) scale(0.100000,-0.100000)"
fill="#000000" stroke="none">
<path d="M4556 17729 c-853 -51 -1466 -303 -1896 -779 -177 -195 -311 -432
-435 -765 -61 -164 -118 -433 -152 -710 -17 -143 -18 -412 -18 -5915 0 -6118
-2 -5816 45 -6133 32 -211 113 -511 170 -632 5 -11 27 -60 48 -110 81 -185
207 -384 333 -522 200 -220 363 -345 618 -473 365 -184 744 -277 1261 -310
126 -8 1767 -10 5830 -8 l5655 4 165 21 c330 44 652 121 805 193 11 5 45 19
75 30 97 38 266 129 392 212 96 64 155 113 269 227 151 151 219 235 306 381
60 101 133 246 158 315 10 28 22 55 25 60 12 18 78 218 99 300 49 198 81 404
101 654 14 187 14 11374 0 11562 -29 379 -105 739 -201 955 -10 22 -28 65 -39
95 -38 96 -120 246 -203 372 -65 99 -111 152 -241 283 -131 130 -184 176 -283
241 -373 246 -762 374 -1338 440 -140 16 -515 17 -5785 19 -3099 1 -5693 -2
-5764 -7z m11419 -1456 c122 -25 291 -81 377 -124 200 -101 377 -279 480 -484
75 -148 129 -361 147 -575 5 -59 8 -2505 7 -5605 -1 -5208 -2 -5506 -19 -5605
-40 -235 -108 -424 -210 -575 -52 -77 -205 -230 -280 -279 -186 -121 -414
-192 -700 -215 -175 -15 -10889 -15 -11073 -1 -404 32 -664 139 -880 362 -205
212 -306 479 -335 888 -7 97 -9 1938 -7 5590 3 5050 5 5453 20 5554 51 327
143 534 317 718 106 112 180 168 296 225 164 81 297 117 540 146 17 2 2548 3
5625 3 l5595 -2 100 -21z"/>
<path d="M10910 14085 c-155 -27 -300 -88 -450 -188 -145 -96 -161 -112 -1425
-1392 -445 -451 -886 -896 -980 -990 -94 -93 -528 -532 -965 -974 -437 -442
-932 -941 -1099 -1110 -166 -168 -331 -342 -365 -386 -293 -377 -343 -730
-152 -1080 106 -193 97 -184 1606 -1695 1554 -1556 1531 -1535 1743 -1639 385
-187 750 -108 1139 246 65 59 1797 1776 2812 2788 204 204 684 680 1066 1059
382 379 724 721 758 760 216 242 296 419 322 709 14 154 13 1809 -1 1956 -13
146 -47 277 -98 386 -33 71 -95 171 -121 195 -3 3 -23 28 -44 55 -43 54 -534
548 -842 847 -302 292 -484 405 -732 454 -103 20 -2056 19 -2172 -1z m1520
-2026 c114 -31 185 -74 282 -169 69 -68 94 -101 123 -161 85 -180 85 -368 0
-548 -50 -105 -197 -252 -305 -305 -133 -65 -287 -79 -430 -40 -158 45 -325
182 -394 326 -205 426 94 915 559 917 62 1 114 -5 165 -20z"/>
</g>
</svg>
