<?xml version="1.0" standalone="no"?>
<!DOCTYPE svg PUBLIC "-//W3C//DTD SVG 20010904//EN"
 "http://www.w3.org/TR/2001/REC-SVG-20010904/DTD/svg10.dtd">
<svg version="1.0" xmlns="http://www.w3.org/2000/svg"
 width="2048.000000pt" height="2048.000000pt" viewBox="0 0 2048.000000 2048.000000"
 preserveAspectRatio="xMidYMid meet">
<metadata>
Created by potrace 1.16, written by Peter Selinger 2001-2019
</metadata>
<g transform="translate(0.000000,2048.000000) scale(0.100000,-0.100000)"
fill="#000000" stroke="none">
<path d="M9775 19090 c-1299 -76 -2459 -389 -3590 -969 -814 -418 -1550 -955
-2210 -1616 -700 -699 -1242 -1450 -1679 -2325 -835 -1674 -1113 -3560 -800
-5435 147 -886 433 -1744 855 -2565 93 -181 284 -521 311 -555 5 -5 52 -80
106 -165 398 -628 958 -1289 1522 -1796 448 -402 782 -652 1363 -1018 313
-198 849 -466 1283 -641 1520 -614 3236 -788 4879 -494 1132 203 2213 627
3190 1252 1197 766 2224 1846 2937 3087 123 215 348 667 447 900 307 724 512
1453 621 2218 66 464 84 741 84 1267 0 525 -18 800 -84 1267 -228 1601 -889
3098 -1919 4348 -476 578 -974 1052 -1586 1510 -958 718 -2080 1238 -3255
1510 -460 106 -876 169 -1405 211 -175 14 -883 20 -1070 9z m1015 -1485 c30
-3 123 -13 205 -21 960 -94 1950 -404 2804 -876 481 -267 914 -569 1326 -929
167 -145 509 -487 654 -654 725 -832 1260 -1811 1556 -2844 198 -694 285
-1317 285 -2041 0 -828 -117 -1561 -374 -2335 -412 -1244 -1166 -2382 -2138
-3227 -1081 -940 -2385 -1542 -3795 -1752 -196 -30 -274 -34 -183 -10 568 149
1098 427 1535 805 124 108 338 325 436 444 446 541 716 1164 815 1875 24 178
30 621 10 792 -54 466 -216 906 -485 1318 -239 366 -592 738 -971 1025 -410
310 -891 575 -1433 789 -276 110 -424 160 -735 251 -327 96 -463 141 -687 225
-1096 413 -1896 968 -2458 1705 -130 170 -235 342 -337 550 -213 433 -300 806
-300 1279 0 736 217 1442 634 2061 237 352 578 700 929 948 366 260 846 479
1262 577 81 20 209 35 415 50 123 8 938 5 1030 -5z"/>
</g>
</svg>
