<?xml version="1.0" standalone="no"?>
<!DOCTYPE svg PUBLIC "-//W3C//DTD SVG 20010904//EN"
 "http://www.w3.org/TR/2001/REC-SVG-20010904/DTD/svg10.dtd">
<svg version="1.0" xmlns="http://www.w3.org/2000/svg"
 width="2048.000000pt" height="2048.000000pt" viewBox="0 0 2048.000000 2048.000000"
 preserveAspectRatio="xMidYMid meet">
<metadata>
Created by potrace 1.16, written by Peter Selinger 2001-2019
</metadata>
<g transform="translate(0.000000,2048.000000) scale(0.100000,-0.100000)"
fill="#000000" stroke="none">
<path d="M9765 19089 c-1763 -96 -3425 -697 -4820 -1744 -691 -519 -1282
-1105 -1778 -1765 -73 -96 -138 -181 -144 -188 -30 -32 -318 -472 -410 -627
-1155 -1944 -1521 -4237 -1032 -6459 156 -706 390 -1364 721 -2026 253 -506
484 -883 809 -1315 293 -391 532 -668 854 -990 919 -919 1983 -1605 3190
-2055 1454 -542 3090 -688 4633 -414 2071 368 3922 1450 5283 3089 347 419
710 952 946 1390 524 972 842 1928 993 2985 67 469 84 728 84 1265 0 537 -17
796 -84 1265 -211 1474 -783 2855 -1672 4035 -436 579 -892 1059 -1448 1525
-400 334 -956 714 -1395 952 -1200 652 -2455 1006 -3820 1078 -218 11 -690 11
-910 -1z m1115 -1493 c953 -90 1797 -328 2635 -741 1456 -719 2619 -1882 3340
-3340 414 -837 650 -1681 742 -2645 22 -234 25 -960 5 -1205 -78 -955 -323
-1846 -737 -2690 -361 -734 -831 -1392 -1405 -1965 -771 -771 -1695 -1356
-2741 -1734 -418 -150 -965 -286 -1409 -350 -374 -53 -641 -73 -1040 -75 -655
-4 -1217 64 -1845 224 -719 182 -1344 440 -1970 813 -623 371 -1183 823 -1644
1327 -938 1024 -1566 2267 -1830 3615 -178 916 -175 1940 9 2850 137 676 352
1298 655 1895 459 905 1095 1705 1856 2335 1151 954 2538 1532 4027 1680 57 5
160 13 230 16 70 4 129 9 132 11 12 12 834 -7 990 -21z"/>
<path d="M9935 15171 c-133 -39 -241 -119 -317 -236 -106 -162 -112 -387 -15
-570 35 -65 71 -103 444 -467 l253 -245 -263 -6 c-264 -5 -414 -19 -615 -58
-737 -141 -1400 -495 -1942 -1038 -963 -965 -1340 -2335 -1010 -3676 170 -691
523 -1318 1025 -1820 625 -625 1433 -1009 2335 -1111 315 -36 883 -12 1110 46
19 5 98 23 175 41 268 60 592 177 845 303 1049 525 1813 1512 2054 2651 73
349 107 800 71 953 -36 153 -164 318 -302 390 -339 178 -746 3 -857 -368 -11
-36 -20 -121 -26 -245 -13 -287 -50 -500 -130 -748 -93 -291 -262 -606 -455
-847 -165 -206 -442 -451 -671 -592 -731 -452 -1650 -528 -2442 -202 -531 219
-986 611 -1275 1099 -455 768 -500 1739 -118 2540 391 820 1158 1377 2066
1501 137 18 649 31 659 16 3 -5 -27 -40 -67 -78 -360 -343 -806 -788 -838
-838 -49 -74 -76 -148 -90 -242 -33 -221 88 -457 286 -556 167 -84 321 -86
485 -7 l85 41 910 912 c842 842 913 916 942 976 16 36 36 90 44 120 18 77 16
222 -5 295 -40 136 -19 113 -989 1082 -892 891 -914 912 -987 946 -127 60
-256 73 -375 38z"/>
</g>
</svg>
