<?xml version="1.0" standalone="no"?>
<!DOCTYPE svg PUBLIC "-//W3C//DTD SVG 20010904//EN"
 "http://www.w3.org/TR/2001/REC-SVG-20010904/DTD/svg10.dtd">
<svg version="1.0" xmlns="http://www.w3.org/2000/svg"
 width="2048.000000pt" height="2048.000000pt" viewBox="0 0 2048.000000 2048.000000"
 preserveAspectRatio="xMidYMid meet">
<metadata>
Created by potrace 1.16, written by Peter Selinger 2001-2019
</metadata>
<g transform="translate(0.000000,2048.000000) scale(0.100000,-0.100000)"
fill="#000000" stroke="none">
<path d="M9780 19089 c-1137 -61 -2210 -323 -3230 -788 -179 -82 -563 -280
-725 -373 -671 -389 -1295 -868 -1845 -1418 -504 -502 -870 -963 -1299 -1632
-161 -252 -456 -821 -595 -1148 -393 -924 -609 -1813 -693 -2845 -21 -261 -24
-986 -5 -1235 96 -1259 393 -2346 933 -3410 121 -240 315 -589 339 -610 3 -3
23 -34 44 -70 303 -503 786 -1111 1266 -1590 667 -666 1405 -1205 2225 -1625
1007 -516 2053 -823 3185 -934 419 -41 1112 -49 1505 -18 1322 107 2491 453
3618 1071 135 74 195 109 381 221 124 75 485 321 613 418 744 559 1324 1140
1868 1867 485 649 892 1399 1183 2180 296 794 460 1562 534 2490 16 205 16
987 0 1190 -43 538 -104 949 -208 1405 -202 878 -561 1773 -1017 2530 -940
1562 -2319 2797 -3955 3544 -999 456 -2077 718 -3212 780 -187 10 -723 11
-910 0z m1110 -1493 c620 -60 1159 -174 1728 -367 909 -308 1765 -804 2507
-1450 167 -145 509 -487 654 -654 874 -1003 1468 -2216 1715 -3500 128 -669
161 -1449 90 -2150 -26 -261 -82 -615 -124 -790 -11 -44 -33 -138 -50 -210
-240 -1018 -776 -2094 -1453 -2920 -405 -492 -898 -956 -1405 -1318 -947 -676
-2047 -1128 -3172 -1301 -418 -65 -652 -81 -1145 -81 -412 0 -539 6 -845 41
-1381 155 -2700 709 -3810 1599 -907 728 -1654 1714 -2125 2805 -290 670 -482
1389 -560 2095 -33 297 -37 372 -40 765 -4 407 1 529 30 825 66 663 234 1350
482 1975 507 1273 1346 2372 2433 3186 582 437 1273 807 1951 1048 651 230
1368 379 1990 412 68 4 126 9 129 11 13 11 867 -6 1020 -21z"/>
<path d="M6150 14403 c-323 -31 -577 -151 -743 -348 -116 -137 -201 -358 -227
-585 -8 -66 -10 -771 -8 -2330 l4 -2235 21 -93 c105 -452 337 -692 762 -788
118 -26 352 -47 481 -42 l85 3 5 1870 5 1870 23 116 c91 473 294 809 625 1030
224 150 457 233 770 274 104 13 434 15 2763 15 l2644 0 0 121 c0 428 -154 766
-430 945 -135 87 -323 150 -520 174 -78 9 -6166 13 -6260 3z"/>
<path d="M8083 12609 c-515 -49 -835 -293 -954 -724 -56 -204 -52 -59 -56
-2395 -3 -1526 -1 -2193 7 -2285 32 -379 157 -635 393 -806 144 -106 349 -176
574 -199 76 -8 1019 -10 3198 -8 l3090 4 99 22 c225 49 369 116 512 238 106
90 208 258 259 428 62 206 58 43 62 2441 3 1600 1 2221 -7 2305 -31 307 -152
577 -325 725 -171 146 -395 229 -686 255 -137 12 -6040 11 -6166 -1z"/>
</g>
</svg>
