<?xml version="1.0" standalone="no"?>
<!DOCTYPE svg PUBLIC "-//W3C//DTD SVG 20010904//EN"
 "http://www.w3.org/TR/2001/REC-SVG-20010904/DTD/svg10.dtd">
<svg version="1.0" xmlns="http://www.w3.org/2000/svg"
 width="2048.000000pt" height="1402.000000pt" viewBox="0 0 2048.000000 1402.000000"
 preserveAspectRatio="xMidYMid meet">
<metadata>
Created by potrace 1.16, written by Peter Selinger 2001-2019
</metadata>
<g transform="translate(0.000000,1402.000000) scale(0.100000,-0.100000)"
fill="#000000" stroke="none">
<path d="M3460 12373 c-421 -33 -809 -160 -1083 -355 -377 -268 -611 -672
-706 -1222 -48 -274 -46 -104 -46 -4066 0 -3564 1 -3741 18 -3875 67 -511 205
-861 454 -1152 287 -336 728 -543 1288 -605 98 -11 1336 -13 6870 -13 6364 0
6757 1 6876 17 299 42 507 103 744 218 266 130 493 334 647 582 194 312 303
709 327 1193 11 209 11 7081 0 7290 -47 932 -425 1550 -1114 1823 -192 76
-310 108 -530 144 l-140 23 -6780 1 c-3729 0 -6800 -1 -6825 -3z m13456 -1158
c256 -38 472 -154 608 -326 112 -142 179 -310 211 -526 14 -97 15 -483 13
-3678 l-3 -3570 -23 -100 c-107 -466 -403 -726 -876 -774 -150 -15 -13079 -16
-13225 -1 -316 33 -562 167 -710 386 -79 118 -126 242 -168 441 -15 71 -17
371 -20 3583 -3 2414 -1 3542 7 3624 24 271 95 466 230 634 133 165 382 287
640 315 19 2 3000 5 6624 5 5887 2 6599 0 6692 -13z"/>
<path d="M8060 9659 c-35 -14 -79 -58 -98 -99 -15 -31 -17 -91 -20 -484 -2
-309 1 -465 8 -503 16 -73 71 -136 135 -152 57 -14 566 -15 618 0 52 14 102
61 124 117 16 43 18 87 18 507 0 495 -1 505 -53 567 -47 56 -62 58 -399 57
-179 0 -318 -4 -333 -10z"/>
<path d="M9555 9656 c-44 -20 -81 -64 -99 -119 -23 -69 -24 -907 -1 -984 17
-56 74 -117 122 -130 36 -10 599 -10 635 -1 40 12 89 57 109 103 17 37 19 75
18 515 0 535 0 536 -72 594 l-39 31 -321 2 c-254 2 -328 0 -352 -11z"/>
<path d="M11050 9651 c-47 -25 -66 -48 -85 -100 -13 -37 -15 -117 -15 -515 0
-438 2 -474 19 -512 22 -49 70 -88 126 -103 54 -15 557 -15 610 0 55 15 119
83 133 142 15 59 17 905 2 958 -13 46 -47 96 -83 123 -27 20 -41 21 -350 23
-298 2 -325 1 -357 -16z"/>
<path d="M12555 9654 c-47 -24 -73 -53 -92 -103 -16 -42 -18 -89 -18 -506 0
-514 1 -523 70 -584 54 -47 106 -53 415 -49 305 3 308 4 368 72 50 57 53 96
50 592 -3 393 -5 453 -20 484 -20 43 -63 85 -101 99 -18 7 -143 11 -335 11
-259 0 -312 -3 -337 -16z"/>
<path d="M14042 9643 c-27 -18 -51 -44 -65 -73 -22 -45 -22 -49 -22 -530 0
-538 -3 -514 67 -579 51 -47 99 -53 413 -49 307 3 315 5 368 67 51 61 52 72
52 571 0 453 -1 466 -21 511 -12 25 -39 59 -60 75 l-37 29 -326 3 -326 3 -43
-28z"/>
<path d="M15565 9656 c-17 -7 -43 -27 -57 -44 -52 -62 -53 -72 -53 -567 0
-420 2 -464 18 -507 20 -51 72 -103 115 -115 15 -5 162 -8 327 -8 333 0 332 0
393 69 51 58 54 94 50 591 -3 394 -5 454 -20 485 -20 43 -63 85 -101 99 -44
17 -634 14 -672 -3z"/>
<path d="M4316 9226 c-67 -28 -116 -71 -153 -133 -56 -95 -53 34 -53 -2350 0
-1593 3 -2217 11 -2255 41 -190 198 -298 391 -267 138 22 88 -23 1123 1009
523 521 1000 996 1061 1056 118 116 179 199 215 292 30 76 33 231 5 310 -42
123 -75 158 -1101 1177 -1221 1213 -1111 1107 -1191 1146 -58 29 -79 34 -158
36 -79 3 -99 0 -150 -21z"/>
<path d="M8044 7350 c-30 -15 -49 -35 -70 -73 l-29 -52 0 -480 c0 -472 0 -481
22 -520 25 -48 58 -80 96 -94 18 -7 141 -11 333 -11 334 0 349 2 396 58 52 62
53 72 53 567 0 495 -1 505 -53 567 -47 56 -62 58 -399 58 -290 0 -310 -1 -349
-20z"/>
<path d="M9560 7359 c-36 -14 -69 -48 -93 -94 -21 -39 -22 -51 -25 -498 -2
-293 1 -471 8 -496 12 -47 46 -97 83 -125 27 -20 42 -21 347 -24 354 -3 367
-1 413 59 47 63 48 83 45 584 -3 526 -2 517 -76 573 l-35 27 -321 2 c-200 1
-330 -2 -346 -8z"/>
<path d="M11048 7350 c-43 -23 -71 -60 -87 -115 -9 -29 -11 -173 -9 -516 l3
-475 28 -42 c15 -23 45 -51 67 -62 39 -20 54 -21 360 -18 305 3 320 4 347 24
36 27 70 77 83 123 13 48 13 904 0 952 -13 46 -47 96 -83 123 -27 20 -41 21
-350 23 -303 2 -324 1 -359 -17z"/>
<path d="M12555 7354 c-47 -24 -73 -53 -92 -103 -16 -42 -18 -89 -18 -506 0
-495 1 -505 53 -567 47 -56 62 -58 397 -58 341 0 350 1 403 66 50 61 53 96 50
590 -3 438 -4 450 -25 489 -25 48 -58 80 -96 94 -18 7 -142 11 -335 11 -259 0
-312 -3 -337 -16z"/>
<path d="M14042 7343 c-27 -18 -51 -44 -65 -73 -22 -45 -22 -49 -22 -530 l0
-485 23 -41 c13 -22 43 -53 65 -68 l42 -27 326 3 326 3 35 27 c20 15 47 49 59
75 l24 48 0 470 0 470 -24 48 c-12 26 -39 60 -59 75 l-35 27 -326 3 -326 3
-43 -28z"/>
<path d="M15565 7354 c-47 -24 -73 -53 -92 -103 -16 -42 -18 -89 -18 -506 0
-495 1 -505 53 -567 47 -56 62 -58 396 -58 192 0 315 4 333 11 38 14 71 46 96
94 22 39 22 48 22 520 0 472 0 481 -22 520 -25 48 -58 80 -96 94 -18 7 -142
11 -335 11 -259 0 -312 -3 -337 -16z"/>
<path d="M8115 5075 c-5 -2 -22 -6 -37 -9 -37 -8 -85 -51 -111 -100 -22 -40
-22 -49 -25 -490 -3 -476 0 -523 42 -587 48 -71 62 -74 411 -74 l310 0 43 24
c32 19 49 39 70 80 l27 56 0 470 0 471 -26 49 c-15 30 -42 62 -68 80 l-43 30
-291 2 c-161 1 -296 0 -302 -2z"/>
<path d="M9600 5073 c-42 -7 -103 -56 -130 -103 l-25 -45 -3 -459 c-2 -385 0
-466 12 -510 17 -56 49 -96 99 -123 30 -17 167 -18 2587 -18 1405 0 2567 3
2582 8 43 12 95 64 115 115 16 43 18 87 18 512 l0 466 -26 49 c-16 32 -41 61
-70 80 l-44 30 -2545 1 c-1400 1 -2556 -1 -2570 -3z"/>
<path d="M15610 5073 c-45 -8 -103 -56 -129 -108 l-26 -49 0 -466 c0 -425 2
-469 18 -512 20 -51 72 -103 115 -115 15 -5 162 -8 327 -8 l300 0 44 25 c32
18 52 39 70 75 l26 49 0 481 c0 449 -1 482 -19 515 -24 46 -54 78 -91 98 -26
15 -71 17 -320 18 -159 1 -301 0 -315 -3z"/>
</g>
</svg>
