<?xml version="1.0" standalone="no"?>
<!DOCTYPE svg PUBLIC "-//W3C//DTD SVG 20010904//EN"
 "http://www.w3.org/TR/2001/REC-SVG-20010904/DTD/svg10.dtd">
<svg version="1.0" xmlns="http://www.w3.org/2000/svg"
 width="2048.000000pt" height="2048.000000pt" viewBox="0 0 2048.000000 2048.000000"
 preserveAspectRatio="xMidYMid meet">
<metadata>
Created by potrace 1.16, written by Peter Selinger 2001-2019
</metadata>
<g transform="translate(0.000000,2048.000000) scale(0.100000,-0.100000)"
fill="#000000" stroke="none">
<path d="M9785 19089 c-1238 -65 -2405 -371 -3495 -916 -512 -256 -907 -499
-1345 -829 -643 -484 -1169 -993 -1650 -1599 -417 -525 -710 -986 -1005 -1580
-233 -469 -392 -867 -535 -1340 -379 -1253 -478 -2554 -294 -3850 140 -983
434 -1908 888 -2790 104 -202 228 -425 296 -530 17 -27 47 -75 65 -105 168
-273 485 -710 711 -980 593 -709 1321 -1350 2059 -1815 69 -43 148 -93 175
-111 103 -65 327 -190 530 -295 913 -470 1890 -774 2900 -904 1591 -204 3166
12 4632 635 1167 496 2284 1301 3130 2255 555 626 974 1246 1333 1970 156 314
255 541 370 850 639 1714 723 3655 235 5430 -103 378 -241 770 -398 1140 -92
217 -347 727 -459 920 -401 690 -871 1299 -1437 1865 -500 498 -1031 917
-1662 1309 -268 166 -779 429 -1104 568 -1121 478 -2308 718 -3525 711 -146 0
-332 -5 -415 -9z m930 -1480 c563 -39 1062 -128 1595 -283 1469 -427 2802
-1326 3732 -2519 797 -1021 1317 -2228 1502 -3482 57 -386 74 -636 74 -1090 0
-363 -5 -472 -33 -755 -133 -1333 -644 -2627 -1469 -3720 -1219 -1616 -3103
-2671 -5131 -2875 -88 -9 -216 -20 -285 -25 -166 -11 -902 -5 -1060 9 -531 48
-927 120 -1413 257 -1143 321 -2188 913 -3068 1737 -842 787 -1514 1828 -1901
2942 -204 589 -322 1139 -385 1795 -22 234 -25 994 -5 1220 51 572 141 1042
300 1570 447 1477 1368 2803 2592 3726 1152 870 2505 1382 3933 1488 195 15
840 18 1022 5z"/>
<path d="M6288 14541 c-106 -34 -203 -130 -244 -241 -26 -69 -23 -199 5 -284
19 -56 230 -378 1225 -1870 1342 -2010 1740 -2603 1830 -2721 140 -186 324
-337 541 -446 198 -98 321 -129 545 -136 253 -8 436 29 647 132 408 197 684
546 779 986 26 119 27 428 1 549 -38 177 -112 350 -217 505 -111 163 -224 271
-456 435 -50 36 -212 151 -358 255 -553 394 -1356 962 -1821 1288 -93 65 -460
324 -815 574 -355 250 -793 560 -975 688 -181 128 -352 244 -380 257 -98 50
-209 60 -307 29z"/>
</g>
</svg>
