<?xml version="1.0" standalone="no"?>
<!DOCTYPE svg PUBLIC "-//W3C//DTD SVG 20010904//EN"
 "http://www.w3.org/TR/2001/REC-SVG-20010904/DTD/svg10.dtd">
<svg version="1.0" xmlns="http://www.w3.org/2000/svg"
 width="2048.000000pt" height="1593.000000pt" viewBox="0 0 2048.000000 1593.000000"
 preserveAspectRatio="xMidYMid meet">
<metadata>
Created by potrace 1.16, written by Peter Selinger 2001-2019
</metadata>
<g transform="translate(0.000000,1593.000000) scale(0.100000,-0.100000)"
fill="#000000" stroke="none">
<path d="M3635 14769 c-264 -25 -543 -85 -718 -155 -451 -181 -750 -449 -951
-854 -126 -254 -196 -509 -238 -875 -10 -88 -13 -1074 -13 -4940 l0 -4830 23
-165 c94 -685 348 -1147 792 -1442 272 -181 569 -285 972 -341 l163 -22 6570
0 c6211 0 6577 1 6704 18 408 53 714 154 981 325 401 255 675 692 780 1241 59
306 54 -114 58 5146 3 4906 3 4922 -34 5170 -92 621 -358 1089 -779 1370 -227
152 -528 266 -840 320 -273 47 38 45 -6889 44 -3570 -1 -6531 -6 -6581 -10z
m13058 -1194 c263 -34 429 -109 596 -269 170 -163 271 -397 301 -698 8 -83 10
-1357 8 -4728 l-3 -4615 -26 -115 c-30 -130 -81 -268 -129 -350 -158 -268
-440 -428 -810 -460 -158 -14 -12632 -14 -12790 0 -516 45 -833 319 -935 808
-8 40 -20 137 -25 215 -8 98 -10 1565 -8 4697 3 4241 4 4561 20 4645 36 189
97 356 169 462 51 75 157 180 242 240 127 89 300 150 492 171 47 6 2736 10
6432 11 5592 1 6366 -1 6466 -14z"/>
<path d="M14090 11059 c-364 -44 -614 -111 -863 -233 -135 -66 -221 -123 -361
-239 -217 -180 -372 -408 -454 -667 -40 -127 -55 -235 -50 -377 3 -108 6 -124
35 -185 54 -114 154 -194 278 -224 169 -39 345 8 443 120 44 50 76 117 124
255 95 279 258 471 503 593 256 129 619 163 934 88 294 -71 498 -235 598 -480
79 -196 68 -481 -25 -674 -108 -221 -287 -381 -529 -472 -145 -55 -243 -67
-598 -73 l-330 -6 -66 -32 c-78 -39 -141 -102 -176 -179 -107 -234 5 -502 242
-576 16 -5 180 -11 363 -14 353 -3 439 -11 592 -49 225 -56 455 -194 579 -347
147 -181 223 -455 191 -688 -27 -194 -99 -347 -228 -482 -98 -102 -174 -159
-286 -213 -190 -91 -370 -132 -621 -142 -255 -9 -441 19 -640 96 -137 53 -229
115 -351 236 -131 130 -192 223 -260 397 -75 193 -180 317 -299 354 -118 36
-269 27 -367 -22 -182 -92 -259 -295 -214 -569 75 -453 411 -849 931 -1096
243 -115 542 -191 866 -220 163 -14 505 -6 669 16 647 88 1145 350 1444 759
146 200 228 383 277 622 30 145 37 424 15 567 -43 271 -156 514 -340 730 -106
123 -295 267 -455 346 -123 61 -403 141 -492 141 -42 0 -6 16 81 37 236 57
428 171 621 369 191 198 309 426 370 714 32 151 32 401 0 550 -73 341 -240
614 -516 840 -345 282 -838 437 -1390 438 -93 0 -204 -4 -245 -9z"/>
<path d="M9262 11050 c-286 -30 -614 -134 -847 -267 -174 -100 -401 -288 -514
-427 -234 -286 -360 -603 -349 -875 6 -136 29 -200 104 -280 88 -95 230 -141
375 -121 171 24 323 170 428 410 123 283 329 506 575 621 155 72 295 101 496
100 495 -1 840 -235 951 -646 32 -115 32 -345 1 -459 -76 -277 -253 -537 -667
-983 -134 -144 -343 -375 -479 -528 -50 -55 -142 -156 -206 -225 -63 -69 -133
-145 -155 -170 -54 -61 -382 -424 -525 -579 -63 -69 -153 -169 -200 -221 -47
-52 -137 -152 -200 -221 -271 -296 -371 -411 -400 -456 -46 -72 -71 -164 -72
-263 -1 -209 92 -344 282 -412 l65 -23 1680 -3 c1187 -2 1699 0 1745 8 199 34
327 177 346 390 20 216 -108 403 -306 449 -30 7 -458 11 -1237 11 -1000 0
-1193 2 -1193 14 0 14 108 138 314 362 145 157 355 387 490 538 55 61 129 143
166 181 92 96 421 459 743 819 164 184 364 452 461 619 179 306 268 577 285
867 22 401 -62 731 -266 1038 -70 105 -235 273 -358 364 -103 77 -297 180
-435 231 -123 46 -355 102 -500 122 -137 19 -481 27 -598 15z"/>
<path d="M5774 11039 c-137 -23 -309 -109 -524 -263 -58 -41 -222 -155 -365
-252 -143 -98 -291 -200 -330 -229 -38 -28 -155 -109 -260 -180 -104 -71 -211
-148 -236 -172 -151 -141 -154 -408 -6 -557 80 -80 180 -113 295 -96 87 12
132 35 335 173 549 373 755 507 780 507 l27 0 2 -2302 c3 -2174 4 -2306 21
-2363 58 -196 161 -309 321 -351 68 -18 218 -18 291 1 174 46 293 183 330 381
13 69 15 415 13 2689 -3 2457 -4 2613 -21 2668 -45 150 -121 246 -241 303 -39
19 -95 38 -125 44 -63 12 -234 11 -307 -1z"/>
</g>
</svg>
