<?xml version="1.0" standalone="no"?>
<!DOCTYPE svg PUBLIC "-//W3C//DTD SVG 20010904//EN"
 "http://www.w3.org/TR/2001/REC-SVG-20010904/DTD/svg10.dtd">
<svg version="1.0" xmlns="http://www.w3.org/2000/svg"
 width="2048.000000pt" height="2048.000000pt" viewBox="0 0 2048.000000 2048.000000"
 preserveAspectRatio="xMidYMid meet">
<metadata>
Created by potrace 1.16, written by Peter Selinger 2001-2019
</metadata>
<g transform="translate(0.000000,2048.000000) scale(0.100000,-0.100000)"
fill="#000000" stroke="none">
<path d="M9760 19089 c-1742 -93 -3417 -697 -4798 -1731 -698 -522 -1290
-1108 -1796 -1778 -64 -85 -125 -164 -134 -175 -42 -50 -328 -487 -419 -640
-1297 -2185 -1594 -4801 -822 -7240 205 -648 554 -1399 917 -1975 200 -316
431 -638 667 -925 612 -747 1349 -1396 2178 -1919 464 -293 1050 -580 1602
-786 1605 -598 3413 -712 5097 -320 1608 375 3067 1188 4248 2370 985 984
1711 2154 2145 3455 206 616 346 1265 409 1900 56 558 60 1167 11 1715 -149
1639 -748 3198 -1729 4498 -448 594 -940 1107 -1501 1567 -1592 1305 -3583
2008 -5645 1993 -157 -1 -350 -5 -430 -9z m1115 -1493 c1158 -110 2190 -444
3160 -1025 754 -451 1423 -1033 1960 -1706 843 -1056 1381 -2308 1560 -3629
50 -375 59 -521 59 -996 1 -465 -8 -621 -55 -975 -85 -650 -268 -1319 -525
-1921 -473 -1112 -1231 -2118 -2144 -2849 -554 -443 -1145 -797 -1775 -1063
-773 -327 -1593 -519 -2435 -571 -176 -11 -717 -11 -890 0 -1477 94 -2844 601
-4030 1495 -650 490 -1199 1073 -1657 1759 -492 738 -825 1490 -1038 2345
-142 572 -201 1030 -212 1650 -15 826 94 1580 342 2364 430 1363 1287 2620
2385 3501 860 690 1861 1187 2879 1431 58 14 151 36 206 49 231 56 698 124
995 145 85 6 173 12 195 14 115 10 863 -3 1020 -18z"/>
<path d="M14080 14732 c-30 -10 -78 -31 -105 -47 -52 -30 -455 -420 -455 -439
1 -6 167 -180 370 -386 332 -336 371 -373 383 -358 8 9 92 103 188 209 96 105
193 219 217 252 107 153 110 358 6 504 -45 64 -225 217 -294 250 -73 36 -225
43 -310 15z"/>
<path d="M7502 13869 c-580 -42 -1036 -284 -1309 -696 -156 -236 -249 -506
-283 -819 -8 -81 -10 -738 -8 -2534 4 -2655 -1 -2458 59 -2695 49 -194 162
-435 275 -585 248 -329 594 -527 1074 -617 89 -16 252 -18 2575 -20 2163 -3
2495 -1 2596 12 543 70 961 362 1184 828 88 183 138 352 176 602 10 61 14 597
16 2305 l2 2225 -449 -453 -450 -454 -2 -1741 -3 -1742 -27 -100 c-15 -55 -49
-143 -74 -194 -39 -79 -62 -110 -133 -181 -123 -123 -238 -178 -421 -200 -117
-14 -4580 -14 -4719 0 -328 34 -548 175 -677 435 -53 108 -80 210 -94 354 -13
143 -13 4461 0 4589 27 251 106 421 264 569 87 81 211 148 341 185 l80 23
1760 3 1760 2 448 448 c246 246 447 450 447 455 0 10 -4264 6 -4408 -4z"/>
<path d="M11129 11856 l-1994 -1996 -45 -98 c-24 -53 -79 -169 -121 -257 -214
-448 -239 -504 -239 -554 0 -111 98 -204 214 -203 42 0 94 19 296 107 135 58
335 144 445 191 l200 85 1995 1989 1995 1989 -195 192 c-107 106 -276 274
-376 372 l-181 179 -1994 -1996z"/>
</g>
</svg>
