<?xml version="1.0" standalone="no"?>
<!DOCTYPE svg PUBLIC "-//W3C//DTD SVG 20010904//EN"
 "http://www.w3.org/TR/2001/REC-SVG-20010904/DTD/svg10.dtd">
<svg version="1.0" xmlns="http://www.w3.org/2000/svg"
 width="2048.000000pt" height="1912.000000pt" viewBox="0 0 2048.000000 1912.000000"
 preserveAspectRatio="xMidYMid meet">
<metadata>
Created by potrace 1.16, written by Peter Selinger 2001-2019
</metadata>
<g transform="translate(0.000000,1912.000000) scale(0.100000,-0.100000)"
fill="#000000" stroke="none">
<path d="M4540 17729 c-846 -52 -1463 -310 -1892 -792 -137 -154 -256 -348
-352 -574 -120 -283 -177 -512 -223 -888 -17 -143 -18 -415 -18 -5915 0 -6129
-2 -5814 46 -6137 32 -216 104 -482 169 -628 10 -22 32 -74 50 -115 65 -149
188 -352 278 -458 254 -299 508 -478 907 -637 230 -93 504 -155 835 -192 158
-17 421 -18 5910 -18 l5745 0 183 23 c324 40 650 118 807 192 11 5 45 19 75
30 97 38 266 129 391 212 95 63 155 113 269 227 81 80 172 180 202 221 98 136
219 354 263 475 10 28 22 55 25 60 16 24 83 234 110 347 35 148 53 256 77 448
17 138 18 433 18 5935 0 5545 -1 5797 -18 5945 -36 305 -108 614 -183 785 -7
17 -27 64 -44 105 -41 99 -126 259 -186 351 -125 190 -356 423 -544 548 -411
272 -892 414 -1529 451 -182 10 -11198 9 -11371 -1z m11298 -1440 c262 -28
474 -101 649 -221 83 -57 211 -187 270 -273 122 -181 199 -422 222 -705 5 -59
8 -2503 7 -5605 -1 -5207 -2 -5506 -19 -5605 -52 -312 -149 -526 -316 -703
-201 -213 -486 -334 -861 -366 -141 -12 -10972 -12 -11110 0 -387 34 -649 145
-858 364 -207 216 -304 476 -332 892 -8 111 -10 1772 -8 5593 3 5040 5 5443
20 5544 38 241 101 423 205 584 49 77 206 236 283 286 167 111 357 179 590
210 89 12 936 14 5633 15 3843 1 5557 -2 5625 -10z"/>
<path d="M9431 14005 c-149 -39 -252 -104 -325 -209 -78 -111 -92 -154 -160
-481 -24 -115 -65 -311 -91 -435 -26 -124 -91 -441 -145 -705 l-96 -480 -535
-5 c-480 -5 -540 -7 -589 -24 -147 -48 -290 -166 -348 -286 -137 -282 -51
-619 188 -740 125 -63 126 -63 595 -68 237 -2 431 -5 433 -6 2 -3 -212 -1054
-268 -1311 -28 -127 -100 -476 -100 -482 0 -2 -225 -3 -499 -3 -559 0 -600 -4
-730 -65 -145 -69 -271 -235 -306 -400 -28 -132 -13 -269 42 -382 35 -72 150
-191 216 -222 102 -49 124 -51 594 -51 243 0 444 -4 447 -8 2 -4 -2 -37 -10
-72 -46 -208 -76 -352 -209 -995 -155 -751 -163 -807 -136 -925 72 -309 366
-480 712 -414 216 41 374 178 448 389 12 33 70 301 131 595 60 294 132 639
160 765 27 127 68 318 90 425 23 107 43 203 46 213 5 16 53 17 830 17 l824 0
-5 -22 c-3 -13 -44 -210 -91 -438 -48 -228 -97 -462 -109 -520 -158 -728 -168
-783 -169 -895 -1 -90 3 -122 22 -177 93 -271 360 -410 679 -354 112 19 175
43 263 100 75 49 122 102 173 196 44 79 62 145 128 460 28 135 62 295 75 355
13 61 79 378 146 705 l123 595 535 5 c488 5 539 7 585 24 95 35 170 81 231
142 191 193 226 503 83 730 -49 77 -101 124 -180 164 -109 55 -152 60 -601 60
-225 0 -408 2 -408 4 0 7 240 1147 265 1261 14 61 45 204 69 318 24 114 45
210 47 212 2 2 236 5 519 7 567 5 565 5 700 71 85 42 197 152 240 237 140 278
61 601 -183 744 -108 64 -128 66 -604 66 -237 0 -434 4 -437 8 -3 5 2 37 10
73 22 93 129 604 240 1144 106 517 114 592 80 710 -73 247 -290 405 -560 405
-107 0 -208 -22 -305 -66 -56 -26 -91 -52 -151 -111 -81 -82 -115 -137 -149
-244 -11 -35 -77 -336 -146 -669 -104 -502 -238 -1135 -260 -1227 l-5 -23
-825 0 -825 0 5 23 c3 12 43 213 90 447 47 234 96 475 109 535 105 493 146
714 146 790 0 153 -48 274 -149 375 -157 156 -370 207 -610 145z m1919 -3349
c0 -6 -103 -500 -135 -646 -33 -152 -126 -598 -181 -865 -26 -126 -59 -286
-73 -355 l-26 -125 -893 -3 c-710 -2 -892 0 -892 10 0 14 73 375 115 568 14
63 84 409 157 768 l131 652 898 0 c495 0 899 -2 899 -4z"/>
</g>
</svg>
