<?xml version="1.0" standalone="no"?>
<!DOCTYPE svg PUBLIC "-//W3C//DTD SVG 20010904//EN"
 "http://www.w3.org/TR/2001/REC-SVG-20010904/DTD/svg10.dtd">
<svg version="1.0" xmlns="http://www.w3.org/2000/svg"
 width="2048.000000pt" height="2048.000000pt" viewBox="0 0 2048.000000 2048.000000"
 preserveAspectRatio="xMidYMid meet">
<metadata>
Created by potrace 1.16, written by Peter Selinger 2001-2019
</metadata>
<g transform="translate(0.000000,2048.000000) scale(0.100000,-0.100000)"
fill="#000000" stroke="none">
<path d="M9755 19089 c-1761 -98 -3434 -706 -4821 -1751 -689 -521 -1275
-1103 -1767 -1758 -73 -96 -138 -181 -144 -188 -7 -7 -79 -113 -161 -235 -238
-357 -377 -598 -572 -987 -925 -1848 -1163 -4020 -665 -6055 280 -1140 792
-2227 1485 -3150 553 -736 1126 -1310 1855 -1855 1162 -870 2556 -1445 4004
-1650 402 -56 687 -79 1111 -87 1399 -26 2767 273 4006 877 419 203 686 356
1070 611 121 81 227 153 235 161 8 7 93 72 189 145 326 245 612 494 920 803
1319 1319 2177 2978 2479 4797 372 2236 -113 4505 -1362 6378 -483 723 -1105
1407 -1787 1964 -274 224 -709 534 -976 695 -257 156 -392 230 -679 374 -1077
540 -2255 847 -3500 912 -220 11 -702 11 -920 -1z m1116 -1493 c690 -65 1273
-195 1900 -422 1237 -447 2399 -1276 3204 -2284 654 -819 1117 -1720 1378
-2680 133 -490 197 -843 244 -1345 22 -239 25 -969 5 -1195 -51 -573 -120
-954 -268 -1478 -327 -1156 -960 -2246 -1819 -3131 -574 -591 -1355 -1145
-2120 -1503 -812 -381 -1625 -601 -2525 -683 -242 -22 -777 -31 -1025 -16
-624 36 -1192 136 -1773 312 -1016 308 -1996 864 -2801 1589 -427 383 -808
824 -1143 1320 -495 732 -833 1482 -1049 2330 -108 420 -165 754 -205 1200
-19 206 -27 867 -14 1070 55 830 230 1596 536 2348 402 989 1047 1923 1814
2627 860 790 1890 1370 2982 1679 527 149 984 231 1478 266 80 6 165 12 190
14 124 9 857 -3 1011 -18z"/>
<path d="M6492 14068 c-253 -29 -437 -196 -492 -445 -19 -86 -20 -156 -20
-3383 0 -3224 1 -3297 20 -3383 62 -280 276 -448 575 -450 109 -1 177 14 273
60 147 69 264 227 291 391 9 49 11 988 9 3422 l-3 3355 -26 66 c-38 97 -76
157 -139 219 -117 115 -299 171 -488 148z"/>
<path d="M11338 13790 c-165 -28 -216 -66 -588 -434 -173 -171 -443 -437 -600
-591 -1262 -1243 -1583 -1558 -1848 -1816 -166 -161 -322 -319 -346 -349 -150
-190 -179 -427 -77 -628 49 -96 -25 -20 946 -967 215 -209 410 -401 435 -426
118 -121 1757 -1717 1798 -1750 62 -52 171 -104 268 -130 91 -24 209 -21 304
7 285 84 441 366 375 679 -28 130 -60 179 -218 328 -169 159 -538 495 -768
697 -90 80 -188 168 -219 196 -30 28 -125 114 -212 190 -657 583 -1056 939
-1054 941 2 2 342 -18 757 -43 l754 -47 2080 0 c1948 0 2084 1 2144 17 290 79
453 328 419 642 -21 195 -148 371 -324 450 -127 56 -26 54 -2221 54 l-2018 -1
-790 -48 c-434 -26 -791 -47 -793 -46 -1 1 212 193 474 426 262 233 552 492
645 574 92 83 277 247 411 367 134 119 381 353 550 520 280 275 311 309 338
369 79 171 79 373 -1 530 -44 88 -145 186 -241 233 -112 56 -256 77 -380 56z"/>
</g>
</svg>
