<?xml version="1.0" standalone="no"?>
<!DOCTYPE svg PUBLIC "-//W3C//DTD SVG 20010904//EN"
 "http://www.w3.org/TR/2001/REC-SVG-20010904/DTD/svg10.dtd">
<svg version="1.0" xmlns="http://www.w3.org/2000/svg"
 width="2048.000000pt" height="2048.000000pt" viewBox="0 0 2048.000000 2048.000000"
 preserveAspectRatio="xMidYMid meet">
<metadata>
Created by potrace 1.16, written by Peter Selinger 2001-2019
</metadata>
<g transform="translate(0.000000,2048.000000) scale(0.100000,-0.100000)"
fill="#000000" stroke="none">
<path d="M9865 19093 c-27 -1 -129 -7 -225 -13 -796 -48 -1667 -230 -2425
-507 -521 -190 -1061 -446 -1510 -716 -981 -589 -1857 -1374 -2539 -2277 -64
-85 -125 -164 -134 -175 -42 -50 -328 -487 -419 -640 -1155 -1946 -1521 -4237
-1032 -6459 158 -718 394 -1377 734 -2051 260 -514 481 -873 810 -1309 281
-375 524 -655 845 -976 913 -914 1980 -1601 3185 -2050 962 -359 2028 -550
3070 -550 2663 -1 5134 1164 6847 3227 344 413 711 953 945 1388 628 1165 961
2306 1065 3645 17 216 17 1002 0 1210 -66 821 -200 1496 -437 2205 -385 1152
-978 2168 -1814 3110 -148 167 -509 528 -676 676 -523 465 -1113 884 -1660
1181 -1200 652 -2456 1006 -3820 1078 -171 9 -682 11 -810 3z m1015 -1497
c476 -45 800 -103 1271 -226 1074 -282 2124 -845 2979 -1596 809 -713 1466
-1624 1899 -2636 308 -720 490 -1447 568 -2268 22 -234 25 -960 5 -1205 -78
-953 -324 -1849 -737 -2690 -361 -735 -831 -1392 -1405 -1965 -551 -551 -1168
-999 -1875 -1360 -896 -457 -1876 -723 -2900 -789 -195 -12 -678 -13 -870 -1
-519 32 -910 93 -1390 215 -847 215 -1576 539 -2310 1028 -909 606 -1660 1399
-2227 2352 -552 928 -895 1966 -1002 3030 -53 527 -46 1163 20 1680 184 1462
811 2848 1795 3970 136 155 433 455 580 586 454 405 943 747 1479 1035 876
470 1925 775 2900 844 85 6 173 12 195 14 105 10 871 -4 1025 -18z"/>
<path d="M10255 15175 c-27 -8 -83 -31 -125 -51 -72 -36 -109 -71 -981 -943
-800 -799 -910 -913 -938 -968 -43 -86 -61 -163 -61 -260 0 -106 14 -171 55
-258 32 -66 81 -117 952 -986 l918 -915 80 -37 c214 -97 443 -57 607 107 178
178 208 478 70 693 -17 26 -140 156 -274 288 -134 132 -332 327 -440 434 -109
107 -195 198 -193 202 8 11 353 11 500 -1 364 -29 672 -112 982 -264 242 -119
407 -229 603 -402 405 -358 692 -839 818 -1369 50 -209 63 -321 69 -570 6
-254 -7 -415 -52 -627 -234 -1130 -1138 -1959 -2292 -2104 -153 -19 -463 -21
-613 -4 -515 57 -1003 260 -1410 586 -239 192 -493 495 -642 769 -212 390
-314 764 -337 1241 -10 201 -19 241 -76 354 -16 32 -60 87 -104 131 -89 88
-179 138 -298 165 -257 57 -539 -80 -658 -321 -55 -113 -68 -192 -61 -374 31
-768 251 -1452 667 -2066 593 -878 1518 -1469 2579 -1650 420 -72 996 -63
1365 21 238 54 333 80 471 125 647 212 1231 593 1673 1093 546 618 864 1332
968 2176 22 181 25 678 5 840 -61 491 -167 862 -363 1268 -199 414 -426 731
-753 1057 -247 246 -458 412 -732 575 -458 273 -945 439 -1469 500 -55 7 -214
15 -354 19 l-254 6 317 309 c174 171 333 334 353 364 109 165 121 392 31 574
-40 79 -142 183 -224 226 -112 58 -266 78 -379 47z"/>
</g>
</svg>
