<?xml version="1.0" standalone="no"?>
<!DOCTYPE svg PUBLIC "-//W3C//DTD SVG 20010904//EN"
 "http://www.w3.org/TR/2001/REC-SVG-20010904/DTD/svg10.dtd">
<svg version="1.0" xmlns="http://www.w3.org/2000/svg"
 width="2048.000000pt" height="2048.000000pt" viewBox="0 0 2048.000000 2048.000000"
 preserveAspectRatio="xMidYMid meet">
<metadata>
Created by potrace 1.16, written by Peter Selinger 2001-2019
</metadata>
<g transform="translate(0.000000,2048.000000) scale(0.100000,-0.100000)"
fill="#000000" stroke="none">
<path d="M9770 19090 c-1383 -84 -2579 -423 -3785 -1073 -316 -170 -725 -434
-1040 -671 -383 -290 -665 -534 -985 -855 -910 -914 -1593 -1976 -2040 -3176
-514 -1381 -670 -2889 -454 -4385 175 -1209 625 -2417 1284 -3445 702 -1096
1638 -2033 2735 -2735 356 -228 900 -516 1275 -673 980 -413 1955 -637 3025
-697 229 -12 883 -4 1115 15 1186 94 2248 386 3280 901 734 367 1337 778 1980
1348 680 604 1372 1466 1814 2261 771 1386 1151 2906 1123 4485 -6 345 -15
489 -48 795 -169 1584 -754 3074 -1704 4340 -288 384 -514 644 -845 975 -1138
1138 -2526 1932 -4065 2325 -485 124 -984 206 -1520 250 -225 19 -931 28
-1145 15z m1110 -1494 c652 -64 1128 -164 1730 -366 904 -302 1786 -811 2514
-1450 1073 -943 1871 -2229 2240 -3610 141 -528 208 -927 245 -1465 14 -199 6
-919 -13 -1115 -46 -475 -104 -803 -222 -1255 -366 -1391 -1167 -2692 -2239
-3634 -796 -700 -1750 -1233 -2744 -1532 -693 -209 -1303 -304 -2031 -316
-442 -7 -763 11 -1170 68 -479 67 -1070 217 -1529 389 -1198 447 -2274 1203
-3075 2160 -625 747 -1105 1620 -1392 2527 -173 550 -273 1064 -326 1673 -17
194 -17 938 0 1130 43 490 101 837 211 1266 155 599 358 1125 636 1644 514
961 1210 1778 2060 2417 1151 865 2491 1369 3930 1478 247 18 949 13 1175 -9z"/>
<path d="M6325 12179 c-238 -36 -438 -195 -519 -411 -30 -78 -49 -212 -41
-276 29 -220 86 -329 277 -528 231 -241 1487 -1571 2203 -2334 142 -151 383
-405 535 -565 152 -159 360 -378 462 -486 222 -233 303 -309 400 -377 331
-228 690 -261 1023 -95 195 98 326 217 836 758 139 149 301 320 359 380 116
121 180 190 471 501 375 401 1337 1422 1759 1867 234 247 444 474 468 504 154
199 189 486 85 696 -108 218 -352 367 -599 367 -136 0 -249 -35 -358 -109 -39
-27 -231 -226 -516 -536 -100 -108 -694 -740 -819 -870 -48 -49 -165 -173
-261 -275 -96 -102 -184 -194 -195 -205 -12 -11 -62 -63 -110 -115 -49 -52
-139 -147 -199 -210 -183 -191 -452 -476 -841 -890 -38 -41 -169 -180 -289
-309 l-220 -233 -75 78 c-42 44 -171 180 -286 304 -372 398 -847 901 -990
1050 -56 58 -141 148 -190 200 -48 52 -95 102 -104 110 -9 8 -97 101 -196 205
-99 105 -214 226 -256 270 -41 44 -158 168 -259 275 -101 107 -254 269 -340
360 -86 91 -185 197 -220 235 -358 391 -519 552 -595 592 -123 64 -274 92
-400 72z"/>
</g>
</svg>
