<?xml version="1.0" standalone="no"?>
<!DOCTYPE svg PUBLIC "-//W3C//DTD SVG 20010904//EN"
 "http://www.w3.org/TR/2001/REC-SVG-20010904/DTD/svg10.dtd">
<svg version="1.0" xmlns="http://www.w3.org/2000/svg"
 width="2048.000000pt" height="2048.000000pt" viewBox="0 0 2048.000000 2048.000000"
 preserveAspectRatio="xMidYMid meet">
<metadata>
Created by potrace 1.16, written by Peter Selinger 2001-2019
</metadata>
<g transform="translate(0.000000,2048.000000) scale(0.100000,-0.100000)"
fill="#000000" stroke="none">
<path d="M9780 19089 c-1071 -59 -2071 -291 -3050 -708 -295 -126 -898 -437
-1064 -549 -26 -18 -49 -32 -51 -32 -22 0 -453 -293 -670 -456 -923 -693
-1653 -1490 -2272 -2484 -156 -250 -237 -398 -403 -735 -528 -1073 -823 -2217
-890 -3455 -12 -231 -4 -847 14 -1081 81 -1036 299 -1926 703 -2874 133 -310
398 -821 562 -1083 402 -641 808 -1156 1296 -1647 460 -462 999 -897 1510
-1220 77 -48 163 -103 190 -120 402 -257 1091 -582 1650 -779 1272 -447 2694
-597 4050 -425 2207 280 4215 1375 5661 3089 260 309 578 745 749 1030 22 36
49 79 61 95 85 119 407 738 524 1005 328 753 548 1523 659 2305 139 975 116
1975 -65 2935 -198 1045 -608 2100 -1164 2990 -366 587 -791 1121 -1280 1610
-912 913 -1983 1602 -3185 2050 -762 284 -1554 457 -2415 525 -228 19 -892 27
-1120 14z m1060 -1488 c1026 -89 2019 -383 2900 -860 1087 -589 1972 -1395
2644 -2409 729 -1102 1139 -2314 1226 -3632 13 -198 13 -719 0 -920 -36 -568
-124 -1070 -281 -1613 -347 -1202 -1035 -2351 -1925 -3217 -1196 -1163 -2777
-1904 -4409 -2064 -82 -8 -172 -18 -200 -21 -114 -13 -920 -14 -1090 0 -783
61 -1500 225 -2195 502 -1267 505 -2367 1341 -3171 2413 -874 1163 -1378 2522
-1478 3980 -11 158 -11 786 0 945 104 1551 665 2982 1644 4200 862 1072 2105
1923 3435 2354 703 227 1437 353 2105 360 104 1 190 3 191 4 6 5 485 -12 604
-22z"/>
<path d="M10071 15209 c-605 -54 -1145 -391 -1459 -911 -138 -227 -225 -499
-239 -745 l-6 -103 -422 0 c-233 0 -469 -5 -526 -10 -746 -73 -1129 -459
-1189 -1194 -14 -176 -14 -4870 0 -5056 49 -634 342 -1011 895 -1150 250 -63
83 -60 3174 -60 2800 0 2814 0 2940 21 412 68 688 260 852 594 66 136 110 282
136 453 17 110 18 278 18 2677 l0 2560 -22 120 c-31 170 -66 285 -122 400
-183 379 -518 582 -1050 635 -57 5 -291 10 -521 10 -471 0 -430 -8 -430 85 0
159 -81 455 -175 641 -280 550 -802 929 -1406 1018 -130 19 -325 26 -448 15z
m440 -813 c442 -101 702 -405 754 -883 l7 -63 -1037 0 -1036 0 7 63 c16 162
52 286 121 417 132 254 363 416 678 475 102 19 408 13 506 -9z"/>
</g>
</svg>
