<?xml version="1.0" standalone="no"?>
<!DOCTYPE svg PUBLIC "-//W3C//DTD SVG 20010904//EN"
 "http://www.w3.org/TR/2001/REC-SVG-20010904/DTD/svg10.dtd">
<svg version="1.0" xmlns="http://www.w3.org/2000/svg"
 width="2048.000000pt" height="1912.000000pt" viewBox="0 0 2048.000000 1912.000000"
 preserveAspectRatio="xMidYMid meet">
<metadata>
Created by potrace 1.16, written by Peter Selinger 2001-2019
</metadata>
<g transform="translate(0.000000,1912.000000) scale(0.100000,-0.100000)"
fill="#000000" stroke="none">
<path d="M4556 17729 c-853 -51 -1466 -303 -1896 -779 -177 -195 -311 -432
-435 -765 -61 -164 -118 -433 -152 -710 -17 -143 -18 -412 -18 -5915 0 -6118
-2 -5816 45 -6133 32 -212 113 -515 170 -632 5 -11 27 -60 48 -110 81 -185
207 -384 333 -522 200 -220 363 -345 618 -473 365 -184 744 -277 1261 -310
126 -8 1767 -10 5830 -8 l5655 4 165 21 c330 44 652 121 805 193 11 5 45 19
75 30 97 38 266 129 392 212 96 64 155 113 269 227 151 151 219 235 306 381
60 101 133 246 158 315 10 28 22 55 25 60 12 18 78 218 99 300 49 198 81 404
101 654 14 187 14 11374 0 11562 -29 379 -105 739 -201 955 -10 22 -28 65 -39
95 -38 96 -120 246 -203 372 -65 99 -111 152 -241 283 -131 130 -184 176 -283
241 -373 246 -762 374 -1338 440 -140 16 -515 17 -5785 19 -3099 1 -5693 -2
-5764 -7z m11419 -1456 c122 -25 291 -81 377 -124 200 -101 377 -279 480 -484
75 -148 129 -361 147 -575 5 -59 8 -2505 7 -5605 -1 -5208 -2 -5506 -19 -5605
-40 -235 -108 -424 -210 -575 -52 -77 -205 -230 -280 -279 -186 -121 -414
-192 -700 -215 -175 -15 -10889 -15 -11073 -1 -404 32 -664 139 -880 362 -205
212 -306 479 -335 888 -7 97 -9 1938 -7 5590 3 5050 5 5453 20 5554 51 327
143 534 317 718 106 112 180 168 296 225 164 81 297 117 540 146 17 2 2548 3
5625 3 l5595 -2 100 -21z"/>
<path d="M7900 13473 c-463 -36 -875 -177 -1255 -431 -175 -116 -360 -284
-523 -475 -112 -130 -247 -351 -347 -568 -82 -176 -116 -274 -164 -472 -73
-298 -97 -525 -88 -847 14 -537 132 -1011 396 -1590 115 -252 226 -447 435
-770 102 -158 115 -176 328 -456 310 -408 905 -1033 1339 -1405 47 -41 144
-123 214 -184 70 -60 185 -154 254 -209 69 -54 166 -130 215 -170 90 -71 160
-123 427 -314 258 -185 393 -276 562 -382 92 -58 186 -117 210 -133 97 -63
285 -148 340 -154 93 -9 237 52 397 170 36 26 137 96 225 154 262 173 735 515
885 638 41 34 138 110 215 170 77 60 201 162 275 226 74 64 173 149 220 189
416 355 1049 1014 1327 1383 42 56 105 137 140 180 114 143 372 542 506 782
85 153 231 477 313 693 93 246 164 536 205 838 26 190 32 624 11 784 -51 392
-125 652 -264 937 -118 241 -243 430 -397 598 -231 252 -448 415 -746 560
-316 155 -582 226 -950 256 -433 35 -854 -39 -1197 -211 -267 -133 -428 -245
-627 -436 -177 -170 -380 -427 -491 -622 -19 -34 -38 -62 -42 -62 -4 0 -19 21
-32 48 -69 133 -232 359 -378 522 -320 356 -754 613 -1211 714 -205 46 -506
66 -727 49z"/>
</g>
</svg>
