<?xml version="1.0" standalone="no"?>
<!DOCTYPE svg PUBLIC "-//W3C//DTD SVG 20010904//EN"
 "http://www.w3.org/TR/2001/REC-SVG-20010904/DTD/svg10.dtd">
<svg version="1.0" xmlns="http://www.w3.org/2000/svg"
 width="2048.000000pt" height="2048.000000pt" viewBox="0 0 2048.000000 2048.000000"
 preserveAspectRatio="xMidYMid meet">
<metadata>
Created by potrace 1.16, written by Peter Selinger 2001-2019
</metadata>
<g transform="translate(0.000000,2048.000000) scale(0.100000,-0.100000)"
fill="#000000" stroke="none">
<path d="M9785 19089 c-1238 -65 -2405 -371 -3495 -916 -512 -255 -905 -498
-1345 -828 -730 -550 -1310 -1134 -1862 -1875 -420 -565 -798 -1242 -1068
-1910 -525 -1300 -733 -2706 -609 -4110 182 -2077 1081 -3997 2564 -5480 463
-463 993 -890 1510 -1215 69 -43 148 -93 175 -111 264 -169 777 -429 1165
-591 1979 -826 4206 -905 6243 -222 626 210 1284 520 1832 862 836 523 1585
1181 2200 1932 122 149 361 466 457 605 110 159 296 456 395 630 123 216 352
678 448 905 585 1381 809 2867 659 4375 -157 1583 -757 3122 -1710 4386 -290
385 -526 657 -853 984 -499 498 -1039 923 -1662 1309 -258 160 -754 417 -1062
550 -1134 491 -2333 736 -3567 729 -146 0 -332 -5 -415 -9z m930 -1480 c563
-39 1062 -128 1595 -283 1029 -299 1987 -825 2815 -1547 174 -152 512 -490
670 -672 629 -723 1125 -1582 1429 -2474 215 -634 338 -1242 385 -1913 11
-162 11 -810 0 -965 -50 -693 -168 -1279 -385 -1918 -312 -919 -845 -1825
-1499 -2552 -914 -1016 -2148 -1784 -3460 -2153 -676 -190 -1206 -268 -1901
-279 -848 -14 -1553 87 -2344 334 -1245 388 -2404 1131 -3270 2094 -745 828
-1313 1850 -1611 2899 -143 504 -214 881 -265 1410 -19 195 -27 927 -13 1120
43 598 139 1124 307 1680 443 1462 1350 2776 2554 3697 1157 887 2527 1410
3971 1517 195 15 840 18 1022 5z"/>
<path d="M7520 13388 c-97 -13 -249 -69 -342 -124 -100 -60 -249 -199 -315
-296 -102 -148 -172 -316 -210 -504 -24 -122 -24 -403 0 -526 110 -553 514
-928 1002 -928 252 0 488 101 676 289 96 96 153 178 222 316 96 192 131 349
131 590 0 336 -92 598 -298 847 -206 249 -546 381 -866 336z"/>
<path d="M12677 13389 c-82 -12 -180 -43 -264 -83 -312 -150 -540 -471 -610
-859 -23 -127 -22 -370 2 -497 73 -390 305 -710 619 -856 119 -55 207 -75 346
-81 211 -8 385 41 559 158 216 145 367 356 454 634 41 131 52 218 52 400 0
185 -15 285 -62 430 -165 508 -623 823 -1096 754z"/>
<path d="M7370 7901 c-119 -39 -174 -120 -172 -251 4 -300 345 -750 824 -1086
510 -358 1108 -580 1778 -660 157 -19 585 -25 740 -11 338 30 636 92 955 199
673 225 1279 651 1594 1120 99 147 171 335 171 443 0 158 -117 266 -273 252
-48 -4 -82 -17 -156 -56 -222 -118 -537 -273 -681 -334 -679 -288 -1437 -413
-2225 -367 -756 44 -1373 219 -2085 593 -314 165 -302 159 -377 163 -37 2 -79
0 -93 -5z"/>
</g>
</svg>
