<?xml version="1.0" standalone="no"?>
<!DOCTYPE svg PUBLIC "-//W3C//DTD SVG 20010904//EN"
 "http://www.w3.org/TR/2001/REC-SVG-20010904/DTD/svg10.dtd">
<svg version="1.0" xmlns="http://www.w3.org/2000/svg"
 width="2048.000000pt" height="1402.000000pt" viewBox="0 0 2048.000000 1402.000000"
 preserveAspectRatio="xMidYMid meet">
<metadata>
Created by potrace 1.16, written by Peter Selinger 2001-2019
</metadata>
<g transform="translate(0.000000,1402.000000) scale(0.100000,-0.100000)"
fill="#000000" stroke="none">
<path d="M3460 12373 c-86 -7 -276 -34 -368 -53 -337 -70 -671 -236 -890 -444
-339 -320 -529 -794 -572 -1431 -8 -113 -10 -1234 -8 -3820 l4 -3660 21 -145
c12 -80 31 -190 43 -245 125 -597 434 -1026 905 -1255 290 -141 536 -203 910
-230 107 -8 2053 -10 6830 -8 6107 3 6690 5 6797 20 245 34 406 76 618 160
316 125 592 354 770 638 196 312 308 722 329 1205 11 230 11 7044 1 7265 -19
391 -99 744 -233 1020 -260 536 -718 848 -1414 962 l-138 23 -6780 1 c-3729 0
-6800 -1 -6825 -3z m13456 -1158 c121 -18 226 -51 327 -101 252 -126 398 -326
476 -649 l26 -110 0 -3615 0 -3615 -23 -105 c-103 -465 -401 -731 -873 -780
-141 -14 -13086 -14 -13228 0 -309 32 -552 161 -703 375 -81 114 -144 278
-175 455 -17 100 -18 262 -18 3665 0 3403 1 3565 18 3665 53 302 181 522 382
655 133 88 284 144 440 164 39 5 2966 9 6659 10 5886 1 6599 -1 6692 -14z"/>
<path d="M4225 9654 c-43 -22 -64 -44 -89 -89 -20 -39 -21 -52 -24 -490 -4
-503 -1 -529 54 -593 56 -66 90 -72 403 -72 152 0 282 5 303 10 50 14 97 55
119 105 17 37 19 76 19 510 0 293 -4 484 -10 507 -14 48 -55 97 -97 114 -51
22 -636 20 -678 -2z"/>
<path d="M5719 9647 c-32 -17 -50 -37 -69 -72 l-25 -49 0 -486 0 -485 25 -43
c15 -27 42 -54 70 -70 l45 -27 279 -3 c188 -2 295 0 325 8 62 16 109 54 135
109 20 45 21 58 21 511 0 490 -1 507 -47 565 -11 14 -37 34 -59 45 -36 19 -59
20 -347 20 -304 0 -310 0 -353 -23z"/>
<path d="M7235 9656 c-44 -20 -81 -64 -99 -119 -14 -41 -16 -111 -16 -488 0
-284 4 -455 11 -483 13 -51 57 -109 102 -134 28 -15 70 -17 318 -20 310 -4
347 1 400 45 69 58 69 55 69 578 0 293 -4 484 -10 507 -14 48 -55 97 -97 114
-46 20 -634 19 -678 0z"/>
<path d="M8732 9653 c-41 -20 -76 -66 -92 -118 -8 -28 -10 -177 -8 -517 l3
-476 30 -43 c58 -83 62 -84 383 -87 333 -4 368 2 426 69 55 65 58 91 54 594
-3 444 -3 451 -25 492 -13 23 -39 54 -60 70 l-36 28 -321 2 c-282 3 -325 1
-354 -14z"/>
<path d="M10235 9656 c-17 -7 -43 -27 -57 -44 -52 -62 -53 -72 -53 -567 0
-494 1 -505 52 -566 53 -62 61 -64 368 -67 322 -4 365 1 418 53 62 60 62 61
62 585 l0 475 -23 48 c-17 33 -37 55 -66 72 l-43 25 -314 0 c-238 -1 -321 -4
-344 -14z"/>
<path d="M11729 9647 c-32 -17 -50 -37 -69 -72 l-25 -49 0 -486 0 -485 25 -43
c15 -27 42 -54 70 -70 l45 -27 305 0 305 0 47 27 c35 21 53 41 73 81 l26 54
-3 479 -3 479 -27 47 c-19 32 -41 52 -71 67 -41 20 -59 21 -349 21 -300 0
-306 0 -349 -23z"/>
<path d="M15861 9230 c-102 -37 52 110 -1456 -1385 -787 -780 -827 -824 -875
-952 -58 -154 -28 -318 85 -463 64 -83 2109 -2120 2159 -2151 162 -101 388
-73 480 59 14 20 35 60 48 87 l23 50 0 2260 0 2260 -29 62 c-36 79 -103 143
-179 172 -75 27 -181 28 -256 1z"/>
<path d="M4225 7354 c-43 -22 -64 -44 -89 -89 -20 -39 -21 -52 -24 -498 -2
-293 1 -471 8 -496 12 -47 46 -97 83 -125 27 -20 42 -21 350 -24 366 -3 367
-3 422 76 l30 44 3 480 c2 414 1 487 -13 528 -17 51 -54 93 -98 109 -18 7
-143 11 -335 11 -259 0 -312 -3 -337 -16z"/>
<path d="M5734 7356 c-44 -20 -82 -63 -99 -117 -14 -40 -15 -115 -13 -515 3
-469 3 -469 26 -509 13 -22 39 -52 59 -65 l36 -25 318 -3 c305 -3 320 -2 359
18 54 28 89 83 101 163 6 40 9 233 7 489 -3 380 -5 427 -21 463 -23 51 -43 73
-89 96 -34 17 -62 19 -345 19 -236 -1 -315 -4 -339 -14z"/>
<path d="M7235 7354 c-43 -22 -64 -44 -89 -89 -20 -39 -21 -52 -24 -498 -2
-293 1 -471 8 -496 12 -47 46 -97 83 -125 27 -20 42 -21 350 -24 366 -3 367
-3 422 76 l30 44 3 480 c2 414 0 488 -13 528 -17 51 -54 93 -98 109 -18 7
-143 11 -335 11 -259 0 -312 -3 -337 -16z"/>
<path d="M8750 7363 c-40 -16 -75 -51 -97 -99 l-24 -52 3 -479 c3 -535 2 -524
76 -581 l35 -27 333 0 c322 0 333 1 361 21 37 28 71 78 83 125 7 25 10 203 8
496 -3 453 -3 459 -25 500 -13 23 -39 54 -60 70 l-36 28 -321 2 c-177 1 -328
-1 -336 -4z"/>
<path d="M10235 7356 c-39 -17 -70 -51 -92 -101 -16 -36 -18 -83 -21 -447 -4
-466 2 -551 45 -612 52 -75 57 -76 411 -76 373 0 365 -2 425 105 22 40 22 42
22 520 l0 480 -28 51 c-19 33 -42 59 -67 73 -36 20 -49 21 -351 21 -239 -1
-321 -4 -344 -14z"/>
<path d="M11744 7356 c-46 -20 -83 -65 -99 -120 -22 -74 -22 -909 0 -983 18
-60 76 -119 127 -128 18 -3 168 -5 334 -3 l301 3 36 25 c22 14 48 46 62 74
l25 50 0 470 c0 438 -2 474 -19 511 -24 51 -55 83 -97 101 -48 20 -624 20
-670 0z"/>
<path d="M4275 5073 c-46 -6 -107 -54 -135 -103 l-25 -45 -3 -459 c-3 -501 0
-531 54 -590 57 -60 60 -61 399 -61 274 0 314 2 341 17 44 24 81 72 94 118 7
26 10 203 8 519 l-3 479 -30 43 c-59 83 -61 84 -385 85 -157 1 -298 0 -315 -3z"/>
<path d="M5775 5071 c-68 -17 -127 -74 -145 -141 -7 -27 -10 -195 -8 -507 3
-462 3 -469 25 -510 28 -52 67 -80 129 -93 33 -7 868 -10 2585 -8 l2535 3 41
27 c26 17 49 45 64 75 l24 48 0 480 c0 449 -1 482 -19 515 -24 46 -54 78 -91
98 -28 16 -227 17 -2570 19 -1397 0 -2553 -2 -2570 -6z"/>
<path d="M11805 5075 c-5 -2 -22 -6 -38 -9 -44 -10 -104 -71 -122 -126 -14
-42 -16 -108 -13 -516 3 -463 3 -470 25 -511 27 -50 66 -79 124 -92 57 -14
541 -14 598 0 63 14 100 44 127 103 l24 51 0 468 c0 510 0 509 -58 570 -58 61
-61 62 -372 64 -157 1 -289 0 -295 -2z"/>
</g>
</svg>
