<?xml version="1.0" standalone="no"?>
<!DOCTYPE svg PUBLIC "-//W3C//DTD SVG 20010904//EN"
 "http://www.w3.org/TR/2001/REC-SVG-20010904/DTD/svg10.dtd">
<svg version="1.0" xmlns="http://www.w3.org/2000/svg"
 width="2048.000000pt" height="2048.000000pt" viewBox="0 0 2048.000000 2048.000000"
 preserveAspectRatio="xMidYMid meet">
<metadata>
Created by potrace 1.16, written by Peter Selinger 2001-2019
</metadata>
<g transform="translate(0.000000,2048.000000) scale(0.100000,-0.100000)"
fill="#000000" stroke="none">
<path d="M9770 19090 c-1383 -84 -2579 -423 -3785 -1073 -320 -172 -709 -424
-1040 -672 -372 -279 -648 -518 -966 -835 -922 -920 -1608 -1985 -2059 -3195
-767 -2059 -729 -4396 105 -6430 140 -343 353 -776 532 -1085 381 -656 862
-1280 1413 -1830 464 -464 967 -869 1515 -1220 477 -306 1073 -605 1615 -810
1729 -654 3664 -748 5449 -264 1504 407 2840 1183 3951 2294 1187 1185 2002
2650 2375 4269 100 434 165 874 207 1401 17 209 17 986 0 1200 -63 804 -199
1493 -437 2205 -383 1147 -979 2169 -1814 3110 -148 167 -509 528 -676 676
-521 463 -1115 885 -1660 1181 -1129 613 -2285 957 -3580 1063 -225 19 -931
28 -1145 15z m1110 -1494 c316 -31 660 -81 860 -126 356 -80 549 -133 859
-236 1152 -383 2263 -1103 3070 -1988 1090 -1195 1754 -2673 1916 -4261 29
-283 34 -411 30 -820 -3 -406 -12 -563 -51 -865 -120 -948 -438 -1899 -912
-2725 -348 -607 -712 -1086 -1192 -1565 -470 -472 -960 -844 -1565 -1192 -879
-506 -1892 -830 -2915 -933 -471 -47 -1018 -47 -1490 0 -733 73 -1479 266
-2165 560 -1009 432 -1923 1092 -2637 1905 -423 482 -807 1061 -1092 1645
-435 893 -677 1823 -737 2840 -13 219 -7 790 10 985 51 568 143 1051 299 1570
383 1267 1133 2450 2113 3330 785 707 1738 1250 2739 1563 554 174 1102 278
1690 322 243 18 947 13 1170 -9z"/>
<path d="M6998 15049 c-203 -21 -423 -74 -575 -138 -182 -75 -409 -227 -534
-357 -192 -200 -339 -470 -408 -750 -62 -248 -64 -273 -68 -946 -4 -543 -3
-624 12 -680 47 -185 218 -328 408 -342 77 -5 186 17 250 51 80 43 171 139
209 219 38 80 36 30 41 789 3 393 7 484 21 554 62 304 227 514 481 612 179 70
195 71 866 78 l605 6 76 37 c94 47 187 141 231 236 42 89 49 218 19 318 -38
126 -149 243 -280 296 l-57 23 -610 1 c-335 1 -645 -2 -687 -7z"/>
<path d="M12157 15049 c-155 -37 -295 -173 -341 -328 -60 -205 53 -441 262
-543 l67 -33 610 -6 610 -6 110 -27 c302 -72 504 -249 594 -521 52 -158 54
-179 60 -816 l6 -595 38 -76 c88 -180 285 -285 478 -258 162 23 310 138 372
290 l22 55 0 650 c0 707 0 708 -61 954 -134 540 -500 953 -1014 1144 -110 41
-262 80 -405 104 -85 14 -196 17 -735 19 -367 2 -651 -1 -673 -7z"/>
<path d="M5745 8646 c-157 -50 -292 -200 -325 -361 -8 -39 -10 -232 -7 -663 4
-663 7 -706 67 -939 166 -642 641 -1084 1300 -1212 199 -38 300 -42 925 -39
l600 3 75 36 c90 44 142 87 194 164 55 79 75 144 76 240 0 135 -32 219 -119
316 -62 69 -131 115 -212 140 -56 18 -99 19 -592 19 -662 0 -758 10 -942 99
-233 112 -361 285 -427 576 -18 82 -21 133 -24 575 -6 741 -4 693 -42 774 -86
182 -244 287 -431 285 -42 0 -94 -6 -116 -13z"/>
<path d="M14477 8649 c-61 -14 -128 -54 -194 -114 -49 -44 -72 -76 -105 -142
l-43 -86 -6 -601 c-5 -517 -9 -611 -23 -676 -46 -199 -104 -310 -225 -430
-101 -100 -167 -141 -299 -186 -163 -56 -179 -57 -827 -63 l-600 -6 -79 -38
c-168 -80 -276 -248 -276 -427 0 -168 105 -327 268 -408 l76 -37 600 -3 c390
-2 640 1 711 8 648 65 1136 381 1398 905 83 167 126 302 168 525 21 108 22
151 26 740 4 460 2 640 -7 680 -34 157 -169 304 -323 352 -63 19 -174 23 -240
7z"/>
</g>
</svg>
