<?xml version="1.0" standalone="no"?>
<!DOCTYPE svg PUBLIC "-//W3C//DTD SVG 20010904//EN"
 "http://www.w3.org/TR/2001/REC-SVG-20010904/DTD/svg10.dtd">
<svg version="1.0" xmlns="http://www.w3.org/2000/svg"
 width="2048.000000pt" height="2048.000000pt" viewBox="0 0 2048.000000 2048.000000"
 preserveAspectRatio="xMidYMid meet">
<metadata>
Created by potrace 1.16, written by Peter Selinger 2001-2019
</metadata>
<g transform="translate(0.000000,2048.000000) scale(0.100000,-0.100000)"
fill="#000000" stroke="none">
<path d="M9775 19089 c-1276 -69 -2461 -389 -3590 -968 -545 -280 -983 -565
-1485 -966 -858 -686 -1603 -1552 -2155 -2505 -194 -334 -449 -871 -597 -1260
-558 -1456 -715 -3074 -452 -4645 149 -893 434 -1746 858 -2570 101 -195 281
-517 307 -549 5 -6 55 -83 110 -171 315 -499 737 -1022 1189 -1475 684 -686
1432 -1229 2285 -1660 994 -502 2021 -800 3135 -909 293 -29 461 -36 865 -35
618 1 1023 36 1595 140 2084 378 3978 1512 5315 3184 425 531 717 986 1013
1580 434 868 713 1764 846 2715 62 448 80 725 80 1240 0 525 -18 800 -84 1267
-208 1457 -777 2838 -1652 4006 -284 380 -533 668 -858 992 -1071 1072 -2371
1842 -3805 2255 -645 185 -1309 296 -2005 334 -189 11 -724 11 -915 0z m935
-1480 c910 -62 1758 -275 2578 -646 947 -428 1820 -1072 2491 -1838 1014
-1158 1650 -2612 1805 -4125 58 -566 45 -1269 -34 -1813 -27 -184 -66 -401
-90 -502 -10 -44 -33 -138 -50 -210 -132 -557 -371 -1183 -646 -1700 -585
-1095 -1379 -1978 -2389 -2659 -86 -58 -160 -106 -164 -106 -4 0 -24 78 -44
173 -20 94 -138 649 -262 1232 -124 583 -244 1143 -265 1245 -22 102 -94 439
-160 750 -66 311 -168 788 -226 1060 -142 673 -150 710 -180 787 -67 180 -190
342 -337 441 -112 78 -294 142 -401 142 -28 0 -56 4 -63 8 -12 7 -182 510
-1109 3272 -200 597 -381 1119 -401 1160 -52 104 -165 216 -265 263 -96 45
-153 58 -259 58 -169 0 -288 -50 -409 -171 -48 -48 -88 -99 -109 -140 -19 -36
-362 -1049 -765 -2255 l-732 -2190 -65 -3 c-145 -7 -323 -73 -446 -166 -130
-98 -246 -252 -307 -408 -25 -63 -47 -156 -111 -453 -22 -105 -441 -2080 -575
-2710 -444 -2095 -444 -2091 -451 -2096 -4 -2 -78 43 -165 101 -595 395 -1174
924 -1609 1470 -750 942 -1235 1960 -1490 3127 -54 247 -110 639 -137 953 -17
206 -17 953 0 1150 42 474 95 798 198 1203 146 582 323 1059 579 1562 364 716
813 1334 1369 1890 870 869 1969 1519 3143 1860 539 157 1043 246 1603 284
155 11 795 11 950 0z m1447 -9372 c56 -265 238 -1119 403 -1897 166 -778 312
-1467 325 -1530 13 -63 74 -349 135 -635 61 -286 120 -564 131 -618 12 -54 19
-100 16 -103 -12 -12 -362 -149 -523 -204 -539 -185 -1107 -310 -1654 -364
-504 -50 -1098 -47 -1590 8 -698 79 -1424 270 -2052 540 -21 9 -38 21 -38 27
0 12 41 209 180 859 150 703 380 1788 838 3943 l97 457 1815 0 1815 0 102
-483z"/>
</g>
</svg>
