<?xml version="1.0" standalone="no"?>
<!DOCTYPE svg PUBLIC "-//W3C//DTD SVG 20010904//EN"
 "http://www.w3.org/TR/2001/REC-SVG-20010904/DTD/svg10.dtd">
<svg version="1.0" xmlns="http://www.w3.org/2000/svg"
 width="2048.000000pt" height="2048.000000pt" viewBox="0 0 2048.000000 2048.000000"
 preserveAspectRatio="xMidYMid meet">
<metadata>
Created by potrace 1.16, written by Peter Selinger 2001-2019
</metadata>
<g transform="translate(0.000000,2048.000000) scale(0.100000,-0.100000)"
fill="#000000" stroke="none">
<path d="M9865 19094 c-27 -2 -129 -8 -225 -14 -1676 -101 -3337 -715 -4695
-1735 -591 -444 -1086 -915 -1550 -1475 -1485 -1794 -2198 -4097 -1990 -6425
109 -1213 449 -2343 1031 -3427 524 -976 1303 -1917 2189 -2643 765 -627 1607
-1111 2530 -1455 1971 -733 4192 -733 6165 2 1199 447 2265 1133 3181 2048
1115 1114 1906 2483 2304 3988 694 2626 148 5441 -1470 7582 -287 378 -510
636 -835 960 -986 987 -2152 1711 -3455 2145 -705 235 -1399 374 -2185 435
-133 11 -898 21 -995 14z m1020 -1498 c306 -30 663 -83 852 -126 355 -80 545
-131 823 -222 918 -300 1823 -818 2563 -1468 972 -853 1730 -2004 2131 -3238
180 -554 285 -1066 343 -1672 25 -264 25 -1005 0 -1270 -106 -1107 -417 -2106
-945 -3025 -348 -607 -712 -1086 -1192 -1565 -548 -549 -1169 -999 -1875
-1360 -897 -457 -1870 -722 -2900 -789 -168 -11 -732 -11 -900 0 -488 32 -894
96 -1360 214 -849 215 -1577 540 -2309 1028 -1203 803 -2139 1944 -2703 3297
-321 771 -503 1571 -554 2435 -13 219 -7 790 10 985 50 555 136 1015 287 1527
376 1278 1135 2484 2125 3373 866 779 1938 1361 3039 1650 544 142 918 202
1520 244 142 10 893 -3 1045 -18z"/>
<path d="M6735 14200 c-403 -33 -779 -213 -1064 -511 -212 -221 -351 -491
-423 -820 -19 -90 -22 -133 -22 -319 0 -186 3 -229 22 -320 75 -343 216 -606
451 -840 223 -222 464 -360 756 -433 164 -42 249 -51 445 -50 320 0 511 45
820 193 199 94 259 113 365 113 102 0 153 -18 354 -126 86 -47 253 -137 371
-200 118 -64 222 -119 231 -122 13 -5 22 7 39 52 96 240 254 468 431 619 61
52 76 70 68 80 -6 8 -77 48 -158 90 -366 193 -622 330 -695 373 -172 102 -215
214 -216 566 0 152 -13 258 -50 411 -187 780 -921 1309 -1725 1244z m365 -700
c46 -11 126 -41 178 -65 254 -121 432 -331 519 -612 25 -82 27 -100 27 -273 0
-174 -2 -191 -27 -274 -108 -351 -387 -610 -732 -681 -105 -22 -286 -22 -390
0 -300 63 -549 262 -686 548 -102 214 -117 484 -39 717 63 191 211 388 373
499 111 76 273 138 415 161 85 13 265 3 362 -20z"/>
<path d="M14675 12760 c-312 -26 -507 -79 -1206 -330 -1172 -421 -1766 -635
-2789 -1005 -412 -148 -476 -173 -565 -218 -230 -115 -392 -272 -497 -482 -51
-100 -88 -210 -153 -454 -64 -242 -94 -312 -168 -386 -91 -90 -129 -112 -717
-420 -338 -177 -350 -183 -418 -195 -70 -12 -177 -2 -257 26 -26 8 -114 47
-195 84 -253 119 -412 161 -678 182 -761 57 -1429 -349 -1701 -1034 -39 -98
-86 -291 -101 -412 -17 -136 -7 -390 20 -521 30 -142 82 -293 145 -420 237
-481 717 -823 1255 -895 109 -15 331 -15 440 0 272 36 557 155 781 325 96 73
256 239 332 345 79 112 184 318 226 446 53 163 72 287 81 544 10 264 25 353
71 423 64 98 89 113 584 374 193 102 368 195 390 208 44 25 364 195 1265 672
752 399 716 380 965 511 192 101 1464 773 1665 879 47 25 112 60 145 78 54 29
573 305 1075 570 102 54 262 139 355 190 94 50 279 149 411 220 l242 128 -10
36 c-5 20 -30 78 -55 130 -37 78 -59 109 -127 176 -133 133 -298 202 -535 225
-115 11 -141 11 -276 0z m-4084 -2022 c118 -64 175 -169 167 -307 -6 -95 -37
-160 -108 -224 -156 -140 -402 -94 -505 95 -22 41 -30 69 -33 129 -6 107 14
164 87 240 77 82 147 111 252 106 64 -3 86 -9 140 -39z m-3504 -1868 c340 -81
603 -331 710 -676 25 -83 27 -100 27 -274 0 -174 -2 -191 -27 -274 -53 -171
-164 -350 -283 -455 -307 -271 -733 -325 -1091 -136 -195 103 -334 250 -433
457 -122 256 -119 582 7 833 104 205 254 356 448 450 203 99 430 125 642 75z"/>
<path d="M12309 9804 c-140 -74 -319 -169 -399 -211 -80 -42 -172 -90 -205
-108 -33 -18 -107 -57 -165 -88 -250 -131 -735 -389 -738 -391 -3 -4 84 -37
588 -218 245 -88 486 -174 535 -192 107 -39 980 -353 1604 -577 709 -254 940
-310 1286 -310 209 0 368 32 505 101 66 34 159 111 209 174 61 77 133 223 135
273 l1 36 -280 150 c-154 82 -361 192 -460 244 -351 186 -381 201 -440 233
-33 18 -208 111 -390 207 -181 97 -395 210 -475 253 -80 42 -188 100 -240 127
-52 28 -239 127 -415 221 -176 93 -338 179 -361 190 l-41 21 -254 -135z"/>
</g>
</svg>
